%
M48
M72
T01C0.02362
T02C0.03200
T03C0.03543
T04C0.03937
T05C0.04000
T06C0.12205
%
T01
X171800Y76800
X171800Y101800
T02
X156800Y101800
X146800Y81800
X136800Y101800
X136800Y56800
X126800Y56800
X146800Y56800
X156800Y56800
X166800Y56800
X176800Y56800
X186800Y56800
X196800Y81800
X186800Y101800
X206800Y101800
X186800Y26800
X176800Y26800
X166800Y26800
X156800Y26800
X146800Y26800
X136800Y26800
X126800Y26800
X106800Y26800
X96800Y26800
X286800Y16800
X296800Y16800
T03
X271800Y76800
X271800Y86800
X271800Y96800
X271800Y106800
X271800Y116800
X231800Y116800
X231800Y106800
X231800Y96800
X231800Y86800
X231800Y76800
X106800Y71800
X106800Y61800
X106800Y51800
X106800Y81800
X106800Y91800
X66800Y91800
X66800Y81800
X66800Y71800
X66800Y61800
X66800Y51800
T04
X206800Y56800
X206800Y16800
T05
X46800Y16100
X46800Y27500
X46300Y36800
X47300Y46800
X46300Y56800
X47300Y66800
X46300Y76800
X47300Y86800
X46300Y96800
X47300Y106800
X291800Y96800
X292800Y86800
X291800Y76800
X292800Y66800
X291800Y56800
X291800Y47500
X291800Y36100
X292800Y106800
T06
X241800Y59300
X260550Y46800
X241800Y34300
M30
