G75*
%MOIN*%
%OFA0B0*%
%FSLAX25Y25*%
%IPPOS*%
%LPD*%
%AMOC8*
5,1,8,0,0,1.08239X$1,22.5*
%
%ADD10C,0.01600*%
%ADD11C,0.07400*%
%ADD12R,0.07400X0.07400*%
%ADD13C,0.04800*%
%ADD14C,0.07800*%
%ADD15OC8,0.04800*%
%ADD16OC8,0.17717*%
%ADD17C,0.18504*%
%ADD18C,0.01200*%
%ADD19C,0.03543*%
%ADD20C,0.16598*%
D10*
X0001800Y0001800D02*
X0001800Y0131800D01*
X0336800Y0131800D01*
X0336800Y0001800D01*
X0001800Y0001800D01*
X0004975Y0004975D02*
X0004975Y0128625D01*
X0220655Y0128625D01*
X0219700Y0127670D01*
X0214700Y0122670D01*
X0214700Y0077670D01*
X0210930Y0073900D01*
X0190930Y0073900D01*
X0189700Y0072670D01*
X0179131Y0062101D01*
X0178896Y0062337D01*
X0177536Y0062900D01*
X0176064Y0062900D01*
X0175733Y0062763D01*
X0192670Y0079700D01*
X0193100Y0079700D01*
X0193100Y0078664D01*
X0193663Y0077304D01*
X0194704Y0076263D01*
X0196064Y0075700D01*
X0197536Y0075700D01*
X0198896Y0076263D01*
X0199937Y0077304D01*
X0200500Y0078664D01*
X0200500Y0084936D01*
X0199937Y0086296D01*
X0198896Y0087337D01*
X0197536Y0087900D01*
X0196064Y0087900D01*
X0194704Y0087337D01*
X0193663Y0086296D01*
X0193100Y0084936D01*
X0193100Y0083900D01*
X0190930Y0083900D01*
X0169131Y0062101D01*
X0168896Y0062337D01*
X0167536Y0062900D01*
X0166064Y0062900D01*
X0164704Y0062337D01*
X0163663Y0061296D01*
X0163100Y0059936D01*
X0163100Y0053664D01*
X0163663Y0052304D01*
X0164704Y0051263D01*
X0166064Y0050700D01*
X0167536Y0050700D01*
X0167867Y0050837D01*
X0164700Y0047670D01*
X0164700Y0032333D01*
X0163663Y0031296D01*
X0163100Y0029936D01*
X0163100Y0023664D01*
X0163663Y0022304D01*
X0164704Y0021263D01*
X0166064Y0020700D01*
X0167536Y0020700D01*
X0168896Y0021263D01*
X0169937Y0022304D01*
X0170500Y0023664D01*
X0170500Y0029936D01*
X0169937Y0031296D01*
X0168900Y0032333D01*
X0168900Y0045930D01*
X0174469Y0051499D01*
X0174704Y0051263D01*
X0176064Y0050700D01*
X0177536Y0050700D01*
X0178896Y0051263D01*
X0179937Y0052304D01*
X0180500Y0053664D01*
X0180500Y0057530D01*
X0183237Y0060267D01*
X0183100Y0059936D01*
X0183100Y0053664D01*
X0183663Y0052304D01*
X0184704Y0051263D01*
X0186064Y0050700D01*
X0187536Y0050700D01*
X0188896Y0051263D01*
X0189937Y0052304D01*
X0190500Y0053664D01*
X0190500Y0059936D01*
X0189937Y0061296D01*
X0188896Y0062337D01*
X0187536Y0062900D01*
X0186064Y0062900D01*
X0185733Y0062763D01*
X0192670Y0069700D01*
X0212670Y0069700D01*
X0217670Y0074700D01*
X0218900Y0075930D01*
X0218900Y0120930D01*
X0222670Y0124700D01*
X0260930Y0124700D01*
X0267103Y0118527D01*
X0266800Y0117795D01*
X0266800Y0115805D01*
X0267561Y0113968D01*
X0268968Y0112561D01*
X0270805Y0111800D01*
X0268968Y0111039D01*
X0267561Y0109632D01*
X0266800Y0107795D01*
X0266800Y0105805D01*
X0267561Y0103968D01*
X0268968Y0102561D01*
X0270805Y0101800D01*
X0272795Y0101800D01*
X0274632Y0102561D01*
X0276039Y0103968D01*
X0276800Y0105805D01*
X0276800Y0107795D01*
X0276039Y0109632D01*
X0274632Y0111039D01*
X0272795Y0111800D01*
X0270805Y0111800D01*
X0272795Y0111800D01*
X0274632Y0112561D01*
X0276039Y0113968D01*
X0276800Y0115805D01*
X0276800Y0117795D01*
X0276039Y0119632D01*
X0274632Y0121039D01*
X0272795Y0121800D01*
X0270805Y0121800D01*
X0270073Y0121497D01*
X0262945Y0128625D01*
X0333625Y0128625D01*
X0333625Y0004975D01*
X0004975Y0004975D01*
X0004975Y0004997D02*
X0333625Y0004997D01*
X0333625Y0006596D02*
X0004975Y0006596D01*
X0004975Y0008194D02*
X0333625Y0008194D01*
X0333625Y0009793D02*
X0004975Y0009793D01*
X0004975Y0011391D02*
X0045103Y0011391D01*
X0045805Y0011100D02*
X0047795Y0011100D01*
X0049632Y0011861D01*
X0051039Y0013268D01*
X0051800Y0015105D01*
X0051800Y0017095D01*
X0051039Y0018932D01*
X0049632Y0020339D01*
X0047795Y0021100D01*
X0045805Y0021100D01*
X0043968Y0020339D01*
X0042561Y0018932D01*
X0042501Y0018786D01*
X0038700Y0022587D01*
X0038700Y0026013D01*
X0041428Y0028741D01*
X0041300Y0027933D01*
X0041300Y0027700D01*
X0046600Y0027700D01*
X0046600Y0027300D01*
X0047000Y0027300D01*
X0047000Y0027700D01*
X0052300Y0027700D01*
X0052300Y0027933D01*
X0052165Y0028788D01*
X0051897Y0029611D01*
X0051504Y0030383D01*
X0050995Y0031083D01*
X0050383Y0031695D01*
X0050239Y0031800D01*
X0050538Y0031800D01*
X0051300Y0032562D01*
X0051300Y0041038D01*
X0050538Y0041800D01*
X0043987Y0041800D01*
X0038700Y0047087D01*
X0038700Y0066013D01*
X0044727Y0072040D01*
X0045305Y0071800D01*
X0047295Y0071800D01*
X0049132Y0072561D01*
X0050539Y0073968D01*
X0051300Y0075805D01*
X0051300Y0077795D01*
X0050539Y0079632D01*
X0049132Y0081039D01*
X0047295Y0081800D01*
X0045305Y0081800D01*
X0044373Y0081414D01*
X0038700Y0087087D01*
X0038700Y0091013D01*
X0041942Y0094255D01*
X0042061Y0093968D01*
X0043468Y0092561D01*
X0045305Y0091800D01*
X0047295Y0091800D01*
X0049132Y0092561D01*
X0050539Y0093968D01*
X0050925Y0094900D01*
X0062254Y0094900D01*
X0062096Y0094683D01*
X0061703Y0093911D01*
X0061435Y0093088D01*
X0061300Y0092233D01*
X0061300Y0091886D01*
X0066714Y0091886D01*
X0066714Y0097300D01*
X0066367Y0097300D01*
X0065512Y0097165D01*
X0064689Y0096897D01*
X0064475Y0096788D01*
X0067587Y0099900D01*
X0133100Y0099900D01*
X0133100Y0098664D01*
X0133663Y0097304D01*
X0134704Y0096263D01*
X0136064Y0095700D01*
X0137536Y0095700D01*
X0138896Y0096263D01*
X0139937Y0097304D01*
X0140500Y0098664D01*
X0140500Y0099900D01*
X0141013Y0099900D01*
X0149900Y0091013D01*
X0149900Y0086333D01*
X0148896Y0087337D01*
X0147536Y0087900D01*
X0146064Y0087900D01*
X0144704Y0087337D01*
X0143663Y0086296D01*
X0143100Y0084936D01*
X0143100Y0078664D01*
X0143663Y0077304D01*
X0144700Y0076267D01*
X0144700Y0062333D01*
X0143663Y0061296D01*
X0143100Y0059936D01*
X0143100Y0053664D01*
X0143663Y0052304D01*
X0144700Y0051267D01*
X0144700Y0037670D01*
X0139131Y0032101D01*
X0138896Y0032337D01*
X0137536Y0032900D01*
X0136064Y0032900D01*
X0134704Y0032337D01*
X0133663Y0031296D01*
X0133100Y0029936D01*
X0133100Y0023664D01*
X0133663Y0022304D01*
X0134704Y0021263D01*
X0136064Y0020700D01*
X0137536Y0020700D01*
X0138896Y0021263D01*
X0139937Y0022304D01*
X0140500Y0023664D01*
X0140500Y0027530D01*
X0143237Y0030267D01*
X0143100Y0029936D01*
X0143100Y0023664D01*
X0143663Y0022304D01*
X0144704Y0021263D01*
X0146064Y0020700D01*
X0147536Y0020700D01*
X0148896Y0021263D01*
X0149937Y0022304D01*
X0150500Y0023664D01*
X0150500Y0029936D01*
X0149937Y0031296D01*
X0148896Y0032337D01*
X0147536Y0032900D01*
X0146064Y0032900D01*
X0145732Y0032763D01*
X0148900Y0035930D01*
X0148900Y0051267D01*
X0149937Y0052304D01*
X0150500Y0053664D01*
X0150500Y0059936D01*
X0150163Y0060750D01*
X0153100Y0057813D01*
X0153100Y0053664D01*
X0153663Y0052304D01*
X0154704Y0051263D01*
X0156064Y0050700D01*
X0157536Y0050700D01*
X0158896Y0051263D01*
X0159937Y0052304D01*
X0160500Y0053664D01*
X0160500Y0059936D01*
X0159937Y0061296D01*
X0158896Y0062337D01*
X0157536Y0062900D01*
X0156064Y0062900D01*
X0154704Y0062337D01*
X0154327Y0061960D01*
X0153700Y0062587D01*
X0153700Y0092587D01*
X0152587Y0093700D01*
X0142587Y0103700D01*
X0140500Y0103700D01*
X0140500Y0104936D01*
X0139937Y0106296D01*
X0138896Y0107337D01*
X0137536Y0107900D01*
X0136064Y0107900D01*
X0134704Y0107337D01*
X0133663Y0106296D01*
X0133100Y0104936D01*
X0133100Y0103700D01*
X0066013Y0103700D01*
X0064900Y0102587D01*
X0061013Y0098700D01*
X0050925Y0098700D01*
X0050539Y0099632D01*
X0049132Y0101039D01*
X0047295Y0101800D01*
X0045305Y0101800D01*
X0043468Y0101039D01*
X0042061Y0099632D01*
X0041675Y0098700D01*
X0041013Y0098700D01*
X0036013Y0093700D01*
X0034900Y0092587D01*
X0034900Y0085513D01*
X0041686Y0078727D01*
X0041300Y0077795D01*
X0041300Y0075805D01*
X0041833Y0074520D01*
X0036013Y0068700D01*
X0034900Y0067587D01*
X0034900Y0045513D01*
X0041300Y0039113D01*
X0041300Y0033987D01*
X0036013Y0028700D01*
X0034900Y0027587D01*
X0034900Y0021013D01*
X0039900Y0016013D01*
X0041013Y0014900D01*
X0041885Y0014900D01*
X0042561Y0013268D01*
X0043968Y0011861D01*
X0045805Y0011100D01*
X0048497Y0011391D02*
X0205001Y0011391D01*
X0204612Y0011518D02*
X0205465Y0011240D01*
X0206351Y0011100D01*
X0206616Y0011100D01*
X0206616Y0016616D01*
X0201100Y0016616D01*
X0201100Y0016351D01*
X0201240Y0015465D01*
X0201518Y0014612D01*
X0201925Y0013813D01*
X0202452Y0013087D01*
X0203087Y0012452D01*
X0203813Y0011925D01*
X0204612Y0011518D01*
X0206616Y0011391D02*
X0206984Y0011391D01*
X0206984Y0011100D02*
X0207249Y0011100D01*
X0208135Y0011240D01*
X0208988Y0011518D01*
X0209787Y0011925D01*
X0210513Y0012452D01*
X0211148Y0013087D01*
X0211675Y0013813D01*
X0212082Y0014612D01*
X0212360Y0015465D01*
X0212500Y0016351D01*
X0212500Y0016616D01*
X0206984Y0016616D01*
X0206984Y0011100D01*
X0208599Y0011391D02*
X0333625Y0011391D01*
X0333625Y0012990D02*
X0300614Y0012990D01*
X0302238Y0013662D02*
X0298709Y0012201D01*
X0294891Y0012201D01*
X0291362Y0013662D01*
X0288662Y0016362D01*
X0287201Y0019891D01*
X0287201Y0023709D01*
X0288662Y0027238D01*
X0291362Y0029938D01*
X0294891Y0031399D01*
X0298709Y0031399D01*
X0302238Y0029938D01*
X0304938Y0027238D01*
X0306399Y0023709D01*
X0306399Y0019891D01*
X0304938Y0016362D01*
X0302238Y0013662D01*
X0303163Y0014588D02*
X0333625Y0014588D01*
X0333625Y0016187D02*
X0304762Y0016187D01*
X0305527Y0017785D02*
X0333625Y0017785D01*
X0333625Y0019384D02*
X0306189Y0019384D01*
X0306399Y0020982D02*
X0333625Y0020982D01*
X0333625Y0022581D02*
X0306399Y0022581D01*
X0306205Y0024179D02*
X0333625Y0024179D01*
X0333625Y0025778D02*
X0305542Y0025778D01*
X0304799Y0027376D02*
X0333625Y0027376D01*
X0333625Y0028975D02*
X0303201Y0028975D01*
X0300704Y0030573D02*
X0333625Y0030573D01*
X0333625Y0032172D02*
X0294943Y0032172D01*
X0294632Y0031861D02*
X0296039Y0033268D01*
X0296800Y0035105D01*
X0296800Y0037095D01*
X0296039Y0038932D01*
X0294632Y0040339D01*
X0292795Y0041100D01*
X0290805Y0041100D01*
X0288968Y0040339D01*
X0287561Y0038932D01*
X0286800Y0037095D01*
X0286800Y0035105D01*
X0287561Y0033268D01*
X0288968Y0031861D01*
X0290805Y0031100D01*
X0292795Y0031100D01*
X0294632Y0031861D01*
X0292896Y0030573D02*
X0273700Y0030573D01*
X0273700Y0028975D02*
X0290399Y0028975D01*
X0288801Y0027376D02*
X0273700Y0027376D01*
X0273700Y0025778D02*
X0288058Y0025778D01*
X0287395Y0024179D02*
X0273700Y0024179D01*
X0273700Y0022581D02*
X0287201Y0022581D01*
X0287201Y0020982D02*
X0283558Y0020982D01*
X0283540Y0021000D02*
X0281800Y0021000D01*
X0281800Y0016800D01*
X0286000Y0016800D01*
X0286000Y0018540D01*
X0283540Y0021000D01*
X0281800Y0020982D02*
X0281800Y0020982D01*
X0281800Y0021000D02*
X0280060Y0021000D01*
X0277600Y0018540D01*
X0277600Y0016800D01*
X0281800Y0016800D01*
X0281800Y0016800D01*
X0281800Y0016800D01*
X0286000Y0016800D01*
X0286000Y0015060D01*
X0283540Y0012600D01*
X0281800Y0012600D01*
X0281800Y0016800D01*
X0281800Y0016800D01*
X0281800Y0016800D01*
X0281800Y0021000D01*
X0281800Y0019384D02*
X0281800Y0019384D01*
X0281800Y0017785D02*
X0281800Y0017785D01*
X0281800Y0016800D02*
X0277600Y0016800D01*
X0277600Y0015060D01*
X0280060Y0012600D01*
X0281800Y0012600D01*
X0281800Y0016800D01*
X0281800Y0016187D02*
X0281800Y0016187D01*
X0281800Y0014588D02*
X0281800Y0014588D01*
X0281800Y0012990D02*
X0281800Y0012990D01*
X0283929Y0012990D02*
X0292986Y0012990D01*
X0290437Y0014588D02*
X0285528Y0014588D01*
X0286000Y0016187D02*
X0288838Y0016187D01*
X0288073Y0017785D02*
X0286000Y0017785D01*
X0285156Y0019384D02*
X0287411Y0019384D01*
X0280042Y0020982D02*
X0273700Y0020982D01*
X0273700Y0020133D02*
X0273700Y0072175D01*
X0274632Y0072561D01*
X0276039Y0073968D01*
X0276800Y0075805D01*
X0276800Y0077795D01*
X0276039Y0079632D01*
X0274632Y0081039D01*
X0272795Y0081800D01*
X0270805Y0081800D01*
X0268968Y0081039D01*
X0267561Y0079632D01*
X0266800Y0077795D01*
X0266800Y0075805D01*
X0267561Y0073968D01*
X0268968Y0072561D01*
X0269900Y0072175D01*
X0269900Y0051709D01*
X0268994Y0053279D01*
X0267029Y0055244D01*
X0264623Y0056633D01*
X0261939Y0057352D01*
X0259161Y0057352D01*
X0256477Y0056633D01*
X0254071Y0055244D01*
X0252106Y0053279D01*
X0250717Y0050873D01*
X0249998Y0048189D01*
X0249998Y0045411D01*
X0250717Y0042727D01*
X0252106Y0040321D01*
X0254071Y0038356D01*
X0256477Y0036967D01*
X0259161Y0036248D01*
X0261939Y0036248D01*
X0264623Y0036967D01*
X0267029Y0038356D01*
X0268994Y0040321D01*
X0269900Y0041891D01*
X0269900Y0020133D01*
X0268100Y0018333D01*
X0268100Y0015267D01*
X0270267Y0013100D01*
X0273333Y0013100D01*
X0275500Y0015267D01*
X0275500Y0018333D01*
X0273700Y0020133D01*
X0274449Y0019384D02*
X0278444Y0019384D01*
X0277600Y0017785D02*
X0275500Y0017785D01*
X0275500Y0016187D02*
X0277600Y0016187D01*
X0278072Y0014588D02*
X0274821Y0014588D01*
X0268779Y0014588D02*
X0212070Y0014588D01*
X0212474Y0016187D02*
X0268100Y0016187D01*
X0268100Y0017785D02*
X0212415Y0017785D01*
X0212360Y0018135D02*
X0212082Y0018988D01*
X0211675Y0019787D01*
X0211148Y0020513D01*
X0210513Y0021148D01*
X0209787Y0021675D01*
X0208988Y0022082D01*
X0208135Y0022360D01*
X0207249Y0022500D01*
X0206984Y0022500D01*
X0206984Y0016984D01*
X0206616Y0016984D01*
X0206616Y0016616D01*
X0206984Y0016616D01*
X0206984Y0016984D01*
X0212500Y0016984D01*
X0212500Y0017249D01*
X0212360Y0018135D01*
X0211881Y0019384D02*
X0269151Y0019384D01*
X0269900Y0020982D02*
X0210679Y0020982D01*
X0206984Y0020982D02*
X0206616Y0020982D01*
X0206616Y0022500D02*
X0206616Y0016984D01*
X0201100Y0016984D01*
X0201100Y0017249D01*
X0201240Y0018135D01*
X0201518Y0018988D01*
X0201925Y0019787D01*
X0202452Y0020513D01*
X0203087Y0021148D01*
X0203813Y0021675D01*
X0204612Y0022082D01*
X0205465Y0022360D01*
X0206351Y0022500D01*
X0206616Y0022500D01*
X0206616Y0019384D02*
X0206984Y0019384D01*
X0206984Y0017785D02*
X0206616Y0017785D01*
X0206616Y0016187D02*
X0206984Y0016187D01*
X0206984Y0014588D02*
X0206616Y0014588D01*
X0206616Y0012990D02*
X0206984Y0012990D01*
X0211051Y0012990D02*
X0279671Y0012990D01*
X0269900Y0022581D02*
X0190051Y0022581D01*
X0189937Y0022304D02*
X0190500Y0023664D01*
X0190500Y0027813D01*
X0193700Y0031013D01*
X0193700Y0036013D01*
X0198700Y0041013D01*
X0198700Y0061013D01*
X0202587Y0064900D01*
X0217587Y0064900D01*
X0218700Y0066013D01*
X0223700Y0071013D01*
X0223700Y0091013D01*
X0227296Y0094609D01*
X0227561Y0093968D01*
X0228968Y0092561D01*
X0230183Y0092058D01*
X0229689Y0091897D01*
X0228917Y0091504D01*
X0228217Y0090995D01*
X0227605Y0090383D01*
X0227096Y0089683D01*
X0226703Y0088911D01*
X0226435Y0088088D01*
X0226300Y0087233D01*
X0226300Y0086886D01*
X0231714Y0086886D01*
X0231714Y0086714D01*
X0226300Y0086714D01*
X0226300Y0086367D01*
X0226435Y0085512D01*
X0226703Y0084689D01*
X0227096Y0083917D01*
X0227605Y0083217D01*
X0228217Y0082605D01*
X0228917Y0082096D01*
X0229689Y0081703D01*
X0230183Y0081542D01*
X0228968Y0081039D01*
X0227561Y0079632D01*
X0226800Y0077795D01*
X0226800Y0075805D01*
X0227561Y0073968D01*
X0228968Y0072561D01*
X0230805Y0071800D01*
X0232795Y0071800D01*
X0234632Y0072561D01*
X0236039Y0073968D01*
X0236800Y0075805D01*
X0236800Y0077795D01*
X0236039Y0079632D01*
X0234632Y0081039D01*
X0233417Y0081542D01*
X0233911Y0081703D01*
X0234683Y0082096D01*
X0235383Y0082605D01*
X0235995Y0083217D01*
X0236504Y0083917D01*
X0236897Y0084689D01*
X0237165Y0085512D01*
X0237300Y0086367D01*
X0237300Y0086714D01*
X0231886Y0086714D01*
X0231886Y0086886D01*
X0237300Y0086886D01*
X0237300Y0087233D01*
X0237165Y0088088D01*
X0236897Y0088911D01*
X0236504Y0089683D01*
X0235995Y0090383D01*
X0235383Y0090995D01*
X0234683Y0091504D01*
X0233911Y0091897D01*
X0233417Y0092058D01*
X0234632Y0092561D01*
X0236039Y0093968D01*
X0236800Y0095805D01*
X0236800Y0097795D01*
X0236039Y0099632D01*
X0234632Y0101039D01*
X0232795Y0101800D01*
X0230805Y0101800D01*
X0228968Y0101039D01*
X0227561Y0099632D01*
X0227175Y0098700D01*
X0226013Y0098700D01*
X0221013Y0093700D01*
X0219900Y0092587D01*
X0219900Y0072587D01*
X0216013Y0068700D01*
X0201013Y0068700D01*
X0196013Y0063700D01*
X0194900Y0062587D01*
X0194900Y0042587D01*
X0191013Y0038700D01*
X0189900Y0037587D01*
X0189900Y0032587D01*
X0189273Y0031960D01*
X0188896Y0032337D01*
X0187536Y0032900D01*
X0186064Y0032900D01*
X0184704Y0032337D01*
X0183663Y0031296D01*
X0183100Y0029936D01*
X0183100Y0023664D01*
X0183663Y0022304D01*
X0184704Y0021263D01*
X0186064Y0020700D01*
X0187536Y0020700D01*
X0188896Y0021263D01*
X0189937Y0022304D01*
X0190500Y0024179D02*
X0238802Y0024179D01*
X0237727Y0024467D02*
X0240411Y0023748D01*
X0243189Y0023748D01*
X0245873Y0024467D01*
X0248279Y0025856D01*
X0250244Y0027821D01*
X0251633Y0030227D01*
X0252352Y0032911D01*
X0252352Y0035689D01*
X0251633Y0038373D01*
X0250244Y0040779D01*
X0248279Y0042744D01*
X0245873Y0044133D01*
X0243189Y0044852D01*
X0240411Y0044852D01*
X0237727Y0044133D01*
X0235321Y0042744D01*
X0233356Y0040779D01*
X0231967Y0038373D01*
X0231248Y0035689D01*
X0231248Y0032911D01*
X0231967Y0030227D01*
X0233356Y0027821D01*
X0235321Y0025856D01*
X0237727Y0024467D01*
X0235457Y0025778D02*
X0190500Y0025778D01*
X0190500Y0027376D02*
X0233801Y0027376D01*
X0232690Y0028975D02*
X0191662Y0028975D01*
X0193260Y0030573D02*
X0231874Y0030573D01*
X0231446Y0032172D02*
X0193700Y0032172D01*
X0193700Y0033770D02*
X0231248Y0033770D01*
X0231248Y0035369D02*
X0193700Y0035369D01*
X0194654Y0036967D02*
X0231590Y0036967D01*
X0232078Y0038566D02*
X0196253Y0038566D01*
X0197851Y0040164D02*
X0233001Y0040164D01*
X0234340Y0041763D02*
X0198700Y0041763D01*
X0198700Y0043361D02*
X0236391Y0043361D01*
X0237592Y0049142D02*
X0246008Y0049142D01*
X0251958Y0055092D01*
X0251958Y0063508D01*
X0246008Y0069458D01*
X0237592Y0069458D01*
X0231642Y0063508D01*
X0231642Y0055092D01*
X0237592Y0049142D01*
X0236979Y0049755D02*
X0198700Y0049755D01*
X0198700Y0048157D02*
X0249998Y0048157D01*
X0249998Y0046558D02*
X0198700Y0046558D01*
X0198700Y0044960D02*
X0250119Y0044960D01*
X0250547Y0043361D02*
X0247209Y0043361D01*
X0249260Y0041763D02*
X0251274Y0041763D01*
X0250599Y0040164D02*
X0252263Y0040164D01*
X0251522Y0038566D02*
X0253862Y0038566D01*
X0252010Y0036967D02*
X0256477Y0036967D01*
X0252352Y0035369D02*
X0269900Y0035369D01*
X0269900Y0036967D02*
X0264623Y0036967D01*
X0267238Y0038566D02*
X0269900Y0038566D01*
X0269900Y0040164D02*
X0268837Y0040164D01*
X0269826Y0041763D02*
X0269900Y0041763D01*
X0273700Y0041763D02*
X0333625Y0041763D01*
X0333625Y0043361D02*
X0295439Y0043361D01*
X0295383Y0043305D02*
X0295995Y0043917D01*
X0296504Y0044617D01*
X0296897Y0045389D01*
X0297165Y0046212D01*
X0297300Y0047067D01*
X0297300Y0047300D01*
X0292000Y0047300D01*
X0292000Y0047700D01*
X0297300Y0047700D01*
X0297300Y0047933D01*
X0297165Y0048788D01*
X0296897Y0049611D01*
X0296504Y0050383D01*
X0295995Y0051083D01*
X0295383Y0051695D01*
X0294683Y0052204D01*
X0294273Y0052413D01*
X0294632Y0052561D01*
X0296039Y0053968D01*
X0296800Y0055805D01*
X0296800Y0057795D01*
X0296039Y0059632D01*
X0294632Y0061039D01*
X0292795Y0061800D01*
X0290805Y0061800D01*
X0288968Y0061039D01*
X0287561Y0059632D01*
X0286800Y0057795D01*
X0286800Y0055805D01*
X0287561Y0053968D01*
X0288968Y0052561D01*
X0289327Y0052413D01*
X0288917Y0052204D01*
X0288217Y0051695D01*
X0287605Y0051083D01*
X0287096Y0050383D01*
X0286703Y0049611D01*
X0286435Y0048788D01*
X0286300Y0047933D01*
X0286300Y0047700D01*
X0291600Y0047700D01*
X0291600Y0047300D01*
X0286300Y0047300D01*
X0286300Y0047067D01*
X0286435Y0046212D01*
X0286703Y0045389D01*
X0287096Y0044617D01*
X0287605Y0043917D01*
X0288217Y0043305D01*
X0288917Y0042796D01*
X0289689Y0042403D01*
X0290512Y0042135D01*
X0291367Y0042000D01*
X0291600Y0042000D01*
X0291600Y0047300D01*
X0292000Y0047300D01*
X0292000Y0042000D01*
X0292233Y0042000D01*
X0293088Y0042135D01*
X0293911Y0042403D01*
X0294683Y0042796D01*
X0295383Y0043305D01*
X0296678Y0044960D02*
X0333625Y0044960D01*
X0333625Y0046558D02*
X0297219Y0046558D01*
X0297265Y0048157D02*
X0333625Y0048157D01*
X0333625Y0049755D02*
X0296824Y0049755D01*
X0295724Y0051354D02*
X0333625Y0051354D01*
X0333625Y0052952D02*
X0295023Y0052952D01*
X0296280Y0054551D02*
X0333625Y0054551D01*
X0333625Y0056149D02*
X0296800Y0056149D01*
X0296800Y0057748D02*
X0333625Y0057748D01*
X0333625Y0059346D02*
X0296157Y0059346D01*
X0294726Y0060945D02*
X0333625Y0060945D01*
X0333625Y0062543D02*
X0295589Y0062543D01*
X0295632Y0062561D02*
X0297039Y0063968D01*
X0297800Y0065805D01*
X0297800Y0067795D01*
X0297039Y0069632D01*
X0295632Y0071039D01*
X0293795Y0071800D01*
X0291805Y0071800D01*
X0289968Y0071039D01*
X0288561Y0069632D01*
X0287800Y0067795D01*
X0287800Y0065805D01*
X0288561Y0063968D01*
X0289968Y0062561D01*
X0291805Y0061800D01*
X0293795Y0061800D01*
X0295632Y0062561D01*
X0297111Y0064142D02*
X0333625Y0064142D01*
X0333625Y0065740D02*
X0297773Y0065740D01*
X0297800Y0067339D02*
X0333625Y0067339D01*
X0333625Y0068937D02*
X0297327Y0068937D01*
X0296135Y0070536D02*
X0333625Y0070536D01*
X0333625Y0072134D02*
X0293602Y0072134D01*
X0292795Y0071800D02*
X0294632Y0072561D01*
X0296039Y0073968D01*
X0296800Y0075805D01*
X0296800Y0077795D01*
X0296039Y0079632D01*
X0294632Y0081039D01*
X0292795Y0081800D01*
X0290805Y0081800D01*
X0288968Y0081039D01*
X0287561Y0079632D01*
X0286800Y0077795D01*
X0286800Y0075805D01*
X0287561Y0073968D01*
X0288968Y0072561D01*
X0290805Y0071800D01*
X0292795Y0071800D01*
X0289998Y0072134D02*
X0273700Y0072134D01*
X0273700Y0070536D02*
X0289465Y0070536D01*
X0288273Y0068937D02*
X0273700Y0068937D01*
X0273700Y0067339D02*
X0287800Y0067339D01*
X0287827Y0065740D02*
X0273700Y0065740D01*
X0273700Y0064142D02*
X0288489Y0064142D01*
X0290011Y0062543D02*
X0273700Y0062543D01*
X0273700Y0060945D02*
X0288874Y0060945D01*
X0287443Y0059346D02*
X0273700Y0059346D01*
X0273700Y0057748D02*
X0286800Y0057748D01*
X0286800Y0056149D02*
X0273700Y0056149D01*
X0273700Y0054551D02*
X0287320Y0054551D01*
X0288577Y0052952D02*
X0273700Y0052952D01*
X0273700Y0051354D02*
X0287876Y0051354D01*
X0286776Y0049755D02*
X0273700Y0049755D01*
X0273700Y0048157D02*
X0286335Y0048157D01*
X0286381Y0046558D02*
X0273700Y0046558D01*
X0273700Y0044960D02*
X0286921Y0044960D01*
X0288161Y0043361D02*
X0273700Y0043361D01*
X0273700Y0040164D02*
X0288793Y0040164D01*
X0287409Y0038566D02*
X0273700Y0038566D01*
X0273700Y0036967D02*
X0286800Y0036967D01*
X0286800Y0035369D02*
X0273700Y0035369D01*
X0273700Y0033770D02*
X0287353Y0033770D01*
X0288657Y0032172D02*
X0273700Y0032172D01*
X0269900Y0032172D02*
X0252154Y0032172D01*
X0252352Y0033770D02*
X0269900Y0033770D01*
X0269900Y0030573D02*
X0251726Y0030573D01*
X0250910Y0028975D02*
X0269900Y0028975D01*
X0269900Y0027376D02*
X0249799Y0027376D01*
X0248143Y0025778D02*
X0269900Y0025778D01*
X0269900Y0024179D02*
X0244798Y0024179D01*
X0246621Y0049755D02*
X0250418Y0049755D01*
X0250995Y0051354D02*
X0248220Y0051354D01*
X0249818Y0052952D02*
X0251918Y0052952D01*
X0251417Y0054551D02*
X0253378Y0054551D01*
X0251958Y0056149D02*
X0255640Y0056149D01*
X0251958Y0057748D02*
X0269900Y0057748D01*
X0269900Y0059346D02*
X0251958Y0059346D01*
X0251958Y0060945D02*
X0269900Y0060945D01*
X0269900Y0062543D02*
X0251958Y0062543D01*
X0251324Y0064142D02*
X0269900Y0064142D01*
X0269900Y0065740D02*
X0249725Y0065740D01*
X0248127Y0067339D02*
X0269900Y0067339D01*
X0269900Y0068937D02*
X0246528Y0068937D01*
X0237072Y0068937D02*
X0221624Y0068937D01*
X0220026Y0067339D02*
X0235473Y0067339D01*
X0233875Y0065740D02*
X0218427Y0065740D01*
X0216250Y0068937D02*
X0191907Y0068937D01*
X0190309Y0067339D02*
X0199652Y0067339D01*
X0198053Y0065740D02*
X0188710Y0065740D01*
X0187112Y0064142D02*
X0196455Y0064142D01*
X0194900Y0062543D02*
X0188397Y0062543D01*
X0190082Y0060945D02*
X0194900Y0060945D01*
X0194900Y0059346D02*
X0190500Y0059346D01*
X0190500Y0057748D02*
X0194900Y0057748D01*
X0194900Y0056149D02*
X0190500Y0056149D01*
X0190500Y0054551D02*
X0194900Y0054551D01*
X0194900Y0052952D02*
X0190205Y0052952D01*
X0188986Y0051354D02*
X0194900Y0051354D01*
X0194900Y0049755D02*
X0172725Y0049755D01*
X0171127Y0048157D02*
X0194900Y0048157D01*
X0194900Y0046558D02*
X0169528Y0046558D01*
X0168900Y0044960D02*
X0194900Y0044960D01*
X0194900Y0043361D02*
X0168900Y0043361D01*
X0168900Y0041763D02*
X0194076Y0041763D01*
X0192477Y0040164D02*
X0168900Y0040164D01*
X0168900Y0038566D02*
X0190879Y0038566D01*
X0189900Y0036967D02*
X0168900Y0036967D01*
X0168900Y0035369D02*
X0189900Y0035369D01*
X0189900Y0033770D02*
X0168900Y0033770D01*
X0169061Y0032172D02*
X0174539Y0032172D01*
X0174704Y0032337D02*
X0173663Y0031296D01*
X0173100Y0029936D01*
X0173100Y0023664D01*
X0173663Y0022304D01*
X0174704Y0021263D01*
X0176064Y0020700D01*
X0177536Y0020700D01*
X0178896Y0021263D01*
X0179937Y0022304D01*
X0180500Y0023664D01*
X0180500Y0029936D01*
X0179937Y0031296D01*
X0178896Y0032337D01*
X0177536Y0032900D01*
X0176064Y0032900D01*
X0174704Y0032337D01*
X0173364Y0030573D02*
X0170236Y0030573D01*
X0170500Y0028975D02*
X0173100Y0028975D01*
X0173100Y0027376D02*
X0170500Y0027376D01*
X0170500Y0025778D02*
X0173100Y0025778D01*
X0173100Y0024179D02*
X0170500Y0024179D01*
X0170051Y0022581D02*
X0173549Y0022581D01*
X0175383Y0020982D02*
X0168217Y0020982D01*
X0165383Y0020982D02*
X0159241Y0020982D01*
X0159001Y0020808D02*
X0159536Y0021196D01*
X0160004Y0021664D01*
X0160392Y0022199D01*
X0160692Y0022788D01*
X0160897Y0023416D01*
X0161000Y0024069D01*
X0161000Y0026800D01*
X0161000Y0029531D01*
X0160897Y0030184D01*
X0160692Y0030812D01*
X0160392Y0031401D01*
X0160004Y0031936D01*
X0159536Y0032404D01*
X0159001Y0032792D01*
X0158412Y0033092D01*
X0157784Y0033297D01*
X0157131Y0033400D01*
X0156800Y0033400D01*
X0156800Y0026800D01*
X0161000Y0026800D01*
X0156800Y0026800D01*
X0156800Y0026800D01*
X0156800Y0026800D01*
X0156800Y0020200D01*
X0157131Y0020200D01*
X0157784Y0020303D01*
X0158412Y0020508D01*
X0159001Y0020808D01*
X0156800Y0020982D02*
X0156800Y0020982D01*
X0156800Y0020200D02*
X0156800Y0026800D01*
X0156800Y0026800D01*
X0156800Y0026800D01*
X0152600Y0026800D01*
X0152600Y0029531D01*
X0152703Y0030184D01*
X0152908Y0030812D01*
X0153208Y0031401D01*
X0153596Y0031936D01*
X0154064Y0032404D01*
X0154599Y0032792D01*
X0155188Y0033092D01*
X0155816Y0033297D01*
X0156469Y0033400D01*
X0156800Y0033400D01*
X0156800Y0026800D01*
X0152600Y0026800D01*
X0152600Y0024069D01*
X0152703Y0023416D01*
X0152908Y0022788D01*
X0153208Y0022199D01*
X0153596Y0021664D01*
X0154064Y0021196D01*
X0154599Y0020808D01*
X0155188Y0020508D01*
X0155816Y0020303D01*
X0156469Y0020200D01*
X0156800Y0020200D01*
X0156800Y0022581D02*
X0156800Y0022581D01*
X0156800Y0024179D02*
X0156800Y0024179D01*
X0156800Y0025778D02*
X0156800Y0025778D01*
X0156800Y0027376D02*
X0156800Y0027376D01*
X0156800Y0028975D02*
X0156800Y0028975D01*
X0156800Y0030573D02*
X0156800Y0030573D01*
X0156800Y0032172D02*
X0156800Y0032172D01*
X0159768Y0032172D02*
X0164539Y0032172D01*
X0164700Y0033770D02*
X0146740Y0033770D01*
X0148339Y0035369D02*
X0164700Y0035369D01*
X0164700Y0036967D02*
X0148900Y0036967D01*
X0148900Y0038566D02*
X0164700Y0038566D01*
X0164700Y0040164D02*
X0148900Y0040164D01*
X0148900Y0041763D02*
X0164700Y0041763D01*
X0164700Y0043361D02*
X0148900Y0043361D01*
X0148900Y0044960D02*
X0164700Y0044960D01*
X0164700Y0046558D02*
X0148900Y0046558D01*
X0148900Y0048157D02*
X0165187Y0048157D01*
X0166800Y0046800D02*
X0176800Y0056800D01*
X0191800Y0071800D01*
X0211800Y0071800D01*
X0216800Y0076800D01*
X0216800Y0121800D01*
X0221800Y0126800D01*
X0261800Y0126800D01*
X0271800Y0116800D01*
X0276800Y0116893D02*
X0333625Y0116893D01*
X0333625Y0118491D02*
X0276511Y0118491D01*
X0275581Y0120090D02*
X0333625Y0120090D01*
X0333625Y0121688D02*
X0273064Y0121688D01*
X0270536Y0121688D02*
X0269881Y0121688D01*
X0268283Y0123287D02*
X0333625Y0123287D01*
X0333625Y0124885D02*
X0266684Y0124885D01*
X0265086Y0126484D02*
X0333625Y0126484D01*
X0333625Y0128082D02*
X0263487Y0128082D01*
X0262343Y0123287D02*
X0221257Y0123287D01*
X0219658Y0121688D02*
X0229279Y0121688D01*
X0228917Y0121504D02*
X0228217Y0120995D01*
X0227605Y0120383D01*
X0227096Y0119683D01*
X0226703Y0118911D01*
X0226435Y0118088D01*
X0226300Y0117233D01*
X0226300Y0116886D01*
X0231714Y0116886D01*
X0231714Y0122300D01*
X0231367Y0122300D01*
X0230512Y0122165D01*
X0229689Y0121897D01*
X0228917Y0121504D01*
X0227392Y0120090D02*
X0218900Y0120090D01*
X0218900Y0118491D02*
X0226567Y0118491D01*
X0226300Y0116893D02*
X0218900Y0116893D01*
X0218900Y0115294D02*
X0226506Y0115294D01*
X0226435Y0115512D02*
X0226703Y0114689D01*
X0227096Y0113917D01*
X0227605Y0113217D01*
X0228217Y0112605D01*
X0228917Y0112096D01*
X0229689Y0111703D01*
X0230183Y0111542D01*
X0228968Y0111039D01*
X0227561Y0109632D01*
X0226800Y0107795D01*
X0226800Y0105805D01*
X0227561Y0103968D01*
X0228968Y0102561D01*
X0230805Y0101800D01*
X0232795Y0101800D01*
X0234632Y0102561D01*
X0236039Y0103968D01*
X0236800Y0105805D01*
X0236800Y0107795D01*
X0236039Y0109632D01*
X0234632Y0111039D01*
X0233417Y0111542D01*
X0233911Y0111703D01*
X0234683Y0112096D01*
X0235383Y0112605D01*
X0235995Y0113217D01*
X0236504Y0113917D01*
X0236897Y0114689D01*
X0237165Y0115512D01*
X0237300Y0116367D01*
X0237300Y0116714D01*
X0231886Y0116714D01*
X0231886Y0116886D01*
X0237300Y0116886D01*
X0237300Y0117233D01*
X0237165Y0118088D01*
X0236897Y0118911D01*
X0236504Y0119683D01*
X0235995Y0120383D01*
X0235383Y0120995D01*
X0234683Y0121504D01*
X0233911Y0121897D01*
X0233088Y0122165D01*
X0232233Y0122300D01*
X0231886Y0122300D01*
X0231886Y0116886D01*
X0231714Y0116886D01*
X0231714Y0116714D01*
X0226300Y0116714D01*
X0226300Y0116367D01*
X0226435Y0115512D01*
X0227257Y0113696D02*
X0218900Y0113696D01*
X0218900Y0112097D02*
X0228916Y0112097D01*
X0228428Y0110499D02*
X0218900Y0110499D01*
X0218900Y0108900D02*
X0227258Y0108900D01*
X0226800Y0107302D02*
X0218900Y0107302D01*
X0218900Y0105703D02*
X0226842Y0105703D01*
X0227504Y0104105D02*
X0218900Y0104105D01*
X0218900Y0102506D02*
X0229100Y0102506D01*
X0228837Y0100908D02*
X0218900Y0100908D01*
X0218900Y0099309D02*
X0227427Y0099309D01*
X0225024Y0097711D02*
X0218900Y0097711D01*
X0218900Y0096112D02*
X0223425Y0096112D01*
X0221827Y0094514D02*
X0218900Y0094514D01*
X0218900Y0092915D02*
X0220228Y0092915D01*
X0219900Y0091317D02*
X0218900Y0091317D01*
X0218900Y0089718D02*
X0219900Y0089718D01*
X0219900Y0088120D02*
X0218900Y0088120D01*
X0218900Y0086521D02*
X0219900Y0086521D01*
X0219900Y0084923D02*
X0218900Y0084923D01*
X0218900Y0083324D02*
X0219900Y0083324D01*
X0219900Y0081726D02*
X0218900Y0081726D01*
X0218900Y0080127D02*
X0219900Y0080127D01*
X0219900Y0078529D02*
X0218900Y0078529D01*
X0218900Y0076930D02*
X0219900Y0076930D01*
X0219900Y0075332D02*
X0218301Y0075332D01*
X0216703Y0073733D02*
X0219900Y0073733D01*
X0219448Y0072134D02*
X0215104Y0072134D01*
X0213506Y0070536D02*
X0217849Y0070536D01*
X0212362Y0075332D02*
X0188301Y0075332D01*
X0189900Y0076930D02*
X0194037Y0076930D01*
X0193156Y0078529D02*
X0191498Y0078529D01*
X0191800Y0081800D02*
X0166800Y0056800D01*
X0163100Y0056149D02*
X0160500Y0056149D01*
X0160500Y0054551D02*
X0163100Y0054551D01*
X0163395Y0052952D02*
X0160205Y0052952D01*
X0158986Y0051354D02*
X0164614Y0051354D01*
X0166786Y0049755D02*
X0148900Y0049755D01*
X0148986Y0051354D02*
X0154614Y0051354D01*
X0153395Y0052952D02*
X0150205Y0052952D01*
X0150500Y0054551D02*
X0153100Y0054551D01*
X0153100Y0056149D02*
X0150500Y0056149D01*
X0150500Y0057748D02*
X0153100Y0057748D01*
X0151567Y0059346D02*
X0150500Y0059346D01*
X0146800Y0056800D02*
X0146800Y0036800D01*
X0136800Y0026800D01*
X0140500Y0027376D02*
X0143100Y0027376D01*
X0143100Y0025778D02*
X0140500Y0025778D01*
X0140500Y0024179D02*
X0143100Y0024179D01*
X0143549Y0022581D02*
X0140051Y0022581D01*
X0138217Y0020982D02*
X0145383Y0020982D01*
X0148217Y0020982D02*
X0154359Y0020982D01*
X0153013Y0022581D02*
X0150051Y0022581D01*
X0150500Y0024179D02*
X0152600Y0024179D01*
X0152600Y0025778D02*
X0150500Y0025778D01*
X0150500Y0027376D02*
X0152600Y0027376D01*
X0152600Y0028975D02*
X0150500Y0028975D01*
X0150236Y0030573D02*
X0152830Y0030573D01*
X0153832Y0032172D02*
X0149061Y0032172D01*
X0143100Y0028975D02*
X0141945Y0028975D01*
X0139202Y0032172D02*
X0139061Y0032172D01*
X0140800Y0033770D02*
X0122517Y0033770D01*
X0124115Y0032172D02*
X0124539Y0032172D01*
X0124704Y0032337D02*
X0124327Y0031960D01*
X0117587Y0038700D01*
X0112587Y0038700D01*
X0108700Y0042587D01*
X0108700Y0047175D01*
X0109632Y0047561D01*
X0111039Y0048968D01*
X0111800Y0050805D01*
X0111800Y0052795D01*
X0111039Y0054632D01*
X0109632Y0056039D01*
X0108417Y0056542D01*
X0108911Y0056703D01*
X0109683Y0057096D01*
X0110383Y0057605D01*
X0110995Y0058217D01*
X0111504Y0058917D01*
X0111897Y0059689D01*
X0112165Y0060512D01*
X0112300Y0061367D01*
X0112300Y0061714D01*
X0106886Y0061714D01*
X0106886Y0061886D01*
X0112300Y0061886D01*
X0112300Y0062233D01*
X0112165Y0063088D01*
X0111897Y0063911D01*
X0111504Y0064683D01*
X0110995Y0065383D01*
X0110383Y0065995D01*
X0109683Y0066504D01*
X0108911Y0066897D01*
X0108417Y0067058D01*
X0109632Y0067561D01*
X0111039Y0068968D01*
X0111800Y0070805D01*
X0111800Y0072795D01*
X0111039Y0074632D01*
X0109632Y0076039D01*
X0107795Y0076800D01*
X0109632Y0077561D01*
X0111039Y0078968D01*
X0111342Y0079700D01*
X0120930Y0079700D01*
X0124700Y0075930D01*
X0124700Y0062333D01*
X0123663Y0061296D01*
X0123100Y0059936D01*
X0123100Y0053664D01*
X0123663Y0052304D01*
X0124704Y0051263D01*
X0126064Y0050700D01*
X0127536Y0050700D01*
X0128896Y0051263D01*
X0129937Y0052304D01*
X0130500Y0053664D01*
X0130500Y0059936D01*
X0129937Y0061296D01*
X0128900Y0062333D01*
X0128900Y0077670D01*
X0127670Y0078900D01*
X0122670Y0083900D01*
X0111342Y0083900D01*
X0111039Y0084632D01*
X0109632Y0086039D01*
X0107795Y0086800D01*
X0109632Y0087561D01*
X0111039Y0088968D01*
X0111342Y0089700D01*
X0130930Y0089700D01*
X0134700Y0085930D01*
X0134700Y0062333D01*
X0133663Y0061296D01*
X0133100Y0059936D01*
X0133100Y0053664D01*
X0133663Y0052304D01*
X0134704Y0051263D01*
X0136064Y0050700D01*
X0137536Y0050700D01*
X0138896Y0051263D01*
X0139937Y0052304D01*
X0140500Y0053664D01*
X0140500Y0059936D01*
X0139937Y0061296D01*
X0138900Y0062333D01*
X0138900Y0087670D01*
X0137670Y0088900D01*
X0132670Y0093900D01*
X0111342Y0093900D01*
X0111039Y0094632D01*
X0109632Y0096039D01*
X0107795Y0096800D01*
X0105805Y0096800D01*
X0103968Y0096039D01*
X0102561Y0094632D01*
X0101800Y0092795D01*
X0101800Y0090805D01*
X0102561Y0088968D01*
X0103968Y0087561D01*
X0105805Y0086800D01*
X0107795Y0086800D01*
X0105805Y0086800D01*
X0103968Y0086039D01*
X0102561Y0084632D01*
X0101800Y0082795D01*
X0101800Y0080805D01*
X0102561Y0078968D01*
X0103968Y0077561D01*
X0105805Y0076800D01*
X0107795Y0076800D01*
X0105805Y0076800D01*
X0103968Y0076039D01*
X0102561Y0074632D01*
X0102258Y0073900D01*
X0100930Y0073900D01*
X0099700Y0072670D01*
X0099700Y0072670D01*
X0095930Y0068900D01*
X0094700Y0067670D01*
X0094700Y0029933D01*
X0093100Y0028333D01*
X0093100Y0025267D01*
X0095267Y0023100D01*
X0098333Y0023100D01*
X0100500Y0025267D01*
X0100500Y0028333D01*
X0098900Y0029933D01*
X0098900Y0065930D01*
X0102379Y0069409D01*
X0102561Y0068968D01*
X0103968Y0067561D01*
X0105183Y0067058D01*
X0104689Y0066897D01*
X0103917Y0066504D01*
X0103217Y0065995D01*
X0102605Y0065383D01*
X0102096Y0064683D01*
X0101703Y0063911D01*
X0101435Y0063088D01*
X0101300Y0062233D01*
X0101300Y0061886D01*
X0106714Y0061886D01*
X0106714Y0061714D01*
X0101300Y0061714D01*
X0101300Y0061367D01*
X0101435Y0060512D01*
X0101703Y0059689D01*
X0102096Y0058917D01*
X0102605Y0058217D01*
X0103217Y0057605D01*
X0103917Y0057096D01*
X0104689Y0056703D01*
X0105183Y0056542D01*
X0103968Y0056039D01*
X0102561Y0054632D01*
X0101800Y0052795D01*
X0101800Y0050805D01*
X0102561Y0048968D01*
X0103968Y0047561D01*
X0104900Y0047175D01*
X0104900Y0041013D01*
X0109900Y0036013D01*
X0111013Y0034900D01*
X0116013Y0034900D01*
X0123100Y0027813D01*
X0123100Y0023664D01*
X0123663Y0022304D01*
X0124704Y0021263D01*
X0126064Y0020700D01*
X0127536Y0020700D01*
X0128896Y0021263D01*
X0129937Y0022304D01*
X0130500Y0023664D01*
X0130500Y0029936D01*
X0129937Y0031296D01*
X0128896Y0032337D01*
X0127536Y0032900D01*
X0126064Y0032900D01*
X0124704Y0032337D01*
X0121938Y0028975D02*
X0110565Y0028975D01*
X0111000Y0028540D02*
X0108540Y0031000D01*
X0106800Y0031000D01*
X0106800Y0026800D01*
X0111000Y0026800D01*
X0111000Y0028540D01*
X0111000Y0027376D02*
X0123100Y0027376D01*
X0123100Y0025778D02*
X0111000Y0025778D01*
X0111000Y0025060D02*
X0111000Y0026800D01*
X0106800Y0026800D01*
X0106800Y0026800D01*
X0106800Y0026800D01*
X0106800Y0022600D01*
X0108540Y0022600D01*
X0111000Y0025060D01*
X0110119Y0024179D02*
X0123100Y0024179D01*
X0123549Y0022581D02*
X0049260Y0022581D01*
X0048911Y0022403D02*
X0049683Y0022796D01*
X0050383Y0023305D01*
X0050995Y0023917D01*
X0051504Y0024617D01*
X0051897Y0025389D01*
X0052165Y0026212D01*
X0052300Y0027067D01*
X0052300Y0027300D01*
X0047000Y0027300D01*
X0047000Y0022000D01*
X0047233Y0022000D01*
X0048088Y0022135D01*
X0048911Y0022403D01*
X0048079Y0020982D02*
X0125383Y0020982D01*
X0128217Y0020982D02*
X0135383Y0020982D01*
X0133549Y0022581D02*
X0130051Y0022581D01*
X0130500Y0024179D02*
X0133100Y0024179D01*
X0133100Y0025778D02*
X0130500Y0025778D01*
X0130500Y0027376D02*
X0133100Y0027376D01*
X0133100Y0028975D02*
X0130500Y0028975D01*
X0130236Y0030573D02*
X0133364Y0030573D01*
X0134539Y0032172D02*
X0129061Y0032172D01*
X0120918Y0035369D02*
X0142399Y0035369D01*
X0143997Y0036967D02*
X0119320Y0036967D01*
X0117721Y0038566D02*
X0144700Y0038566D01*
X0144700Y0040164D02*
X0111123Y0040164D01*
X0109524Y0041763D02*
X0144700Y0041763D01*
X0144700Y0043361D02*
X0108700Y0043361D01*
X0108700Y0044960D02*
X0144700Y0044960D01*
X0144700Y0046558D02*
X0108700Y0046558D01*
X0110228Y0048157D02*
X0144700Y0048157D01*
X0144700Y0049755D02*
X0111365Y0049755D01*
X0111800Y0051354D02*
X0124614Y0051354D01*
X0123395Y0052952D02*
X0111735Y0052952D01*
X0111073Y0054551D02*
X0123100Y0054551D01*
X0123100Y0056149D02*
X0109365Y0056149D01*
X0110526Y0057748D02*
X0123100Y0057748D01*
X0123100Y0059346D02*
X0111723Y0059346D01*
X0112233Y0060945D02*
X0123518Y0060945D01*
X0124700Y0062543D02*
X0112251Y0062543D01*
X0111780Y0064142D02*
X0124700Y0064142D01*
X0124700Y0065740D02*
X0110638Y0065740D01*
X0109096Y0067339D02*
X0124700Y0067339D01*
X0124700Y0068937D02*
X0111009Y0068937D01*
X0111688Y0070536D02*
X0124700Y0070536D01*
X0124700Y0072134D02*
X0111800Y0072134D01*
X0111411Y0073733D02*
X0124700Y0073733D01*
X0124700Y0075332D02*
X0110340Y0075332D01*
X0108108Y0076930D02*
X0123700Y0076930D01*
X0122102Y0078529D02*
X0110600Y0078529D01*
X0106800Y0081800D02*
X0121800Y0081800D01*
X0126800Y0076800D01*
X0126800Y0056800D01*
X0130500Y0056149D02*
X0133100Y0056149D01*
X0133100Y0054551D02*
X0130500Y0054551D01*
X0130205Y0052952D02*
X0133395Y0052952D01*
X0134614Y0051354D02*
X0128986Y0051354D01*
X0130500Y0057748D02*
X0133100Y0057748D01*
X0133100Y0059346D02*
X0130500Y0059346D01*
X0130082Y0060945D02*
X0133518Y0060945D01*
X0134700Y0062543D02*
X0128900Y0062543D01*
X0128900Y0064142D02*
X0134700Y0064142D01*
X0134700Y0065740D02*
X0128900Y0065740D01*
X0128900Y0067339D02*
X0134700Y0067339D01*
X0134700Y0068937D02*
X0128900Y0068937D01*
X0128900Y0070536D02*
X0134700Y0070536D01*
X0134700Y0072134D02*
X0128900Y0072134D01*
X0128900Y0073733D02*
X0134700Y0073733D01*
X0134700Y0075332D02*
X0128900Y0075332D01*
X0128900Y0076930D02*
X0134700Y0076930D01*
X0134700Y0078529D02*
X0128041Y0078529D01*
X0126443Y0080127D02*
X0134700Y0080127D01*
X0134700Y0081726D02*
X0124844Y0081726D01*
X0123246Y0083324D02*
X0134700Y0083324D01*
X0134700Y0084923D02*
X0110748Y0084923D01*
X0108468Y0086521D02*
X0134109Y0086521D01*
X0132511Y0088120D02*
X0110191Y0088120D01*
X0106800Y0091800D02*
X0131800Y0091800D01*
X0136800Y0086800D01*
X0136800Y0056800D01*
X0140500Y0056149D02*
X0143100Y0056149D01*
X0143100Y0054551D02*
X0140500Y0054551D01*
X0140205Y0052952D02*
X0143395Y0052952D01*
X0144614Y0051354D02*
X0138986Y0051354D01*
X0140500Y0057748D02*
X0143100Y0057748D01*
X0143100Y0059346D02*
X0140500Y0059346D01*
X0140082Y0060945D02*
X0143518Y0060945D01*
X0144700Y0062543D02*
X0138900Y0062543D01*
X0138900Y0064142D02*
X0144700Y0064142D01*
X0144700Y0065740D02*
X0138900Y0065740D01*
X0138900Y0067339D02*
X0144700Y0067339D01*
X0144700Y0068937D02*
X0138900Y0068937D01*
X0138900Y0070536D02*
X0144700Y0070536D01*
X0144700Y0072134D02*
X0138900Y0072134D01*
X0138900Y0073733D02*
X0144700Y0073733D01*
X0144700Y0075332D02*
X0138900Y0075332D01*
X0138900Y0076930D02*
X0144037Y0076930D01*
X0143156Y0078529D02*
X0138900Y0078529D01*
X0138900Y0080127D02*
X0143100Y0080127D01*
X0143100Y0081726D02*
X0138900Y0081726D01*
X0138900Y0083324D02*
X0143100Y0083324D01*
X0143100Y0084923D02*
X0138900Y0084923D01*
X0138900Y0086521D02*
X0143889Y0086521D01*
X0146800Y0081800D02*
X0146800Y0056800D01*
X0153744Y0062543D02*
X0155203Y0062543D01*
X0153700Y0064142D02*
X0171172Y0064142D01*
X0169574Y0062543D02*
X0168397Y0062543D01*
X0165203Y0062543D02*
X0158397Y0062543D01*
X0160082Y0060945D02*
X0163518Y0060945D01*
X0163100Y0059346D02*
X0160500Y0059346D01*
X0160500Y0057748D02*
X0163100Y0057748D01*
X0153700Y0065740D02*
X0172771Y0065740D01*
X0174369Y0067339D02*
X0153700Y0067339D01*
X0153700Y0068937D02*
X0175968Y0068937D01*
X0177566Y0070536D02*
X0153700Y0070536D01*
X0153700Y0072134D02*
X0179165Y0072134D01*
X0180763Y0073733D02*
X0172422Y0073733D01*
X0172411Y0073728D02*
X0173540Y0074196D01*
X0174404Y0075060D01*
X0174872Y0076189D01*
X0174872Y0077411D01*
X0174404Y0078540D01*
X0173900Y0079044D01*
X0173900Y0099556D01*
X0174404Y0100060D01*
X0174872Y0101189D01*
X0174872Y0102411D01*
X0174404Y0103540D01*
X0173540Y0104404D01*
X0172411Y0104872D01*
X0171189Y0104872D01*
X0170060Y0104404D01*
X0169196Y0103540D01*
X0168728Y0102411D01*
X0168728Y0101189D01*
X0169196Y0100060D01*
X0169700Y0099556D01*
X0169700Y0079044D01*
X0169196Y0078540D01*
X0168728Y0077411D01*
X0168728Y0076189D01*
X0169196Y0075060D01*
X0170060Y0074196D01*
X0171189Y0073728D01*
X0172411Y0073728D01*
X0171178Y0073733D02*
X0153700Y0073733D01*
X0153700Y0075332D02*
X0169084Y0075332D01*
X0168728Y0076930D02*
X0153700Y0076930D01*
X0153700Y0078529D02*
X0169191Y0078529D01*
X0169700Y0080127D02*
X0153700Y0080127D01*
X0153700Y0081726D02*
X0169700Y0081726D01*
X0169700Y0083324D02*
X0153700Y0083324D01*
X0153700Y0084923D02*
X0169700Y0084923D01*
X0169700Y0086521D02*
X0153700Y0086521D01*
X0153700Y0088120D02*
X0169700Y0088120D01*
X0169700Y0089718D02*
X0153700Y0089718D01*
X0153700Y0091317D02*
X0169700Y0091317D01*
X0169700Y0092915D02*
X0153372Y0092915D01*
X0151773Y0094514D02*
X0169700Y0094514D01*
X0169700Y0096112D02*
X0159420Y0096112D01*
X0159536Y0096196D02*
X0160004Y0096664D01*
X0160392Y0097199D01*
X0160692Y0097788D01*
X0160897Y0098416D01*
X0161000Y0099069D01*
X0161000Y0101800D01*
X0161000Y0104531D01*
X0160897Y0105184D01*
X0160692Y0105812D01*
X0160392Y0106401D01*
X0160004Y0106936D01*
X0159536Y0107404D01*
X0159001Y0107792D01*
X0158412Y0108092D01*
X0157784Y0108297D01*
X0157131Y0108400D01*
X0156800Y0108400D01*
X0156800Y0101800D01*
X0161000Y0101800D01*
X0156800Y0101800D01*
X0156800Y0101800D01*
X0156800Y0101800D01*
X0156800Y0095200D01*
X0157131Y0095200D01*
X0157784Y0095303D01*
X0158412Y0095508D01*
X0159001Y0095808D01*
X0159536Y0096196D01*
X0160653Y0097711D02*
X0169700Y0097711D01*
X0169700Y0099309D02*
X0161000Y0099309D01*
X0161000Y0100908D02*
X0168845Y0100908D01*
X0168768Y0102506D02*
X0161000Y0102506D01*
X0161000Y0104105D02*
X0169761Y0104105D01*
X0171800Y0101800D02*
X0171800Y0076800D01*
X0174872Y0076930D02*
X0183960Y0076930D01*
X0182362Y0075332D02*
X0174516Y0075332D01*
X0174409Y0078529D02*
X0185559Y0078529D01*
X0187157Y0080127D02*
X0173900Y0080127D01*
X0173900Y0081726D02*
X0188756Y0081726D01*
X0190354Y0083324D02*
X0173900Y0083324D01*
X0173900Y0084923D02*
X0193100Y0084923D01*
X0193889Y0086521D02*
X0173900Y0086521D01*
X0173900Y0088120D02*
X0214700Y0088120D01*
X0214700Y0089718D02*
X0173900Y0089718D01*
X0173900Y0091317D02*
X0214700Y0091317D01*
X0214700Y0092915D02*
X0173900Y0092915D01*
X0173900Y0094514D02*
X0214700Y0094514D01*
X0214700Y0096112D02*
X0209420Y0096112D01*
X0209536Y0096196D02*
X0210004Y0096664D01*
X0210392Y0097199D01*
X0210692Y0097788D01*
X0210897Y0098416D01*
X0211000Y0099069D01*
X0211000Y0101800D01*
X0211000Y0104531D01*
X0210897Y0105184D01*
X0210692Y0105812D01*
X0210392Y0106401D01*
X0210004Y0106936D01*
X0209536Y0107404D01*
X0209001Y0107792D01*
X0208412Y0108092D01*
X0207784Y0108297D01*
X0207131Y0108400D01*
X0206800Y0108400D01*
X0206800Y0101800D01*
X0211000Y0101800D01*
X0206800Y0101800D01*
X0206800Y0101800D01*
X0206800Y0101800D01*
X0206800Y0095200D01*
X0207131Y0095200D01*
X0207784Y0095303D01*
X0208412Y0095508D01*
X0209001Y0095808D01*
X0209536Y0096196D01*
X0210653Y0097711D02*
X0214700Y0097711D01*
X0214700Y0099309D02*
X0211000Y0099309D01*
X0211000Y0100908D02*
X0214700Y0100908D01*
X0214700Y0102506D02*
X0211000Y0102506D01*
X0211000Y0104105D02*
X0214700Y0104105D01*
X0214700Y0105703D02*
X0210728Y0105703D01*
X0209638Y0107302D02*
X0214700Y0107302D01*
X0214700Y0108900D02*
X0082476Y0108900D01*
X0082238Y0108662D02*
X0084938Y0111362D01*
X0086399Y0114891D01*
X0086399Y0118709D01*
X0084938Y0122238D01*
X0082238Y0124938D01*
X0078709Y0126399D01*
X0074891Y0126399D01*
X0071362Y0124938D01*
X0068662Y0122238D01*
X0067201Y0118709D01*
X0067201Y0114891D01*
X0068662Y0111362D01*
X0071362Y0108662D01*
X0074891Y0107201D01*
X0078709Y0107201D01*
X0082238Y0108662D01*
X0084074Y0110499D02*
X0214700Y0110499D01*
X0214700Y0112097D02*
X0085242Y0112097D01*
X0085904Y0113696D02*
X0214700Y0113696D01*
X0214700Y0115294D02*
X0086399Y0115294D01*
X0086399Y0116893D02*
X0214700Y0116893D01*
X0214700Y0118491D02*
X0086399Y0118491D01*
X0085827Y0120090D02*
X0214700Y0120090D01*
X0214700Y0121688D02*
X0085165Y0121688D01*
X0083888Y0123287D02*
X0215317Y0123287D01*
X0216916Y0124885D02*
X0082290Y0124885D01*
X0071310Y0124885D02*
X0004975Y0124885D01*
X0004975Y0123287D02*
X0069712Y0123287D01*
X0068435Y0121688D02*
X0004975Y0121688D01*
X0004975Y0120090D02*
X0067773Y0120090D01*
X0067201Y0118491D02*
X0004975Y0118491D01*
X0004975Y0116893D02*
X0067201Y0116893D01*
X0067201Y0115294D02*
X0004975Y0115294D01*
X0004975Y0113696D02*
X0067696Y0113696D01*
X0068358Y0112097D02*
X0004975Y0112097D01*
X0004975Y0110499D02*
X0043928Y0110499D01*
X0044468Y0111039D02*
X0043061Y0109632D01*
X0042300Y0107795D01*
X0042300Y0105805D01*
X0043061Y0103968D01*
X0044468Y0102561D01*
X0046305Y0101800D01*
X0048295Y0101800D01*
X0050132Y0102561D01*
X0051539Y0103968D01*
X0052300Y0105805D01*
X0052300Y0107795D01*
X0051539Y0109632D01*
X0050132Y0111039D01*
X0048295Y0111800D01*
X0046305Y0111800D01*
X0044468Y0111039D01*
X0042758Y0108900D02*
X0004975Y0108900D01*
X0004975Y0107302D02*
X0042300Y0107302D01*
X0042342Y0105703D02*
X0004975Y0105703D01*
X0004975Y0104105D02*
X0043004Y0104105D01*
X0044600Y0102506D02*
X0004975Y0102506D01*
X0004975Y0100908D02*
X0043337Y0100908D01*
X0041927Y0099309D02*
X0004975Y0099309D01*
X0004975Y0097711D02*
X0040024Y0097711D01*
X0038425Y0096112D02*
X0004975Y0096112D01*
X0004975Y0094514D02*
X0036827Y0094514D01*
X0035228Y0092915D02*
X0004975Y0092915D01*
X0004975Y0091317D02*
X0034900Y0091317D01*
X0034900Y0089718D02*
X0004975Y0089718D01*
X0004975Y0088120D02*
X0034900Y0088120D01*
X0034900Y0086521D02*
X0004975Y0086521D01*
X0004975Y0084923D02*
X0035490Y0084923D01*
X0037089Y0083324D02*
X0004975Y0083324D01*
X0004975Y0081726D02*
X0038687Y0081726D01*
X0040286Y0080127D02*
X0004975Y0080127D01*
X0004975Y0078529D02*
X0041604Y0078529D01*
X0041300Y0076930D02*
X0004975Y0076930D01*
X0004975Y0075332D02*
X0041496Y0075332D01*
X0041046Y0073733D02*
X0004975Y0073733D01*
X0004975Y0072134D02*
X0039448Y0072134D01*
X0037849Y0070536D02*
X0004975Y0070536D01*
X0004975Y0068937D02*
X0036250Y0068937D01*
X0034900Y0067339D02*
X0004975Y0067339D01*
X0004975Y0065740D02*
X0034900Y0065740D01*
X0034900Y0064142D02*
X0004975Y0064142D01*
X0004975Y0062543D02*
X0034900Y0062543D01*
X0034900Y0060945D02*
X0004975Y0060945D01*
X0004975Y0059346D02*
X0034900Y0059346D01*
X0034900Y0057748D02*
X0004975Y0057748D01*
X0004975Y0056149D02*
X0034900Y0056149D01*
X0034900Y0054551D02*
X0004975Y0054551D01*
X0004975Y0052952D02*
X0034900Y0052952D01*
X0034900Y0051354D02*
X0004975Y0051354D01*
X0004975Y0049755D02*
X0034900Y0049755D01*
X0034900Y0048157D02*
X0004975Y0048157D01*
X0004975Y0046558D02*
X0034900Y0046558D01*
X0035453Y0044960D02*
X0004975Y0044960D01*
X0004975Y0043361D02*
X0037052Y0043361D01*
X0038650Y0041763D02*
X0004975Y0041763D01*
X0004975Y0040164D02*
X0040249Y0040164D01*
X0041300Y0038566D02*
X0004975Y0038566D01*
X0004975Y0036967D02*
X0041300Y0036967D01*
X0041300Y0035369D02*
X0004975Y0035369D01*
X0004975Y0033770D02*
X0041083Y0033770D01*
X0039485Y0032172D02*
X0004975Y0032172D01*
X0004975Y0030573D02*
X0037886Y0030573D01*
X0036288Y0028975D02*
X0004975Y0028975D01*
X0004975Y0027376D02*
X0034900Y0027376D01*
X0034900Y0025778D02*
X0004975Y0025778D01*
X0004975Y0024179D02*
X0034900Y0024179D01*
X0034900Y0022581D02*
X0004975Y0022581D01*
X0004975Y0020982D02*
X0034931Y0020982D01*
X0036529Y0019384D02*
X0004975Y0019384D01*
X0004975Y0017785D02*
X0038128Y0017785D01*
X0039726Y0016187D02*
X0004975Y0016187D01*
X0004975Y0014588D02*
X0042014Y0014588D01*
X0042839Y0012990D02*
X0004975Y0012990D01*
X0038706Y0022581D02*
X0044340Y0022581D01*
X0044689Y0022403D02*
X0043917Y0022796D01*
X0043217Y0023305D01*
X0042605Y0023917D01*
X0042096Y0024617D01*
X0041703Y0025389D01*
X0041435Y0026212D01*
X0041300Y0027067D01*
X0041300Y0027300D01*
X0046600Y0027300D01*
X0046600Y0022000D01*
X0046367Y0022000D01*
X0045512Y0022135D01*
X0044689Y0022403D01*
X0045521Y0020982D02*
X0040305Y0020982D01*
X0041903Y0019384D02*
X0043013Y0019384D01*
X0046600Y0022581D02*
X0047000Y0022581D01*
X0047000Y0024179D02*
X0046600Y0024179D01*
X0046600Y0025778D02*
X0047000Y0025778D01*
X0047000Y0027376D02*
X0093100Y0027376D01*
X0093100Y0025778D02*
X0052023Y0025778D01*
X0051186Y0024179D02*
X0094188Y0024179D01*
X0096800Y0026800D02*
X0096800Y0066800D01*
X0101800Y0071800D01*
X0106800Y0071800D01*
X0103260Y0075332D02*
X0070340Y0075332D01*
X0071039Y0074632D02*
X0069632Y0076039D01*
X0068700Y0076425D01*
X0068700Y0077175D01*
X0069632Y0077561D01*
X0071039Y0078968D01*
X0071800Y0080805D01*
X0071800Y0082795D01*
X0071039Y0084632D01*
X0069632Y0086039D01*
X0068417Y0086542D01*
X0068911Y0086703D01*
X0069683Y0087096D01*
X0070383Y0087605D01*
X0070995Y0088217D01*
X0071504Y0088917D01*
X0071897Y0089689D01*
X0072165Y0090512D01*
X0072300Y0091367D01*
X0072300Y0091714D01*
X0066886Y0091714D01*
X0066886Y0091886D01*
X0066714Y0091886D01*
X0066714Y0091714D01*
X0061300Y0091714D01*
X0061300Y0091367D01*
X0061435Y0090512D01*
X0061703Y0089689D01*
X0062096Y0088917D01*
X0062605Y0088217D01*
X0063217Y0087605D01*
X0063917Y0087096D01*
X0064689Y0086703D01*
X0065183Y0086542D01*
X0063968Y0086039D01*
X0062561Y0084632D01*
X0061800Y0082795D01*
X0061800Y0080805D01*
X0062561Y0078968D01*
X0063968Y0077561D01*
X0064900Y0077175D01*
X0064900Y0076425D01*
X0063968Y0076039D01*
X0062561Y0074632D01*
X0061800Y0072795D01*
X0061800Y0070805D01*
X0062561Y0068968D01*
X0063968Y0067561D01*
X0065805Y0066800D01*
X0067795Y0066800D01*
X0069632Y0067561D01*
X0071039Y0068968D01*
X0071800Y0070805D01*
X0071800Y0072795D01*
X0071039Y0074632D01*
X0071411Y0073733D02*
X0100763Y0073733D01*
X0099165Y0072134D02*
X0071800Y0072134D01*
X0071688Y0070536D02*
X0097566Y0070536D01*
X0095968Y0068937D02*
X0071009Y0068937D01*
X0069096Y0067339D02*
X0094700Y0067339D01*
X0094700Y0065740D02*
X0069931Y0065740D01*
X0069632Y0066039D02*
X0067795Y0066800D01*
X0065805Y0066800D01*
X0063968Y0066039D01*
X0062561Y0064632D01*
X0061800Y0062795D01*
X0061800Y0060805D01*
X0062103Y0060073D01*
X0051575Y0049545D01*
X0051539Y0049632D01*
X0050132Y0051039D01*
X0048295Y0051800D01*
X0046305Y0051800D01*
X0044468Y0051039D01*
X0043061Y0049632D01*
X0042300Y0047795D01*
X0042300Y0045805D01*
X0043061Y0043968D01*
X0044468Y0042561D01*
X0046305Y0041800D01*
X0048295Y0041800D01*
X0050132Y0042561D01*
X0051539Y0043968D01*
X0051842Y0044700D01*
X0052670Y0044700D01*
X0062532Y0054562D01*
X0061800Y0052795D01*
X0061800Y0050805D01*
X0062561Y0048968D01*
X0063968Y0047561D01*
X0065805Y0046800D01*
X0067795Y0046800D01*
X0069632Y0047561D01*
X0071039Y0048968D01*
X0071800Y0050805D01*
X0071800Y0052795D01*
X0071039Y0054632D01*
X0069632Y0056039D01*
X0067795Y0056800D01*
X0069632Y0057561D01*
X0071039Y0058968D01*
X0071800Y0060805D01*
X0071800Y0062795D01*
X0071039Y0064632D01*
X0069632Y0066039D01*
X0071242Y0064142D02*
X0094700Y0064142D01*
X0094700Y0062543D02*
X0071800Y0062543D01*
X0071800Y0060945D02*
X0094700Y0060945D01*
X0094700Y0059346D02*
X0071196Y0059346D01*
X0069819Y0057748D02*
X0094700Y0057748D01*
X0094700Y0056149D02*
X0069365Y0056149D01*
X0067795Y0056800D02*
X0065805Y0056800D01*
X0065073Y0057103D01*
X0064038Y0056068D01*
X0065805Y0056800D01*
X0067795Y0056800D01*
X0064235Y0056149D02*
X0064119Y0056149D01*
X0062527Y0054551D02*
X0062521Y0054551D01*
X0061865Y0052952D02*
X0060922Y0052952D01*
X0061800Y0051354D02*
X0059324Y0051354D01*
X0057725Y0049755D02*
X0062235Y0049755D01*
X0063372Y0048157D02*
X0056127Y0048157D01*
X0054528Y0046558D02*
X0094700Y0046558D01*
X0094700Y0044960D02*
X0052930Y0044960D01*
X0051800Y0046800D02*
X0066800Y0061800D01*
X0062358Y0064142D02*
X0051611Y0064142D01*
X0051539Y0063968D02*
X0052300Y0065805D01*
X0052300Y0067795D01*
X0051539Y0069632D01*
X0050132Y0071039D01*
X0048295Y0071800D01*
X0046305Y0071800D01*
X0044468Y0071039D01*
X0043061Y0069632D01*
X0042300Y0067795D01*
X0042300Y0065805D01*
X0043061Y0063968D01*
X0044468Y0062561D01*
X0046305Y0061800D01*
X0048295Y0061800D01*
X0050132Y0062561D01*
X0051539Y0063968D01*
X0052273Y0065740D02*
X0063669Y0065740D01*
X0064504Y0067339D02*
X0052300Y0067339D01*
X0051827Y0068937D02*
X0062591Y0068937D01*
X0061912Y0070536D02*
X0050635Y0070536D01*
X0048102Y0072134D02*
X0061800Y0072134D01*
X0062189Y0073733D02*
X0050304Y0073733D01*
X0051104Y0075332D02*
X0063260Y0075332D01*
X0064900Y0076930D02*
X0051300Y0076930D01*
X0050996Y0078529D02*
X0063000Y0078529D01*
X0062081Y0080127D02*
X0050044Y0080127D01*
X0048295Y0081800D02*
X0050132Y0082561D01*
X0051539Y0083968D01*
X0052300Y0085805D01*
X0052300Y0087795D01*
X0051539Y0089632D01*
X0050132Y0091039D01*
X0048295Y0091800D01*
X0046305Y0091800D01*
X0044468Y0091039D01*
X0043061Y0089632D01*
X0042300Y0087795D01*
X0042300Y0085805D01*
X0043061Y0083968D01*
X0044468Y0082561D01*
X0046305Y0081800D01*
X0048295Y0081800D01*
X0047474Y0081726D02*
X0061800Y0081726D01*
X0062019Y0083324D02*
X0050895Y0083324D01*
X0051934Y0084923D02*
X0062852Y0084923D01*
X0065132Y0086521D02*
X0052300Y0086521D01*
X0052165Y0088120D02*
X0062702Y0088120D01*
X0061693Y0089718D02*
X0051453Y0089718D01*
X0049461Y0091317D02*
X0061308Y0091317D01*
X0061408Y0092915D02*
X0049486Y0092915D01*
X0050765Y0094514D02*
X0062010Y0094514D01*
X0065398Y0097711D02*
X0133495Y0097711D01*
X0133100Y0099309D02*
X0066996Y0099309D01*
X0066886Y0097300D02*
X0066886Y0091886D01*
X0072300Y0091886D01*
X0072300Y0092233D01*
X0072165Y0093088D01*
X0071897Y0093911D01*
X0071504Y0094683D01*
X0070995Y0095383D01*
X0070383Y0095995D01*
X0069683Y0096504D01*
X0068911Y0096897D01*
X0068088Y0097165D01*
X0067233Y0097300D01*
X0066886Y0097300D01*
X0066886Y0096112D02*
X0066714Y0096112D01*
X0066714Y0094514D02*
X0066886Y0094514D01*
X0066886Y0092915D02*
X0066714Y0092915D01*
X0070222Y0096112D02*
X0104145Y0096112D01*
X0102512Y0094514D02*
X0071590Y0094514D01*
X0072192Y0092915D02*
X0101850Y0092915D01*
X0101800Y0091317D02*
X0072292Y0091317D01*
X0071907Y0089718D02*
X0102250Y0089718D01*
X0103409Y0088120D02*
X0070898Y0088120D01*
X0068468Y0086521D02*
X0105132Y0086521D01*
X0102852Y0084923D02*
X0070748Y0084923D01*
X0071581Y0083324D02*
X0102019Y0083324D01*
X0101800Y0081726D02*
X0071800Y0081726D01*
X0071519Y0080127D02*
X0102081Y0080127D01*
X0103000Y0078529D02*
X0070600Y0078529D01*
X0068700Y0076930D02*
X0105491Y0076930D01*
X0102591Y0068937D02*
X0101907Y0068937D01*
X0100309Y0067339D02*
X0104504Y0067339D01*
X0102962Y0065740D02*
X0098900Y0065740D01*
X0098900Y0064142D02*
X0101820Y0064142D01*
X0101349Y0062543D02*
X0098900Y0062543D01*
X0098900Y0060945D02*
X0101367Y0060945D01*
X0101877Y0059346D02*
X0098900Y0059346D01*
X0098900Y0057748D02*
X0103074Y0057748D01*
X0104235Y0056149D02*
X0098900Y0056149D01*
X0098900Y0054551D02*
X0102527Y0054551D01*
X0101865Y0052952D02*
X0098900Y0052952D01*
X0098900Y0051354D02*
X0101800Y0051354D01*
X0102235Y0049755D02*
X0098900Y0049755D01*
X0098900Y0048157D02*
X0103372Y0048157D01*
X0104900Y0046558D02*
X0098900Y0046558D01*
X0098900Y0044960D02*
X0104900Y0044960D01*
X0104900Y0043361D02*
X0098900Y0043361D01*
X0098900Y0041763D02*
X0104900Y0041763D01*
X0105749Y0040164D02*
X0098900Y0040164D01*
X0098900Y0038566D02*
X0107347Y0038566D01*
X0108946Y0036967D02*
X0098900Y0036967D01*
X0098900Y0035369D02*
X0110544Y0035369D01*
X0108966Y0030573D02*
X0120340Y0030573D01*
X0118741Y0032172D02*
X0098900Y0032172D01*
X0098900Y0033770D02*
X0117143Y0033770D01*
X0106800Y0031000D02*
X0106800Y0026800D01*
X0106800Y0026800D01*
X0106800Y0026800D01*
X0102600Y0026800D01*
X0102600Y0028540D01*
X0105060Y0031000D01*
X0106800Y0031000D01*
X0106800Y0030573D02*
X0106800Y0030573D01*
X0106800Y0028975D02*
X0106800Y0028975D01*
X0106800Y0027376D02*
X0106800Y0027376D01*
X0106800Y0026800D02*
X0102600Y0026800D01*
X0102600Y0025060D01*
X0105060Y0022600D01*
X0106800Y0022600D01*
X0106800Y0026800D01*
X0106800Y0025778D02*
X0106800Y0025778D01*
X0106800Y0024179D02*
X0106800Y0024179D01*
X0103481Y0024179D02*
X0099412Y0024179D01*
X0100500Y0025778D02*
X0102600Y0025778D01*
X0102600Y0027376D02*
X0100500Y0027376D01*
X0099858Y0028975D02*
X0103035Y0028975D01*
X0104634Y0030573D02*
X0098900Y0030573D01*
X0094700Y0030573D02*
X0051366Y0030573D01*
X0050910Y0032172D02*
X0094700Y0032172D01*
X0094700Y0033770D02*
X0051300Y0033770D01*
X0051300Y0035369D02*
X0094700Y0035369D01*
X0094700Y0036967D02*
X0051300Y0036967D01*
X0051300Y0038566D02*
X0094700Y0038566D01*
X0094700Y0040164D02*
X0051300Y0040164D01*
X0050576Y0041763D02*
X0094700Y0041763D01*
X0094700Y0043361D02*
X0050932Y0043361D01*
X0051800Y0046800D02*
X0047300Y0046800D01*
X0042650Y0044960D02*
X0040827Y0044960D01*
X0042300Y0046558D02*
X0039229Y0046558D01*
X0038700Y0048157D02*
X0042450Y0048157D01*
X0043184Y0049755D02*
X0038700Y0049755D01*
X0038700Y0051354D02*
X0045228Y0051354D01*
X0045305Y0051800D02*
X0043468Y0052561D01*
X0042061Y0053968D01*
X0041300Y0055805D01*
X0041300Y0057795D01*
X0042061Y0059632D01*
X0043468Y0061039D01*
X0045305Y0061800D01*
X0047295Y0061800D01*
X0049132Y0061039D01*
X0050539Y0059632D01*
X0051300Y0057795D01*
X0051300Y0055805D01*
X0050539Y0053968D01*
X0049132Y0052561D01*
X0047295Y0051800D01*
X0045305Y0051800D01*
X0043077Y0052952D02*
X0038700Y0052952D01*
X0038700Y0054551D02*
X0041820Y0054551D01*
X0041300Y0056149D02*
X0038700Y0056149D01*
X0038700Y0057748D02*
X0041300Y0057748D01*
X0041943Y0059346D02*
X0038700Y0059346D01*
X0038700Y0060945D02*
X0043374Y0060945D01*
X0044511Y0062543D02*
X0038700Y0062543D01*
X0038700Y0064142D02*
X0042989Y0064142D01*
X0042327Y0065740D02*
X0038700Y0065740D01*
X0040026Y0067339D02*
X0042300Y0067339D01*
X0042773Y0068937D02*
X0041624Y0068937D01*
X0043223Y0070536D02*
X0043965Y0070536D01*
X0050089Y0062543D02*
X0061800Y0062543D01*
X0061800Y0060945D02*
X0049226Y0060945D01*
X0050657Y0059346D02*
X0061377Y0059346D01*
X0059778Y0057748D02*
X0051300Y0057748D01*
X0051300Y0056149D02*
X0058180Y0056149D01*
X0056581Y0054551D02*
X0050780Y0054551D01*
X0049523Y0052952D02*
X0054983Y0052952D01*
X0053384Y0051354D02*
X0049372Y0051354D01*
X0051416Y0049755D02*
X0051785Y0049755D01*
X0043668Y0043361D02*
X0042426Y0043361D01*
X0040063Y0027376D02*
X0046600Y0027376D01*
X0042414Y0024179D02*
X0038700Y0024179D01*
X0038700Y0025778D02*
X0041577Y0025778D01*
X0050587Y0019384D02*
X0201719Y0019384D01*
X0201185Y0017785D02*
X0051514Y0017785D01*
X0051800Y0016187D02*
X0201126Y0016187D01*
X0201530Y0014588D02*
X0051586Y0014588D01*
X0050761Y0012990D02*
X0202549Y0012990D01*
X0202921Y0020982D02*
X0188217Y0020982D01*
X0185383Y0020982D02*
X0178217Y0020982D01*
X0180051Y0022581D02*
X0183549Y0022581D01*
X0183100Y0024179D02*
X0180500Y0024179D01*
X0180500Y0025778D02*
X0183100Y0025778D01*
X0183100Y0027376D02*
X0180500Y0027376D01*
X0180500Y0028975D02*
X0183100Y0028975D01*
X0183364Y0030573D02*
X0180236Y0030573D01*
X0179061Y0032172D02*
X0184539Y0032172D01*
X0189061Y0032172D02*
X0189485Y0032172D01*
X0184614Y0051354D02*
X0178986Y0051354D01*
X0180205Y0052952D02*
X0183395Y0052952D01*
X0183100Y0054551D02*
X0180500Y0054551D01*
X0180500Y0056149D02*
X0183100Y0056149D01*
X0183100Y0057748D02*
X0180718Y0057748D01*
X0182316Y0059346D02*
X0183100Y0059346D01*
X0179574Y0062543D02*
X0178397Y0062543D01*
X0177112Y0064142D02*
X0181172Y0064142D01*
X0182771Y0065740D02*
X0178710Y0065740D01*
X0180309Y0067339D02*
X0184369Y0067339D01*
X0185968Y0068937D02*
X0181907Y0068937D01*
X0183506Y0070536D02*
X0187566Y0070536D01*
X0189165Y0072134D02*
X0185104Y0072134D01*
X0186703Y0073733D02*
X0190763Y0073733D01*
X0191800Y0081800D02*
X0196800Y0081800D01*
X0200500Y0081726D02*
X0214700Y0081726D01*
X0214700Y0083324D02*
X0200500Y0083324D01*
X0200500Y0084923D02*
X0214700Y0084923D01*
X0214700Y0086521D02*
X0199711Y0086521D01*
X0200500Y0080127D02*
X0214700Y0080127D01*
X0214700Y0078529D02*
X0200444Y0078529D01*
X0199563Y0076930D02*
X0213960Y0076930D01*
X0223700Y0076930D02*
X0226800Y0076930D01*
X0226996Y0075332D02*
X0223700Y0075332D01*
X0223700Y0073733D02*
X0227796Y0073733D01*
X0229998Y0072134D02*
X0223700Y0072134D01*
X0223223Y0070536D02*
X0269900Y0070536D01*
X0269900Y0072134D02*
X0233602Y0072134D01*
X0235804Y0073733D02*
X0267796Y0073733D01*
X0266996Y0075332D02*
X0236604Y0075332D01*
X0236800Y0076930D02*
X0266800Y0076930D01*
X0267104Y0078529D02*
X0236496Y0078529D01*
X0235544Y0080127D02*
X0268056Y0080127D01*
X0268968Y0082561D02*
X0267561Y0083968D01*
X0266800Y0085805D01*
X0266800Y0087795D01*
X0267561Y0089632D01*
X0268968Y0091039D01*
X0270805Y0091800D01*
X0272795Y0091800D01*
X0274632Y0091039D01*
X0276039Y0089632D01*
X0276800Y0087795D01*
X0276800Y0085805D01*
X0276039Y0083968D01*
X0274632Y0082561D01*
X0272795Y0081800D01*
X0270805Y0081800D01*
X0268968Y0082561D01*
X0268205Y0083324D02*
X0236073Y0083324D01*
X0236973Y0084923D02*
X0267166Y0084923D01*
X0266800Y0086521D02*
X0237300Y0086521D01*
X0237154Y0088120D02*
X0266935Y0088120D01*
X0267647Y0089718D02*
X0236478Y0089718D01*
X0234941Y0091317D02*
X0269639Y0091317D01*
X0270805Y0091800D02*
X0272795Y0091800D01*
X0274632Y0092561D01*
X0276039Y0093968D01*
X0276800Y0095805D01*
X0276800Y0097795D01*
X0276039Y0099632D01*
X0274632Y0101039D01*
X0272795Y0101800D01*
X0270805Y0101800D01*
X0268968Y0101039D01*
X0267561Y0099632D01*
X0266800Y0097795D01*
X0266800Y0095805D01*
X0267561Y0093968D01*
X0268968Y0092561D01*
X0270805Y0091800D01*
X0268614Y0092915D02*
X0234986Y0092915D01*
X0236265Y0094514D02*
X0267335Y0094514D01*
X0266800Y0096112D02*
X0236800Y0096112D01*
X0236800Y0097711D02*
X0266800Y0097711D01*
X0267427Y0099309D02*
X0236173Y0099309D01*
X0234763Y0100908D02*
X0268837Y0100908D01*
X0269100Y0102506D02*
X0234499Y0102506D01*
X0236096Y0104105D02*
X0267504Y0104105D01*
X0266842Y0105703D02*
X0236758Y0105703D01*
X0236800Y0107302D02*
X0266800Y0107302D01*
X0267258Y0108900D02*
X0236342Y0108900D01*
X0235172Y0110499D02*
X0268428Y0110499D01*
X0270088Y0112097D02*
X0234684Y0112097D01*
X0236343Y0113696D02*
X0267833Y0113696D01*
X0267012Y0115294D02*
X0237094Y0115294D01*
X0237300Y0116893D02*
X0266800Y0116893D01*
X0267089Y0118491D02*
X0237033Y0118491D01*
X0236208Y0120090D02*
X0265540Y0120090D01*
X0263942Y0121688D02*
X0234321Y0121688D01*
X0231886Y0121688D02*
X0231714Y0121688D01*
X0231714Y0120090D02*
X0231886Y0120090D01*
X0231886Y0118491D02*
X0231714Y0118491D01*
X0231714Y0116893D02*
X0231886Y0116893D01*
X0220113Y0128082D02*
X0004975Y0128082D01*
X0004975Y0126484D02*
X0218514Y0126484D01*
X0206800Y0108400D02*
X0206469Y0108400D01*
X0205816Y0108297D01*
X0205188Y0108092D01*
X0204599Y0107792D01*
X0204064Y0107404D01*
X0203596Y0106936D01*
X0203208Y0106401D01*
X0202908Y0105812D01*
X0202703Y0105184D01*
X0202600Y0104531D01*
X0202600Y0101800D01*
X0206800Y0101800D01*
X0206800Y0101800D01*
X0206800Y0101800D01*
X0206800Y0108400D01*
X0206800Y0107302D02*
X0206800Y0107302D01*
X0206800Y0105703D02*
X0206800Y0105703D01*
X0206800Y0104105D02*
X0206800Y0104105D01*
X0206800Y0102506D02*
X0206800Y0102506D01*
X0206800Y0101800D02*
X0202600Y0101800D01*
X0202600Y0099069D01*
X0202703Y0098416D01*
X0202908Y0097788D01*
X0203208Y0097199D01*
X0203596Y0096664D01*
X0204064Y0096196D01*
X0204599Y0095808D01*
X0205188Y0095508D01*
X0205816Y0095303D01*
X0206469Y0095200D01*
X0206800Y0095200D01*
X0206800Y0101800D01*
X0206800Y0100908D02*
X0206800Y0100908D01*
X0206800Y0099309D02*
X0206800Y0099309D01*
X0206800Y0097711D02*
X0206800Y0097711D01*
X0206800Y0096112D02*
X0206800Y0096112D01*
X0204180Y0096112D02*
X0188531Y0096112D01*
X0188896Y0096263D02*
X0189937Y0097304D01*
X0190500Y0098664D01*
X0190500Y0104936D01*
X0189937Y0106296D01*
X0188896Y0107337D01*
X0187536Y0107900D01*
X0186064Y0107900D01*
X0184704Y0107337D01*
X0183663Y0106296D01*
X0183100Y0104936D01*
X0183100Y0098664D01*
X0183663Y0097304D01*
X0184704Y0096263D01*
X0186064Y0095700D01*
X0187536Y0095700D01*
X0188896Y0096263D01*
X0190105Y0097711D02*
X0202947Y0097711D01*
X0202600Y0099309D02*
X0190500Y0099309D01*
X0190500Y0100908D02*
X0202600Y0100908D01*
X0202600Y0102506D02*
X0190500Y0102506D01*
X0190500Y0104105D02*
X0202600Y0104105D01*
X0202872Y0105703D02*
X0190182Y0105703D01*
X0188931Y0107302D02*
X0203962Y0107302D01*
X0184669Y0107302D02*
X0159638Y0107302D01*
X0160728Y0105703D02*
X0183418Y0105703D01*
X0183100Y0104105D02*
X0173839Y0104105D01*
X0174832Y0102506D02*
X0183100Y0102506D01*
X0183100Y0100908D02*
X0174755Y0100908D01*
X0173900Y0099309D02*
X0183100Y0099309D01*
X0183495Y0097711D02*
X0173900Y0097711D01*
X0173900Y0096112D02*
X0185069Y0096112D01*
X0156800Y0096112D02*
X0156800Y0096112D01*
X0156800Y0095200D02*
X0156800Y0101800D01*
X0156800Y0101800D01*
X0156800Y0101800D01*
X0152600Y0101800D01*
X0152600Y0104531D01*
X0152703Y0105184D01*
X0152908Y0105812D01*
X0153208Y0106401D01*
X0153596Y0106936D01*
X0154064Y0107404D01*
X0154599Y0107792D01*
X0155188Y0108092D01*
X0155816Y0108297D01*
X0156469Y0108400D01*
X0156800Y0108400D01*
X0156800Y0101800D01*
X0152600Y0101800D01*
X0152600Y0099069D01*
X0152703Y0098416D01*
X0152908Y0097788D01*
X0153208Y0097199D01*
X0153596Y0096664D01*
X0154064Y0096196D01*
X0154599Y0095808D01*
X0155188Y0095508D01*
X0155816Y0095303D01*
X0156469Y0095200D01*
X0156800Y0095200D01*
X0156800Y0097711D02*
X0156800Y0097711D01*
X0156800Y0099309D02*
X0156800Y0099309D01*
X0156800Y0100908D02*
X0156800Y0100908D01*
X0156800Y0102506D02*
X0156800Y0102506D01*
X0156800Y0104105D02*
X0156800Y0104105D01*
X0156800Y0105703D02*
X0156800Y0105703D01*
X0156800Y0107302D02*
X0156800Y0107302D01*
X0153962Y0107302D02*
X0138931Y0107302D01*
X0140182Y0105703D02*
X0152872Y0105703D01*
X0152600Y0104105D02*
X0140500Y0104105D01*
X0143781Y0102506D02*
X0152600Y0102506D01*
X0152600Y0100908D02*
X0145379Y0100908D01*
X0146978Y0099309D02*
X0152600Y0099309D01*
X0152947Y0097711D02*
X0148576Y0097711D01*
X0150175Y0096112D02*
X0154180Y0096112D01*
X0149596Y0091317D02*
X0135253Y0091317D01*
X0133655Y0092915D02*
X0147998Y0092915D01*
X0146399Y0094514D02*
X0111088Y0094514D01*
X0109455Y0096112D02*
X0135069Y0096112D01*
X0138531Y0096112D02*
X0144801Y0096112D01*
X0143202Y0097711D02*
X0140105Y0097711D01*
X0140500Y0099309D02*
X0141604Y0099309D01*
X0134669Y0107302D02*
X0078953Y0107302D01*
X0074647Y0107302D02*
X0052300Y0107302D01*
X0052258Y0105703D02*
X0133418Y0105703D01*
X0133100Y0104105D02*
X0051596Y0104105D01*
X0049999Y0102506D02*
X0064819Y0102506D01*
X0063221Y0100908D02*
X0049263Y0100908D01*
X0050673Y0099309D02*
X0061622Y0099309D01*
X0069526Y0110499D02*
X0050672Y0110499D01*
X0051842Y0108900D02*
X0071124Y0108900D01*
X0045139Y0091317D02*
X0039004Y0091317D01*
X0038700Y0089718D02*
X0043147Y0089718D01*
X0042435Y0088120D02*
X0038700Y0088120D01*
X0039266Y0086521D02*
X0042300Y0086521D01*
X0042666Y0084923D02*
X0040864Y0084923D01*
X0042463Y0083324D02*
X0043705Y0083324D01*
X0044061Y0081726D02*
X0045126Y0081726D01*
X0043114Y0092915D02*
X0040602Y0092915D01*
X0071073Y0054551D02*
X0094700Y0054551D01*
X0094700Y0052952D02*
X0071735Y0052952D01*
X0071800Y0051354D02*
X0094700Y0051354D01*
X0094700Y0049755D02*
X0071365Y0049755D01*
X0070228Y0048157D02*
X0094700Y0048157D01*
X0093742Y0028975D02*
X0052104Y0028975D01*
X0095930Y0068900D02*
X0095930Y0068900D01*
X0136852Y0089718D02*
X0149900Y0089718D01*
X0149900Y0088120D02*
X0138450Y0088120D01*
X0149711Y0086521D02*
X0149900Y0086521D01*
X0174324Y0051354D02*
X0174614Y0051354D01*
X0166800Y0046800D02*
X0166800Y0026800D01*
X0163100Y0027376D02*
X0161000Y0027376D01*
X0161000Y0025778D02*
X0163100Y0025778D01*
X0163100Y0024179D02*
X0161000Y0024179D01*
X0160587Y0022581D02*
X0163549Y0022581D01*
X0163100Y0028975D02*
X0161000Y0028975D01*
X0160770Y0030573D02*
X0163364Y0030573D01*
X0198700Y0051354D02*
X0235380Y0051354D01*
X0233782Y0052952D02*
X0210306Y0052952D01*
X0209746Y0052392D02*
X0211208Y0053854D01*
X0212000Y0055766D01*
X0212000Y0057834D01*
X0211208Y0059746D01*
X0209746Y0061208D01*
X0207834Y0062000D01*
X0205766Y0062000D01*
X0203854Y0061208D01*
X0202392Y0059746D01*
X0201600Y0057834D01*
X0201600Y0055766D01*
X0202392Y0053854D01*
X0203854Y0052392D01*
X0205766Y0051600D01*
X0207834Y0051600D01*
X0209746Y0052392D01*
X0211497Y0054551D02*
X0232183Y0054551D01*
X0231642Y0056149D02*
X0212000Y0056149D01*
X0212000Y0057748D02*
X0231642Y0057748D01*
X0231642Y0059346D02*
X0211374Y0059346D01*
X0210009Y0060945D02*
X0231642Y0060945D01*
X0231642Y0062543D02*
X0200230Y0062543D01*
X0198700Y0060945D02*
X0203591Y0060945D01*
X0202226Y0059346D02*
X0198700Y0059346D01*
X0198700Y0057748D02*
X0201600Y0057748D01*
X0201600Y0056149D02*
X0198700Y0056149D01*
X0198700Y0054551D02*
X0202103Y0054551D01*
X0203294Y0052952D02*
X0198700Y0052952D01*
X0201829Y0064142D02*
X0232276Y0064142D01*
X0227104Y0078529D02*
X0223700Y0078529D01*
X0223700Y0080127D02*
X0228056Y0080127D01*
X0229644Y0081726D02*
X0223700Y0081726D01*
X0223700Y0083324D02*
X0227527Y0083324D01*
X0226627Y0084923D02*
X0223700Y0084923D01*
X0223700Y0086521D02*
X0226300Y0086521D01*
X0226446Y0088120D02*
X0223700Y0088120D01*
X0223700Y0089718D02*
X0227122Y0089718D01*
X0228659Y0091317D02*
X0224004Y0091317D01*
X0225602Y0092915D02*
X0228614Y0092915D01*
X0227335Y0094514D02*
X0227201Y0094514D01*
X0233956Y0081726D02*
X0270626Y0081726D01*
X0272974Y0081726D02*
X0290626Y0081726D01*
X0289968Y0082561D02*
X0291805Y0081800D01*
X0293795Y0081800D01*
X0295632Y0082561D01*
X0297039Y0083968D01*
X0297800Y0085805D01*
X0297800Y0087795D01*
X0297039Y0089632D01*
X0295632Y0091039D01*
X0293795Y0091800D01*
X0291805Y0091800D01*
X0289968Y0091039D01*
X0288561Y0089632D01*
X0287800Y0087795D01*
X0287800Y0085805D01*
X0288561Y0083968D01*
X0289968Y0082561D01*
X0289205Y0083324D02*
X0275395Y0083324D01*
X0276434Y0084923D02*
X0288166Y0084923D01*
X0287800Y0086521D02*
X0276800Y0086521D01*
X0276665Y0088120D02*
X0287935Y0088120D01*
X0288647Y0089718D02*
X0275953Y0089718D01*
X0273961Y0091317D02*
X0290639Y0091317D01*
X0290805Y0091800D02*
X0292795Y0091800D01*
X0294632Y0092561D01*
X0296039Y0093968D01*
X0296800Y0095805D01*
X0296800Y0097795D01*
X0296039Y0099632D01*
X0294632Y0101039D01*
X0292795Y0101800D01*
X0290805Y0101800D01*
X0288968Y0101039D01*
X0287561Y0099632D01*
X0286800Y0097795D01*
X0286800Y0095805D01*
X0287561Y0093968D01*
X0288968Y0092561D01*
X0290805Y0091800D01*
X0288614Y0092915D02*
X0274986Y0092915D01*
X0276265Y0094514D02*
X0287335Y0094514D01*
X0286800Y0096112D02*
X0276800Y0096112D01*
X0276800Y0097711D02*
X0286800Y0097711D01*
X0287427Y0099309D02*
X0276173Y0099309D01*
X0274763Y0100908D02*
X0288837Y0100908D01*
X0289968Y0102561D02*
X0291805Y0101800D01*
X0293795Y0101800D01*
X0295632Y0102561D01*
X0297039Y0103968D01*
X0297800Y0105805D01*
X0297800Y0107795D01*
X0297039Y0109632D01*
X0295632Y0111039D01*
X0293795Y0111800D01*
X0291805Y0111800D01*
X0289968Y0111039D01*
X0288561Y0109632D01*
X0287800Y0107795D01*
X0287800Y0105805D01*
X0288561Y0103968D01*
X0289968Y0102561D01*
X0290100Y0102506D02*
X0274499Y0102506D01*
X0276096Y0104105D02*
X0288504Y0104105D01*
X0287842Y0105703D02*
X0276758Y0105703D01*
X0276800Y0107302D02*
X0287800Y0107302D01*
X0288258Y0108900D02*
X0276342Y0108900D01*
X0275172Y0110499D02*
X0289428Y0110499D01*
X0296172Y0110499D02*
X0333625Y0110499D01*
X0333625Y0112097D02*
X0273512Y0112097D01*
X0275767Y0113696D02*
X0333625Y0113696D01*
X0333625Y0115294D02*
X0276588Y0115294D01*
X0297342Y0108900D02*
X0333625Y0108900D01*
X0333625Y0107302D02*
X0297800Y0107302D01*
X0297758Y0105703D02*
X0333625Y0105703D01*
X0333625Y0104105D02*
X0297096Y0104105D01*
X0295499Y0102506D02*
X0333625Y0102506D01*
X0333625Y0100908D02*
X0294763Y0100908D01*
X0296173Y0099309D02*
X0333625Y0099309D01*
X0333625Y0097711D02*
X0296800Y0097711D01*
X0296800Y0096112D02*
X0333625Y0096112D01*
X0333625Y0094514D02*
X0296265Y0094514D01*
X0294986Y0092915D02*
X0333625Y0092915D01*
X0333625Y0091317D02*
X0294961Y0091317D01*
X0296953Y0089718D02*
X0333625Y0089718D01*
X0333625Y0088120D02*
X0297665Y0088120D01*
X0297800Y0086521D02*
X0333625Y0086521D01*
X0333625Y0084923D02*
X0297434Y0084923D01*
X0296395Y0083324D02*
X0333625Y0083324D01*
X0333625Y0081726D02*
X0292974Y0081726D01*
X0295544Y0080127D02*
X0333625Y0080127D01*
X0333625Y0078529D02*
X0296496Y0078529D01*
X0296800Y0076930D02*
X0333625Y0076930D01*
X0333625Y0075332D02*
X0296604Y0075332D01*
X0295804Y0073733D02*
X0333625Y0073733D01*
X0333625Y0040164D02*
X0294807Y0040164D01*
X0296191Y0038566D02*
X0333625Y0038566D01*
X0333625Y0036967D02*
X0296800Y0036967D01*
X0296800Y0035369D02*
X0333625Y0035369D01*
X0333625Y0033770D02*
X0296247Y0033770D01*
X0292000Y0043361D02*
X0291600Y0043361D01*
X0291600Y0044960D02*
X0292000Y0044960D01*
X0292000Y0046558D02*
X0291600Y0046558D01*
X0269900Y0052952D02*
X0269182Y0052952D01*
X0269900Y0054551D02*
X0267722Y0054551D01*
X0269900Y0056149D02*
X0265460Y0056149D01*
X0275804Y0073733D02*
X0287796Y0073733D01*
X0286996Y0075332D02*
X0276604Y0075332D01*
X0276800Y0076930D02*
X0286800Y0076930D01*
X0287104Y0078529D02*
X0276496Y0078529D01*
X0275544Y0080127D02*
X0288056Y0080127D01*
D11*
X0291800Y0076800D03*
X0292800Y0066800D03*
X0291800Y0056800D03*
X0291800Y0047500D03*
X0291800Y0036100D03*
X0271800Y0076800D03*
X0271800Y0086800D03*
X0271800Y0096800D03*
X0271800Y0106800D03*
X0271800Y0116800D03*
X0292800Y0106800D03*
X0291800Y0096800D03*
X0292800Y0086800D03*
X0231800Y0086800D03*
X0231800Y0096800D03*
X0231800Y0106800D03*
X0231800Y0116800D03*
X0231800Y0076800D03*
X0106800Y0071800D03*
X0106800Y0061800D03*
X0106800Y0051800D03*
X0106800Y0081800D03*
X0106800Y0091800D03*
X0066800Y0091800D03*
X0066800Y0081800D03*
X0066800Y0071800D03*
X0066800Y0061800D03*
X0066800Y0051800D03*
X0047300Y0046800D03*
X0046300Y0056800D03*
X0047300Y0066800D03*
X0046300Y0076800D03*
X0047300Y0086800D03*
X0046300Y0096800D03*
X0047300Y0106800D03*
X0046800Y0027500D03*
X0046800Y0016100D03*
D12*
X0046300Y0036800D03*
D13*
X0126800Y0029200D02*
X0126800Y0024400D01*
X0136800Y0024400D02*
X0136800Y0029200D01*
X0146800Y0029200D02*
X0146800Y0024400D01*
X0156800Y0024400D02*
X0156800Y0029200D01*
X0166800Y0029200D02*
X0166800Y0024400D01*
X0176800Y0024400D02*
X0176800Y0029200D01*
X0186800Y0029200D02*
X0186800Y0024400D01*
X0186800Y0054400D02*
X0186800Y0059200D01*
X0176800Y0059200D02*
X0176800Y0054400D01*
X0166800Y0054400D02*
X0166800Y0059200D01*
X0156800Y0059200D02*
X0156800Y0054400D01*
X0146800Y0054400D02*
X0146800Y0059200D01*
X0136800Y0059200D02*
X0136800Y0054400D01*
X0126800Y0054400D02*
X0126800Y0059200D01*
X0146800Y0079400D02*
X0146800Y0084200D01*
X0136800Y0099400D02*
X0136800Y0104200D01*
X0156800Y0104200D02*
X0156800Y0099400D01*
X0186800Y0099400D02*
X0186800Y0104200D01*
X0206800Y0104200D02*
X0206800Y0099400D01*
X0196800Y0084200D02*
X0196800Y0079400D01*
D14*
X0206800Y0056800D03*
X0206800Y0016800D03*
D15*
X0271800Y0016800D03*
X0281800Y0016800D03*
X0106800Y0026800D03*
X0096800Y0026800D03*
D16*
X0241800Y0059300D03*
D17*
X0260550Y0046800D03*
X0241800Y0034300D03*
D18*
X0271800Y0016800D02*
X0271800Y0076800D01*
X0231800Y0096800D02*
X0226800Y0096800D01*
X0221800Y0091800D01*
X0221800Y0071800D01*
X0216800Y0066800D01*
X0201800Y0066800D01*
X0196800Y0061800D01*
X0196800Y0041800D01*
X0191800Y0036800D01*
X0191800Y0031800D01*
X0186800Y0026800D01*
X0206800Y0016800D02*
X0166800Y0016800D01*
X0156800Y0026800D01*
X0156800Y0056800D02*
X0151800Y0061800D01*
X0151800Y0091800D01*
X0141800Y0101800D01*
X0136800Y0101800D01*
X0066800Y0101800D01*
X0061800Y0096800D01*
X0046300Y0096800D01*
X0041800Y0096800D01*
X0036800Y0091800D01*
X0036800Y0086300D01*
X0046300Y0076800D01*
X0046300Y0076300D01*
X0036800Y0066800D01*
X0036800Y0046300D01*
X0046300Y0036800D01*
X0046300Y0036300D01*
X0036800Y0026800D01*
X0036800Y0021800D01*
X0041800Y0016800D01*
X0046100Y0016800D01*
X0046800Y0016100D01*
X0091800Y0061800D02*
X0081800Y0071800D01*
X0081800Y0081800D01*
X0071800Y0091800D01*
X0066800Y0091800D01*
X0066800Y0081800D02*
X0066800Y0071800D01*
X0106800Y0051800D02*
X0106800Y0041800D01*
X0111800Y0036800D01*
X0116800Y0036800D01*
X0126800Y0026800D01*
X0156800Y0071800D02*
X0156800Y0101800D01*
D19*
X0171800Y0101800D03*
X0171800Y0076800D03*
X0156800Y0071800D03*
X0091800Y0061800D03*
D20*
X0076800Y0116800D03*
X0296800Y0021800D03*
M02*
