G75*
%MOIN*%
%OFA0B0*%
%FSLAX25Y25*%
%IPPOS*%
%LPD*%
%AMOC8*
5,1,8,0,0,1.08239X$1,22.5*
%
%ADD10C,0.00400*%
%ADD11C,0.00700*%
%ADD12C,0.01600*%
%ADD13C,0.00800*%
%ADD14C,0.00100*%
%ADD15C,0.00500*%
%ADD16R,0.02000X0.02000*%
%ADD17C,0.00600*%
%ADD18C,0.01000*%
%ADD19C,0.00200*%
%ADD20R,0.02300X0.02300*%
D10*
X0216996Y0007000D02*
X0216996Y0009302D01*
X0217763Y0010069D01*
X0220833Y0010069D01*
X0221600Y0009302D01*
X0221600Y0007000D01*
X0216996Y0007000D01*
X0217763Y0011604D02*
X0220833Y0011604D01*
X0221600Y0012371D01*
X0221600Y0013906D01*
X0220833Y0014673D01*
X0217763Y0014673D02*
X0216996Y0013906D01*
X0216996Y0012371D01*
X0217763Y0011604D01*
X0216996Y0020812D02*
X0216996Y0023114D01*
X0217763Y0023881D01*
X0219298Y0023881D01*
X0220065Y0023114D01*
X0220065Y0020812D01*
X0221600Y0020812D02*
X0216996Y0020812D01*
X0216996Y0025416D02*
X0221600Y0025416D01*
X0220065Y0026950D01*
X0221600Y0028485D01*
X0216996Y0028485D01*
X0216996Y0030020D02*
X0216996Y0032322D01*
X0217763Y0033089D01*
X0219298Y0033089D01*
X0220065Y0032322D01*
X0220065Y0030020D01*
X0220065Y0031554D02*
X0221600Y0033089D01*
X0221600Y0030020D02*
X0216996Y0030020D01*
X0217763Y0042000D02*
X0220833Y0042000D01*
X0221600Y0042767D01*
X0221600Y0044302D01*
X0220833Y0045069D01*
X0220833Y0046604D02*
X0221600Y0047371D01*
X0221600Y0048906D01*
X0220833Y0049673D01*
X0217763Y0049673D01*
X0216996Y0048906D01*
X0216996Y0047371D01*
X0217763Y0046604D01*
X0220833Y0046604D01*
X0217763Y0045069D02*
X0216996Y0044302D01*
X0216996Y0042767D01*
X0217763Y0042000D01*
X0216996Y0051208D02*
X0221600Y0054277D01*
X0216996Y0054277D01*
X0218531Y0055812D02*
X0216996Y0057346D01*
X0221600Y0057346D01*
X0221600Y0055812D02*
X0221600Y0058881D01*
X0221600Y0051208D02*
X0216996Y0051208D01*
X0279996Y0053535D02*
X0279996Y0055069D01*
X0279996Y0054302D02*
X0283833Y0054302D01*
X0284600Y0053535D01*
X0284600Y0052767D01*
X0283833Y0052000D01*
X0284600Y0056604D02*
X0281531Y0059673D01*
X0280763Y0059673D01*
X0279996Y0058906D01*
X0279996Y0057371D01*
X0280763Y0056604D01*
X0284600Y0056604D02*
X0284600Y0059673D01*
X0317417Y0415799D02*
X0318017Y0415799D01*
X0318618Y0416399D01*
X0318618Y0419402D01*
X0316816Y0419402D01*
X0316216Y0418802D01*
X0316216Y0417601D01*
X0316816Y0417000D01*
X0318618Y0417000D01*
X0319899Y0417601D02*
X0320500Y0417000D01*
X0321701Y0417000D01*
X0322301Y0417601D01*
X0322301Y0418802D01*
X0321701Y0419402D01*
X0320500Y0419402D01*
X0319899Y0418802D01*
X0319899Y0417601D01*
X0327265Y0417601D02*
X0327866Y0417000D01*
X0329067Y0417000D01*
X0329667Y0417601D01*
X0329667Y0418802D01*
X0329067Y0419402D01*
X0327866Y0419402D01*
X0327265Y0418802D01*
X0327265Y0417601D01*
X0330949Y0417000D02*
X0330949Y0419402D01*
X0332750Y0419402D01*
X0333351Y0418802D01*
X0333351Y0417000D01*
X0338315Y0419402D02*
X0339516Y0419402D01*
X0338915Y0420003D02*
X0338915Y0417601D01*
X0339516Y0417000D01*
X0340770Y0417000D02*
X0340770Y0420603D01*
X0341371Y0419402D02*
X0342572Y0419402D01*
X0343172Y0418802D01*
X0343172Y0417000D01*
X0344453Y0417601D02*
X0344453Y0418802D01*
X0345054Y0419402D01*
X0346255Y0419402D01*
X0346855Y0418802D01*
X0346855Y0418201D01*
X0344453Y0418201D01*
X0344453Y0417601D02*
X0345054Y0417000D01*
X0346255Y0417000D01*
X0351820Y0417000D02*
X0351820Y0420603D01*
X0351820Y0419402D02*
X0353621Y0419402D01*
X0354222Y0418802D01*
X0354222Y0417601D01*
X0353621Y0417000D01*
X0351820Y0417000D01*
X0355503Y0417601D02*
X0356103Y0417000D01*
X0357304Y0417000D01*
X0357905Y0417601D01*
X0357905Y0418802D01*
X0357304Y0419402D01*
X0356103Y0419402D01*
X0355503Y0418802D01*
X0355503Y0417601D01*
X0359186Y0417601D02*
X0359786Y0418201D01*
X0361588Y0418201D01*
X0361588Y0418802D02*
X0361588Y0417000D01*
X0359786Y0417000D01*
X0359186Y0417601D01*
X0359786Y0419402D02*
X0360987Y0419402D01*
X0361588Y0418802D01*
X0362869Y0419402D02*
X0362869Y0417000D01*
X0362869Y0418201D02*
X0364070Y0419402D01*
X0364671Y0419402D01*
X0365938Y0418802D02*
X0366539Y0419402D01*
X0368340Y0419402D01*
X0368340Y0420603D02*
X0368340Y0417000D01*
X0366539Y0417000D01*
X0365938Y0417601D01*
X0365938Y0418802D01*
X0341371Y0419402D02*
X0340770Y0418802D01*
X0311252Y0420603D02*
X0308850Y0420603D01*
X0310051Y0420603D02*
X0310051Y0417000D01*
X0307569Y0417601D02*
X0307569Y0420003D01*
X0306968Y0420603D01*
X0305767Y0420603D01*
X0305167Y0420003D01*
X0305167Y0417601D01*
X0305767Y0417000D01*
X0306968Y0417000D01*
X0307569Y0417601D01*
X0303885Y0417000D02*
X0303885Y0420603D01*
X0301483Y0420603D02*
X0303885Y0417000D01*
X0301483Y0417000D02*
X0301483Y0420603D01*
X0296519Y0419402D02*
X0294718Y0419402D01*
X0294117Y0418802D01*
X0294718Y0418201D01*
X0295919Y0418201D01*
X0296519Y0417601D01*
X0295919Y0417000D01*
X0294117Y0417000D01*
X0292836Y0418201D02*
X0290434Y0418201D01*
X0290434Y0417601D02*
X0290434Y0418802D01*
X0291034Y0419402D01*
X0292235Y0419402D01*
X0292836Y0418802D01*
X0292836Y0418201D01*
X0292235Y0417000D02*
X0291034Y0417000D01*
X0290434Y0417601D01*
X0289153Y0417601D02*
X0289153Y0418802D01*
X0288552Y0419402D01*
X0287351Y0419402D01*
X0286751Y0418802D01*
X0286751Y0417601D01*
X0287351Y0417000D01*
X0288552Y0417000D01*
X0289153Y0417601D01*
X0285470Y0417000D02*
X0285470Y0420603D01*
X0285470Y0419402D02*
X0283668Y0419402D01*
X0283068Y0418802D01*
X0283068Y0417601D01*
X0283668Y0417000D01*
X0285470Y0417000D01*
X0278130Y0417000D02*
X0277530Y0417601D01*
X0277530Y0420003D01*
X0276929Y0419402D02*
X0278130Y0419402D01*
X0275648Y0418802D02*
X0275648Y0417000D01*
X0273846Y0417000D01*
X0273246Y0417601D01*
X0273846Y0418201D01*
X0275648Y0418201D01*
X0275648Y0418802D02*
X0275047Y0419402D01*
X0273846Y0419402D01*
X0271965Y0418802D02*
X0271965Y0417000D01*
X0271965Y0418802D02*
X0271364Y0419402D01*
X0270163Y0419402D01*
X0269563Y0418802D01*
X0268308Y0419402D02*
X0267107Y0419402D01*
X0267708Y0420003D02*
X0267708Y0417601D01*
X0268308Y0417000D01*
X0269563Y0417000D02*
X0269563Y0420603D01*
X0262143Y0418802D02*
X0262143Y0417000D01*
X0262143Y0418802D02*
X0261543Y0419402D01*
X0259741Y0419402D01*
X0259741Y0417000D01*
X0258460Y0417601D02*
X0258460Y0418802D01*
X0257859Y0419402D01*
X0256658Y0419402D01*
X0256058Y0418802D01*
X0256058Y0417601D01*
X0256658Y0417000D01*
X0257859Y0417000D01*
X0258460Y0417601D01*
X0254804Y0417000D02*
X0253602Y0417000D01*
X0254203Y0417000D02*
X0254203Y0419402D01*
X0253602Y0419402D01*
X0252348Y0419402D02*
X0251147Y0419402D01*
X0251748Y0420003D02*
X0251748Y0417601D01*
X0252348Y0417000D01*
X0249866Y0417000D02*
X0248064Y0417000D01*
X0247464Y0417601D01*
X0248064Y0418201D01*
X0249866Y0418201D01*
X0249866Y0418802D02*
X0249866Y0417000D01*
X0249866Y0418802D02*
X0249265Y0419402D01*
X0248064Y0419402D01*
X0246210Y0419402D02*
X0245009Y0419402D01*
X0245609Y0420003D02*
X0245609Y0417601D01*
X0246210Y0417000D01*
X0243727Y0417000D02*
X0243727Y0418802D01*
X0243127Y0419402D01*
X0241325Y0419402D01*
X0241325Y0417000D01*
X0240044Y0418201D02*
X0237642Y0418201D01*
X0237642Y0417601D02*
X0237642Y0418802D01*
X0238243Y0419402D01*
X0239444Y0419402D01*
X0240044Y0418802D01*
X0240044Y0418201D01*
X0239444Y0417000D02*
X0238243Y0417000D01*
X0237642Y0417601D01*
X0236361Y0417000D02*
X0236361Y0418802D01*
X0235761Y0419402D01*
X0235160Y0418802D01*
X0235160Y0417000D01*
X0233959Y0417000D02*
X0233959Y0419402D01*
X0234560Y0419402D01*
X0235160Y0418802D01*
X0232678Y0419402D02*
X0232678Y0417000D01*
X0230876Y0417000D01*
X0230276Y0417601D01*
X0230276Y0419402D01*
X0228995Y0419402D02*
X0227193Y0419402D01*
X0226593Y0418802D01*
X0226593Y0417601D01*
X0227193Y0417000D01*
X0228995Y0417000D01*
X0225312Y0417601D02*
X0225312Y0418802D01*
X0224711Y0419402D01*
X0223510Y0419402D01*
X0222910Y0418802D01*
X0222910Y0417601D01*
X0223510Y0417000D01*
X0224711Y0417000D01*
X0225312Y0417601D01*
X0221629Y0417000D02*
X0221629Y0420603D01*
X0221629Y0419402D02*
X0219827Y0419402D01*
X0219226Y0418802D01*
X0219226Y0417601D01*
X0219827Y0417000D01*
X0221629Y0417000D01*
X0214262Y0417000D02*
X0212461Y0417000D01*
X0211860Y0417601D01*
X0211860Y0418802D01*
X0212461Y0419402D01*
X0214262Y0419402D01*
X0214262Y0420603D02*
X0214262Y0417000D01*
X0210579Y0417000D02*
X0210579Y0418802D01*
X0209979Y0419402D01*
X0208177Y0419402D01*
X0208177Y0417000D01*
X0206896Y0417000D02*
X0205094Y0417000D01*
X0204494Y0417601D01*
X0205094Y0418201D01*
X0206896Y0418201D01*
X0206896Y0418802D02*
X0206896Y0417000D01*
X0206896Y0418802D02*
X0206295Y0419402D01*
X0205094Y0419402D01*
X0201371Y0423601D02*
X0200771Y0424201D01*
X0199570Y0424201D01*
X0198969Y0424802D01*
X0199570Y0425402D01*
X0201371Y0425402D01*
X0201371Y0423601D02*
X0200771Y0423000D01*
X0198969Y0423000D01*
X0197688Y0423000D02*
X0195887Y0423000D01*
X0195286Y0423601D01*
X0195286Y0424802D01*
X0195887Y0425402D01*
X0197688Y0425402D01*
X0197688Y0422399D01*
X0197088Y0421799D01*
X0196487Y0421799D01*
X0195246Y0419402D02*
X0195847Y0418802D01*
X0195847Y0418201D01*
X0193444Y0418201D01*
X0193444Y0417601D02*
X0193444Y0418802D01*
X0194045Y0419402D01*
X0195246Y0419402D01*
X0197128Y0418802D02*
X0197728Y0419402D01*
X0199530Y0419402D01*
X0198929Y0418201D02*
X0197728Y0418201D01*
X0197128Y0418802D01*
X0197128Y0417000D02*
X0198929Y0417000D01*
X0199530Y0417601D01*
X0198929Y0418201D01*
X0195246Y0417000D02*
X0194045Y0417000D01*
X0193444Y0417601D01*
X0192190Y0417000D02*
X0191590Y0417601D01*
X0191590Y0420003D01*
X0190989Y0419402D02*
X0192190Y0419402D01*
X0189708Y0418802D02*
X0189107Y0419402D01*
X0187906Y0419402D01*
X0187306Y0418802D01*
X0187306Y0417601D01*
X0187906Y0417000D01*
X0189107Y0417000D01*
X0189708Y0417601D01*
X0189708Y0418802D01*
X0186025Y0418802D02*
X0186025Y0417000D01*
X0186025Y0418802D02*
X0185424Y0419402D01*
X0183623Y0419402D01*
X0183623Y0417000D01*
X0178659Y0417000D02*
X0176857Y0417000D01*
X0176256Y0417601D01*
X0176256Y0419402D01*
X0174402Y0420603D02*
X0174402Y0417000D01*
X0175002Y0417000D02*
X0173801Y0417000D01*
X0172520Y0417601D02*
X0172520Y0418802D01*
X0171919Y0419402D01*
X0170118Y0419402D01*
X0170118Y0420603D02*
X0170118Y0417000D01*
X0171919Y0417000D01*
X0172520Y0417601D01*
X0173801Y0420603D02*
X0174402Y0420603D01*
X0175629Y0423000D02*
X0175029Y0423601D01*
X0175029Y0424802D01*
X0175629Y0425402D01*
X0177431Y0425402D01*
X0177431Y0426603D02*
X0177431Y0423000D01*
X0175629Y0423000D01*
X0178712Y0423000D02*
X0178712Y0425402D01*
X0179913Y0425402D02*
X0180513Y0425402D01*
X0179913Y0425402D02*
X0178712Y0424201D01*
X0181781Y0423601D02*
X0182382Y0424201D01*
X0184183Y0424201D01*
X0184183Y0424802D02*
X0184183Y0423000D01*
X0182382Y0423000D01*
X0181781Y0423601D01*
X0182382Y0425402D02*
X0183583Y0425402D01*
X0184183Y0424802D01*
X0185464Y0425402D02*
X0185464Y0423601D01*
X0186065Y0423000D01*
X0186665Y0423601D01*
X0187266Y0423000D01*
X0187866Y0423601D01*
X0187866Y0425402D01*
X0189147Y0425402D02*
X0189748Y0425402D01*
X0189748Y0423000D01*
X0190348Y0423000D02*
X0189147Y0423000D01*
X0191603Y0423000D02*
X0191603Y0425402D01*
X0193404Y0425402D01*
X0194005Y0424802D01*
X0194005Y0423000D01*
X0189748Y0426603D02*
X0189748Y0427204D01*
X0178659Y0419402D02*
X0178659Y0416399D01*
X0178058Y0415799D01*
X0177457Y0415799D01*
X0168837Y0417000D02*
X0168837Y0418802D01*
X0168236Y0419402D01*
X0167636Y0418802D01*
X0167636Y0417000D01*
X0166435Y0417000D02*
X0166435Y0419402D01*
X0167035Y0419402D01*
X0167636Y0418802D01*
X0165154Y0418802D02*
X0165154Y0418201D01*
X0162752Y0418201D01*
X0162752Y0417601D02*
X0162752Y0418802D01*
X0163352Y0419402D01*
X0164553Y0419402D01*
X0165154Y0418802D01*
X0164553Y0417000D02*
X0163352Y0417000D01*
X0162752Y0417601D01*
X0161471Y0417601D02*
X0160870Y0418201D01*
X0159669Y0418201D01*
X0159068Y0418802D01*
X0159669Y0419402D01*
X0161471Y0419402D01*
X0161471Y0417601D02*
X0160870Y0417000D01*
X0159068Y0417000D01*
X0157787Y0417601D02*
X0157187Y0418201D01*
X0155986Y0418201D01*
X0155385Y0418802D01*
X0155986Y0419402D01*
X0157787Y0419402D01*
X0157787Y0417601D02*
X0157187Y0417000D01*
X0155385Y0417000D01*
X0154104Y0417000D02*
X0152303Y0417000D01*
X0151702Y0417601D01*
X0152303Y0418201D01*
X0154104Y0418201D01*
X0154104Y0418802D02*
X0154104Y0417000D01*
X0154104Y0418802D02*
X0153504Y0419402D01*
X0152303Y0419402D01*
X0152876Y0423000D02*
X0150474Y0425402D01*
X0149193Y0424802D02*
X0148593Y0425402D01*
X0147392Y0425402D01*
X0146791Y0424802D01*
X0146791Y0423601D01*
X0147392Y0423000D01*
X0148593Y0423000D01*
X0149193Y0424201D02*
X0146791Y0424201D01*
X0145537Y0423000D02*
X0144936Y0423601D01*
X0144936Y0426003D01*
X0144336Y0425402D02*
X0145537Y0425402D01*
X0149193Y0424802D02*
X0149193Y0424201D01*
X0150474Y0423000D02*
X0152876Y0425402D01*
X0154158Y0425402D02*
X0155359Y0425402D01*
X0154758Y0426003D02*
X0154758Y0423601D01*
X0155359Y0423000D01*
X0160296Y0423601D02*
X0160897Y0424201D01*
X0162698Y0424201D01*
X0162698Y0424802D02*
X0162698Y0423000D01*
X0160897Y0423000D01*
X0160296Y0423601D01*
X0160897Y0425402D02*
X0162098Y0425402D01*
X0162698Y0424802D01*
X0163979Y0425402D02*
X0165781Y0425402D01*
X0166381Y0424802D01*
X0166381Y0423000D01*
X0167662Y0423601D02*
X0167662Y0424802D01*
X0168263Y0425402D01*
X0170064Y0425402D01*
X0170064Y0426603D02*
X0170064Y0423000D01*
X0168263Y0423000D01*
X0167662Y0423601D01*
X0163979Y0423000D02*
X0163979Y0425402D01*
X0146751Y0419402D02*
X0146151Y0419402D01*
X0144950Y0418201D01*
X0144950Y0417000D02*
X0144950Y0419402D01*
X0143669Y0418802D02*
X0143068Y0419402D01*
X0141867Y0419402D01*
X0141267Y0418802D01*
X0141267Y0417601D01*
X0141867Y0417000D01*
X0143068Y0417000D01*
X0143669Y0417601D01*
X0143669Y0418802D01*
X0140012Y0418802D02*
X0138811Y0418802D01*
X0139412Y0420003D02*
X0140012Y0420603D01*
X0139412Y0420003D02*
X0139412Y0417000D01*
X0133847Y0417000D02*
X0133847Y0419402D01*
X0133847Y0417000D02*
X0132045Y0417000D01*
X0131445Y0417601D01*
X0131445Y0419402D01*
X0130164Y0419402D02*
X0128362Y0419402D01*
X0127762Y0418802D01*
X0127762Y0417601D01*
X0128362Y0417000D01*
X0130164Y0417000D01*
X0126481Y0417601D02*
X0126481Y0418802D01*
X0125880Y0419402D01*
X0124679Y0419402D01*
X0124079Y0418802D01*
X0124079Y0417601D01*
X0124679Y0417000D01*
X0125880Y0417000D01*
X0126481Y0417601D01*
X0122798Y0417601D02*
X0122798Y0420003D01*
X0122197Y0420603D01*
X0120395Y0420603D01*
X0120395Y0417000D01*
X0122197Y0417000D01*
X0122798Y0417601D01*
X0119114Y0417601D02*
X0119114Y0418802D01*
X0118514Y0419402D01*
X0116712Y0419402D01*
X0116712Y0420603D02*
X0116712Y0417000D01*
X0118514Y0417000D01*
X0119114Y0417601D01*
X0119168Y0423000D02*
X0120969Y0423000D01*
X0121570Y0423601D01*
X0120969Y0424201D01*
X0119768Y0424201D01*
X0119168Y0424802D01*
X0119768Y0425402D01*
X0121570Y0425402D01*
X0122851Y0424802D02*
X0122851Y0423601D01*
X0123451Y0423000D01*
X0125253Y0423000D01*
X0126534Y0423000D02*
X0126534Y0425402D01*
X0126534Y0424201D02*
X0127735Y0425402D01*
X0128336Y0425402D01*
X0129603Y0424802D02*
X0130204Y0425402D01*
X0131405Y0425402D01*
X0132005Y0424802D01*
X0132005Y0424201D01*
X0129603Y0424201D01*
X0129603Y0423601D02*
X0129603Y0424802D01*
X0129603Y0423601D02*
X0130204Y0423000D01*
X0131405Y0423000D01*
X0133286Y0423601D02*
X0133286Y0424802D01*
X0133887Y0425402D01*
X0135088Y0425402D01*
X0135688Y0424802D01*
X0135688Y0424201D01*
X0133286Y0424201D01*
X0133286Y0423601D02*
X0133887Y0423000D01*
X0135088Y0423000D01*
X0136970Y0423000D02*
X0136970Y0425402D01*
X0138771Y0425402D01*
X0139372Y0424802D01*
X0139372Y0423000D01*
X0125253Y0425402D02*
X0123451Y0425402D01*
X0122851Y0424802D01*
X0117900Y0425402D02*
X0116098Y0424201D01*
X0117900Y0423000D01*
X0116098Y0423000D02*
X0116098Y0426603D01*
X0114244Y0426603D02*
X0114244Y0423000D01*
X0114844Y0423000D02*
X0113643Y0423000D01*
X0112389Y0423000D02*
X0111188Y0423000D01*
X0111788Y0423000D02*
X0111788Y0425402D01*
X0111188Y0425402D01*
X0109906Y0425402D02*
X0108105Y0425402D01*
X0107504Y0424802D01*
X0108105Y0424201D01*
X0109306Y0424201D01*
X0109906Y0423601D01*
X0109306Y0423000D01*
X0107504Y0423000D01*
X0107464Y0419402D02*
X0108065Y0418802D01*
X0108065Y0417000D01*
X0109346Y0417601D02*
X0109346Y0418802D01*
X0109947Y0419402D01*
X0111748Y0419402D01*
X0111748Y0420603D02*
X0111748Y0417000D01*
X0109947Y0417000D01*
X0109346Y0417601D01*
X0107464Y0419402D02*
X0105663Y0419402D01*
X0105663Y0417000D01*
X0104382Y0417000D02*
X0102580Y0417000D01*
X0101980Y0417601D01*
X0102580Y0418201D01*
X0104382Y0418201D01*
X0104382Y0418802D02*
X0104382Y0417000D01*
X0104382Y0418802D02*
X0103781Y0419402D01*
X0102580Y0419402D01*
X0100752Y0423000D02*
X0100752Y0425402D01*
X0100752Y0424201D02*
X0101953Y0425402D01*
X0102554Y0425402D01*
X0099471Y0424802D02*
X0098870Y0425402D01*
X0097669Y0425402D01*
X0097069Y0424802D01*
X0097069Y0423601D01*
X0097669Y0423000D01*
X0098870Y0423000D01*
X0099471Y0423601D01*
X0099471Y0424802D01*
X0095814Y0424802D02*
X0094613Y0424802D01*
X0095214Y0426003D02*
X0095214Y0423000D01*
X0095214Y0426003D02*
X0095814Y0426603D01*
X0089649Y0424802D02*
X0089649Y0424201D01*
X0087247Y0424201D01*
X0087247Y0423601D02*
X0087247Y0424802D01*
X0087848Y0425402D01*
X0089049Y0425402D01*
X0089649Y0424802D01*
X0089049Y0423000D02*
X0087848Y0423000D01*
X0087247Y0423601D01*
X0085966Y0423000D02*
X0084165Y0423000D01*
X0083564Y0423601D01*
X0083564Y0424802D01*
X0084165Y0425402D01*
X0085966Y0425402D01*
X0082283Y0424802D02*
X0082283Y0423000D01*
X0080481Y0423000D01*
X0079881Y0423601D01*
X0080481Y0424201D01*
X0082283Y0424201D01*
X0082283Y0424802D02*
X0081682Y0425402D01*
X0080481Y0425402D01*
X0078026Y0426603D02*
X0078026Y0423000D01*
X0078626Y0423000D02*
X0077425Y0423000D01*
X0076144Y0424802D02*
X0075544Y0424201D01*
X0073742Y0424201D01*
X0073742Y0423000D02*
X0073742Y0426603D01*
X0075544Y0426603D01*
X0076144Y0426003D01*
X0076144Y0424802D01*
X0077425Y0426603D02*
X0078026Y0426603D01*
X0072461Y0424802D02*
X0071861Y0425402D01*
X0070059Y0425402D01*
X0070059Y0426603D02*
X0070059Y0423000D01*
X0071861Y0423000D01*
X0072461Y0423601D01*
X0072461Y0424802D01*
X0068778Y0426603D02*
X0066376Y0423000D01*
X0065095Y0424201D02*
X0062693Y0424201D01*
X0062693Y0423601D02*
X0062693Y0424802D01*
X0063293Y0425402D01*
X0064494Y0425402D01*
X0065095Y0424802D01*
X0065095Y0424201D01*
X0064494Y0423000D02*
X0063293Y0423000D01*
X0062693Y0423601D01*
X0061412Y0423000D02*
X0059610Y0423000D01*
X0059010Y0423601D01*
X0059010Y0424802D01*
X0059610Y0425402D01*
X0061412Y0425402D01*
X0057729Y0424802D02*
X0057729Y0423000D01*
X0055927Y0423000D01*
X0055327Y0423601D01*
X0055927Y0424201D01*
X0057729Y0424201D01*
X0057729Y0424802D02*
X0057128Y0425402D01*
X0055927Y0425402D01*
X0053472Y0426603D02*
X0053472Y0423000D01*
X0054072Y0423000D02*
X0052871Y0423000D01*
X0051590Y0424802D02*
X0051590Y0426003D01*
X0050990Y0426603D01*
X0049188Y0426603D01*
X0049188Y0423000D01*
X0049188Y0424201D02*
X0050990Y0424201D01*
X0051590Y0424802D01*
X0052871Y0426603D02*
X0053472Y0426603D01*
X0048534Y0420603D02*
X0046733Y0420603D01*
X0046733Y0417000D01*
X0048534Y0417000D01*
X0049135Y0417601D01*
X0049135Y0420003D01*
X0048534Y0420603D01*
X0047934Y0423000D02*
X0047333Y0423601D01*
X0047333Y0426003D01*
X0046733Y0425402D02*
X0047934Y0425402D01*
X0041768Y0424802D02*
X0041768Y0424201D01*
X0039366Y0424201D01*
X0039366Y0423601D02*
X0039366Y0424802D01*
X0039967Y0425402D01*
X0041168Y0425402D01*
X0041768Y0424802D01*
X0041168Y0423000D02*
X0039967Y0423000D01*
X0039366Y0423601D01*
X0038085Y0423601D02*
X0037485Y0424201D01*
X0036284Y0424201D01*
X0035683Y0424802D01*
X0036284Y0425402D01*
X0038085Y0425402D01*
X0038085Y0423601D02*
X0037485Y0423000D01*
X0035683Y0423000D01*
X0034402Y0423601D02*
X0034402Y0426603D01*
X0032000Y0426603D02*
X0032000Y0423601D01*
X0032601Y0423000D01*
X0033802Y0423000D01*
X0034402Y0423601D01*
X0034402Y0420603D02*
X0034402Y0417601D01*
X0033802Y0417000D01*
X0032601Y0417000D01*
X0032000Y0417601D01*
X0032000Y0420603D01*
X0035683Y0418802D02*
X0036284Y0419402D01*
X0038085Y0419402D01*
X0037485Y0418201D02*
X0036284Y0418201D01*
X0035683Y0418802D01*
X0035683Y0417000D02*
X0037485Y0417000D01*
X0038085Y0417601D01*
X0037485Y0418201D01*
X0039366Y0418201D02*
X0041768Y0418201D01*
X0041768Y0418802D01*
X0041168Y0419402D01*
X0039967Y0419402D01*
X0039366Y0418802D01*
X0039366Y0417601D01*
X0039967Y0417000D01*
X0041168Y0417000D01*
X0050416Y0417601D02*
X0051016Y0417000D01*
X0052217Y0417000D01*
X0052818Y0417601D01*
X0052818Y0418802D01*
X0052217Y0419402D01*
X0051016Y0419402D01*
X0050416Y0418802D01*
X0050416Y0417601D01*
X0054099Y0417601D02*
X0054699Y0417000D01*
X0056501Y0417000D01*
X0057782Y0417601D02*
X0058383Y0417000D01*
X0060184Y0417000D01*
X0060184Y0419402D01*
X0061465Y0419402D02*
X0062066Y0419402D01*
X0062666Y0418802D01*
X0063267Y0419402D01*
X0063867Y0418802D01*
X0063867Y0417000D01*
X0062666Y0417000D02*
X0062666Y0418802D01*
X0061465Y0419402D02*
X0061465Y0417000D01*
X0057782Y0417601D02*
X0057782Y0419402D01*
X0056501Y0419402D02*
X0054699Y0419402D01*
X0054099Y0418802D01*
X0054099Y0417601D01*
X0065148Y0417601D02*
X0065148Y0418802D01*
X0065749Y0419402D01*
X0066950Y0419402D01*
X0067550Y0418802D01*
X0067550Y0418201D01*
X0065148Y0418201D01*
X0065148Y0417601D02*
X0065749Y0417000D01*
X0066950Y0417000D01*
X0068831Y0417000D02*
X0068831Y0419402D01*
X0070633Y0419402D01*
X0071233Y0418802D01*
X0071233Y0417000D01*
X0073115Y0417601D02*
X0073716Y0417000D01*
X0073115Y0417601D02*
X0073115Y0420003D01*
X0072515Y0419402D02*
X0073716Y0419402D01*
X0075571Y0417601D02*
X0075571Y0417000D01*
X0076171Y0417000D01*
X0076171Y0417601D01*
X0075571Y0417601D01*
X0076171Y0417000D02*
X0074970Y0415799D01*
X0081709Y0417601D02*
X0082310Y0417000D01*
X0081709Y0417601D02*
X0081709Y0420003D01*
X0081109Y0419402D02*
X0082310Y0419402D01*
X0083564Y0420603D02*
X0083564Y0417000D01*
X0085366Y0417000D01*
X0085966Y0417601D01*
X0085966Y0420003D01*
X0085366Y0420603D01*
X0083564Y0420603D01*
X0087247Y0418802D02*
X0087247Y0417601D01*
X0087848Y0417000D01*
X0089049Y0417000D01*
X0089649Y0417601D01*
X0089649Y0418802D01*
X0089049Y0419402D01*
X0087848Y0419402D01*
X0087247Y0418802D01*
X0090930Y0418802D02*
X0090930Y0417601D01*
X0091531Y0417000D01*
X0093332Y0417000D01*
X0094613Y0417601D02*
X0095214Y0417000D01*
X0097015Y0417000D01*
X0097015Y0419402D01*
X0094613Y0419402D02*
X0094613Y0417601D01*
X0093332Y0419402D02*
X0091531Y0419402D01*
X0090930Y0418802D01*
X0111788Y0426603D02*
X0111788Y0427204D01*
X0113643Y0426603D02*
X0114244Y0426603D01*
X0254203Y0421204D02*
X0254203Y0420603D01*
D11*
X0207862Y0123455D02*
X0205760Y0123455D01*
X0204709Y0122404D01*
X0207862Y0123455D02*
X0208913Y0122404D01*
X0208913Y0121354D01*
X0204709Y0117150D01*
X0208913Y0117150D01*
X0196069Y0117150D02*
X0195018Y0118201D01*
X0195018Y0122404D01*
X0193967Y0121354D02*
X0196069Y0121354D01*
X0191748Y0121354D02*
X0188595Y0119252D01*
X0191748Y0117150D01*
X0188595Y0117150D02*
X0188595Y0123455D01*
X0186354Y0122404D02*
X0185303Y0123455D01*
X0183201Y0123455D01*
X0182150Y0122404D01*
X0182150Y0118201D01*
X0183201Y0117150D01*
X0185303Y0117150D01*
X0186354Y0118201D01*
X0163913Y0117150D02*
X0159709Y0117150D01*
X0161811Y0117150D02*
X0161811Y0123455D01*
X0159709Y0121354D01*
X0151069Y0121354D02*
X0148967Y0121354D01*
X0150018Y0122404D02*
X0150018Y0118201D01*
X0151069Y0117150D01*
X0146748Y0117150D02*
X0143595Y0119252D01*
X0146748Y0121354D01*
X0143595Y0123455D02*
X0143595Y0117150D01*
X0141354Y0118201D02*
X0140303Y0117150D01*
X0138201Y0117150D01*
X0137150Y0118201D01*
X0137150Y0122404D01*
X0138201Y0123455D01*
X0140303Y0123455D01*
X0141354Y0122404D01*
X0111811Y0013455D02*
X0111811Y0007150D01*
X0109709Y0007150D02*
X0113913Y0007150D01*
X0109709Y0011354D02*
X0111811Y0013455D01*
X0101069Y0011354D02*
X0098967Y0011354D01*
X0100018Y0012404D02*
X0100018Y0008201D01*
X0101069Y0007150D01*
X0096748Y0007150D02*
X0093595Y0009252D01*
X0096748Y0011354D01*
X0093595Y0013455D02*
X0093595Y0007150D01*
X0091354Y0008201D02*
X0090303Y0007150D01*
X0088201Y0007150D01*
X0087150Y0008201D01*
X0087150Y0012404D01*
X0088201Y0013455D01*
X0090303Y0013455D01*
X0091354Y0012404D01*
X0042136Y0015303D02*
X0037932Y0015303D01*
X0040034Y0023701D02*
X0040034Y0027904D01*
X0037932Y0025803D02*
X0042136Y0025803D01*
X0042136Y0036303D02*
X0037932Y0036303D01*
X0040034Y0044701D02*
X0040034Y0048904D01*
X0037932Y0046803D02*
X0042136Y0046803D01*
X0029245Y0044701D02*
X0029245Y0048904D01*
X0028194Y0049955D01*
X0025041Y0049955D01*
X0025041Y0043650D01*
X0028194Y0043650D01*
X0029245Y0044701D01*
X0028194Y0039455D02*
X0025041Y0039455D01*
X0025041Y0033150D01*
X0028194Y0033150D01*
X0029245Y0034201D01*
X0029245Y0038404D01*
X0028194Y0039455D01*
X0022799Y0039455D02*
X0018595Y0039455D01*
X0018595Y0033150D01*
X0022799Y0033150D01*
X0020697Y0036303D02*
X0018595Y0036303D01*
X0016354Y0033150D02*
X0012150Y0033150D01*
X0012150Y0039455D01*
X0012150Y0043650D02*
X0016354Y0043650D01*
X0018595Y0043650D02*
X0018595Y0049955D01*
X0022799Y0049955D01*
X0020697Y0046803D02*
X0018595Y0046803D01*
X0018595Y0043650D02*
X0022799Y0043650D01*
X0022799Y0054150D02*
X0018595Y0054150D01*
X0020697Y0054150D02*
X0020697Y0060455D01*
X0018595Y0058354D01*
X0016354Y0058354D02*
X0015303Y0057303D01*
X0012150Y0057303D01*
X0012150Y0060455D02*
X0012150Y0054150D01*
X0015303Y0054150D01*
X0016354Y0055201D01*
X0016354Y0056252D01*
X0015303Y0057303D01*
X0016354Y0058354D02*
X0016354Y0059404D01*
X0015303Y0060455D01*
X0012150Y0060455D01*
X0012150Y0064650D02*
X0012150Y0068854D01*
X0014252Y0070955D01*
X0016354Y0068854D01*
X0016354Y0064650D01*
X0018595Y0064650D02*
X0022799Y0064650D01*
X0020697Y0064650D02*
X0020697Y0070955D01*
X0018595Y0068854D01*
X0016354Y0067803D02*
X0012150Y0067803D01*
X0013201Y0075150D02*
X0015303Y0075150D01*
X0016354Y0076201D01*
X0016354Y0078303D01*
X0014252Y0078303D01*
X0016354Y0080404D02*
X0015303Y0081455D01*
X0013201Y0081455D01*
X0012150Y0080404D01*
X0012150Y0076201D01*
X0013201Y0075150D01*
X0018595Y0075150D02*
X0018595Y0081455D01*
X0022799Y0075150D01*
X0022799Y0081455D01*
X0025041Y0081455D02*
X0028194Y0081455D01*
X0029245Y0080404D01*
X0029245Y0076201D01*
X0028194Y0075150D01*
X0025041Y0075150D01*
X0025041Y0081455D01*
X0029338Y0085650D02*
X0033542Y0085650D01*
X0031440Y0085650D02*
X0031440Y0091955D01*
X0029338Y0089854D01*
X0028194Y0096150D02*
X0025041Y0096150D01*
X0025041Y0102455D01*
X0028194Y0102455D01*
X0029245Y0101404D01*
X0029245Y0097201D01*
X0028194Y0096150D01*
X0022799Y0096150D02*
X0022799Y0102455D01*
X0018595Y0102455D02*
X0018595Y0096150D01*
X0016354Y0097201D02*
X0016354Y0099303D01*
X0014252Y0099303D01*
X0016354Y0101404D02*
X0015303Y0102455D01*
X0013201Y0102455D01*
X0012150Y0101404D01*
X0012150Y0097201D01*
X0013201Y0096150D01*
X0015303Y0096150D01*
X0016354Y0097201D01*
X0014252Y0091955D02*
X0012150Y0091955D01*
X0013201Y0091955D02*
X0013201Y0085650D01*
X0012150Y0085650D02*
X0014252Y0085650D01*
X0016447Y0085650D02*
X0016447Y0089854D01*
X0019600Y0089854D01*
X0020651Y0088803D01*
X0020651Y0085650D01*
X0022799Y0096150D02*
X0018595Y0102455D01*
X0019646Y0106650D02*
X0018595Y0107701D01*
X0019646Y0106650D02*
X0021748Y0106650D01*
X0022799Y0107701D01*
X0022799Y0109803D01*
X0021748Y0110854D01*
X0020697Y0110854D01*
X0018595Y0109803D01*
X0018595Y0112955D01*
X0022799Y0112955D01*
X0016354Y0109803D02*
X0012150Y0109803D01*
X0014252Y0111904D02*
X0014252Y0107701D01*
X0012150Y0049955D02*
X0012150Y0043650D01*
X0012150Y0028955D02*
X0012150Y0022650D01*
X0016354Y0022650D01*
X0018595Y0022650D02*
X0018595Y0028955D01*
X0022799Y0028955D01*
X0025041Y0028955D02*
X0028194Y0028955D01*
X0029245Y0027904D01*
X0029245Y0023701D01*
X0028194Y0022650D01*
X0025041Y0022650D01*
X0025041Y0028955D01*
X0020697Y0025803D02*
X0018595Y0025803D01*
X0018595Y0022650D02*
X0022799Y0022650D01*
X0022799Y0018455D02*
X0018595Y0018455D01*
X0018595Y0012150D01*
X0022799Y0012150D01*
X0025041Y0012150D02*
X0028194Y0012150D01*
X0029245Y0013201D01*
X0029245Y0017404D01*
X0028194Y0018455D01*
X0025041Y0018455D01*
X0025041Y0012150D01*
X0020697Y0015303D02*
X0018595Y0015303D01*
X0016354Y0012150D02*
X0012150Y0012150D01*
X0012150Y0018455D01*
X0302150Y0032150D02*
X0306354Y0032150D01*
X0308595Y0032150D02*
X0308595Y0038455D01*
X0312799Y0038455D01*
X0315041Y0038455D02*
X0318194Y0038455D01*
X0319245Y0037404D01*
X0319245Y0033201D01*
X0318194Y0032150D01*
X0315041Y0032150D01*
X0315041Y0038455D01*
X0315041Y0042650D02*
X0318194Y0042650D01*
X0319245Y0043701D01*
X0319245Y0047904D01*
X0318194Y0048955D01*
X0315041Y0048955D01*
X0315041Y0042650D01*
X0312799Y0042650D02*
X0308595Y0042650D01*
X0308595Y0048955D01*
X0312799Y0048955D01*
X0310697Y0045803D02*
X0308595Y0045803D01*
X0306354Y0042650D02*
X0302150Y0042650D01*
X0302150Y0048955D01*
X0302150Y0053150D02*
X0306354Y0053150D01*
X0308595Y0053150D02*
X0308595Y0059455D01*
X0312799Y0059455D01*
X0315041Y0059455D02*
X0318194Y0059455D01*
X0319245Y0058404D01*
X0319245Y0054201D01*
X0318194Y0053150D01*
X0315041Y0053150D01*
X0315041Y0059455D01*
X0315041Y0063650D02*
X0318194Y0063650D01*
X0319245Y0064701D01*
X0319245Y0068904D01*
X0318194Y0069955D01*
X0315041Y0069955D01*
X0315041Y0063650D01*
X0312799Y0063650D02*
X0308595Y0063650D01*
X0308595Y0069955D01*
X0312799Y0069955D01*
X0310697Y0066803D02*
X0308595Y0066803D01*
X0306354Y0063650D02*
X0302150Y0063650D01*
X0302150Y0069955D01*
X0302150Y0074150D02*
X0305303Y0074150D01*
X0306354Y0075201D01*
X0306354Y0076252D01*
X0305303Y0077303D01*
X0302150Y0077303D01*
X0302150Y0080455D02*
X0305303Y0080455D01*
X0306354Y0079404D01*
X0306354Y0078354D01*
X0305303Y0077303D01*
X0308595Y0079404D02*
X0309646Y0080455D01*
X0311748Y0080455D01*
X0312799Y0079404D01*
X0312799Y0078354D01*
X0308595Y0074150D01*
X0312799Y0074150D01*
X0312799Y0084650D02*
X0308595Y0084650D01*
X0312799Y0088854D01*
X0312799Y0089904D01*
X0311748Y0090955D01*
X0309646Y0090955D01*
X0308595Y0089904D01*
X0306354Y0088854D02*
X0306354Y0084650D01*
X0306354Y0087803D02*
X0302150Y0087803D01*
X0302150Y0088854D02*
X0304252Y0090955D01*
X0306354Y0088854D01*
X0302150Y0088854D02*
X0302150Y0084650D01*
X0302150Y0080455D02*
X0302150Y0074150D01*
X0302150Y0059455D02*
X0302150Y0053150D01*
X0308595Y0053150D02*
X0312799Y0053150D01*
X0310697Y0056303D02*
X0308595Y0056303D01*
X0321486Y0066803D02*
X0325690Y0066803D01*
X0323588Y0068904D02*
X0323588Y0064701D01*
X0327932Y0056303D02*
X0332136Y0056303D01*
X0323588Y0047904D02*
X0323588Y0043701D01*
X0321486Y0045803D02*
X0325690Y0045803D01*
X0327932Y0035303D02*
X0332136Y0035303D01*
X0312799Y0032150D02*
X0308595Y0032150D01*
X0308595Y0035303D02*
X0310697Y0035303D01*
X0302150Y0038455D02*
X0302150Y0032150D01*
X0308201Y0013455D02*
X0307150Y0012404D01*
X0307150Y0008201D01*
X0308201Y0007150D01*
X0310303Y0007150D01*
X0311354Y0008201D01*
X0313595Y0009252D02*
X0316748Y0011354D01*
X0318967Y0011354D02*
X0321069Y0011354D01*
X0320018Y0012404D02*
X0320018Y0008201D01*
X0321069Y0007150D01*
X0316748Y0007150D02*
X0313595Y0009252D01*
X0313595Y0007150D02*
X0313595Y0013455D01*
X0311354Y0012404D02*
X0310303Y0013455D01*
X0308201Y0013455D01*
X0329709Y0012404D02*
X0330760Y0013455D01*
X0332862Y0013455D01*
X0333913Y0012404D01*
X0333913Y0011354D01*
X0329709Y0007150D01*
X0333913Y0007150D01*
X0318194Y0095150D02*
X0315041Y0095150D01*
X0315041Y0101455D01*
X0318194Y0101455D01*
X0319245Y0100404D01*
X0319245Y0096201D01*
X0318194Y0095150D01*
X0312799Y0095150D02*
X0312799Y0101455D01*
X0312892Y0105650D02*
X0317096Y0109854D01*
X0317096Y0110904D01*
X0316045Y0111955D01*
X0313943Y0111955D01*
X0312892Y0110904D01*
X0310651Y0111955D02*
X0310651Y0105650D01*
X0306447Y0111955D01*
X0306447Y0105650D01*
X0304252Y0105650D02*
X0302150Y0105650D01*
X0303201Y0105650D02*
X0303201Y0111955D01*
X0302150Y0111955D02*
X0304252Y0111955D01*
X0305303Y0101455D02*
X0303201Y0101455D01*
X0302150Y0100404D01*
X0302150Y0096201D01*
X0303201Y0095150D01*
X0305303Y0095150D01*
X0306354Y0096201D01*
X0306354Y0098303D01*
X0304252Y0098303D01*
X0306354Y0100404D02*
X0305303Y0101455D01*
X0308595Y0101455D02*
X0308595Y0095150D01*
X0312799Y0095150D02*
X0308595Y0101455D01*
X0312892Y0105650D02*
X0317096Y0105650D01*
D12*
X0001800Y0131800D02*
X0001800Y0001800D01*
X0336800Y0001800D01*
X0336800Y0131800D01*
X0001800Y0131800D01*
D13*
X0041800Y0109300D02*
X0041800Y0104300D01*
X0044300Y0101800D01*
X0041800Y0099300D01*
X0041800Y0094300D01*
X0044300Y0091800D01*
X0041800Y0089300D01*
X0041800Y0084300D01*
X0044300Y0081800D01*
X0041800Y0079300D01*
X0041800Y0074300D01*
X0044300Y0071800D01*
X0041800Y0069300D01*
X0041800Y0064300D01*
X0044300Y0061800D01*
X0041800Y0059300D01*
X0041800Y0054300D01*
X0044300Y0051800D01*
X0041800Y0049300D01*
X0041800Y0044300D01*
X0044300Y0041800D01*
X0041800Y0039300D01*
X0041800Y0034300D01*
X0044300Y0031800D01*
X0049300Y0031800D01*
X0051800Y0029300D01*
X0051800Y0024300D01*
X0049300Y0021800D01*
X0051800Y0019300D01*
X0051800Y0014300D01*
X0049300Y0011800D01*
X0044300Y0011800D01*
X0041800Y0014300D01*
X0041800Y0019300D01*
X0044300Y0021800D01*
X0041800Y0024300D01*
X0041800Y0029300D01*
X0044300Y0031800D01*
X0049300Y0031800D01*
X0051800Y0034300D01*
X0051800Y0039300D01*
X0049300Y0041800D01*
X0051800Y0044300D01*
X0051800Y0049300D01*
X0049300Y0051800D01*
X0051800Y0054300D01*
X0051800Y0059300D01*
X0049300Y0061800D01*
X0051800Y0064300D01*
X0051800Y0069300D01*
X0049300Y0071800D01*
X0051800Y0074300D01*
X0051800Y0079300D01*
X0049300Y0081800D01*
X0051800Y0084300D01*
X0051800Y0089300D01*
X0049300Y0091800D01*
X0051800Y0094300D01*
X0051800Y0099300D01*
X0049300Y0101800D01*
X0051800Y0104300D01*
X0051800Y0109300D01*
X0049300Y0111800D01*
X0044300Y0111800D01*
X0041800Y0109300D01*
X0070800Y0091800D02*
X0076800Y0091800D01*
X0076800Y0094800D01*
X0096800Y0094800D01*
X0096800Y0091800D01*
X0102800Y0091800D01*
X0096800Y0091800D02*
X0096800Y0088800D01*
X0076800Y0088800D01*
X0076800Y0091800D01*
X0076800Y0084800D02*
X0076800Y0081800D01*
X0070800Y0081800D01*
X0076800Y0081800D02*
X0076800Y0078800D01*
X0096800Y0078800D01*
X0096800Y0081800D01*
X0102800Y0081800D01*
X0096800Y0081800D02*
X0096800Y0084800D01*
X0076800Y0084800D01*
X0076800Y0074800D02*
X0076800Y0071800D01*
X0070800Y0071800D01*
X0076800Y0071800D02*
X0076800Y0068800D01*
X0096800Y0068800D01*
X0096800Y0071800D01*
X0102800Y0071800D01*
X0096800Y0071800D02*
X0096800Y0074800D01*
X0076800Y0074800D01*
X0076800Y0064800D02*
X0096800Y0064800D01*
X0096800Y0061800D01*
X0102800Y0061800D01*
X0096800Y0061800D02*
X0096800Y0058800D01*
X0076800Y0058800D01*
X0076800Y0061800D01*
X0070800Y0061800D01*
X0076800Y0061800D02*
X0076800Y0064800D01*
X0076800Y0054800D02*
X0076800Y0051800D01*
X0070800Y0051800D01*
X0076800Y0051800D02*
X0076800Y0048800D01*
X0096800Y0048800D01*
X0096800Y0051800D01*
X0102800Y0051800D01*
X0096800Y0051800D02*
X0096800Y0054800D01*
X0076800Y0054800D01*
X0224871Y0062154D02*
X0224871Y0005855D01*
X0258729Y0005855D01*
X0258729Y0036800D01*
X0253611Y0034989D02*
X0253611Y0030757D01*
X0253611Y0026820D02*
X0253611Y0022587D01*
X0253611Y0018650D02*
X0253611Y0014418D01*
X0253611Y0010481D02*
X0253611Y0006249D01*
X0245343Y0011367D02*
X0245343Y0016115D01*
X0245343Y0020052D02*
X0245343Y0024800D01*
X0238257Y0024800D02*
X0238257Y0020052D01*
X0238257Y0016115D02*
X0238257Y0011367D01*
X0238256Y0011367D02*
X0238272Y0011249D01*
X0238292Y0011131D01*
X0238316Y0011014D01*
X0238344Y0010899D01*
X0238375Y0010784D01*
X0238410Y0010670D01*
X0238450Y0010557D01*
X0238492Y0010446D01*
X0238539Y0010336D01*
X0238589Y0010228D01*
X0238643Y0010121D01*
X0238700Y0010017D01*
X0238761Y0009914D01*
X0238825Y0009814D01*
X0238893Y0009716D01*
X0238963Y0009620D01*
X0239037Y0009526D01*
X0239114Y0009435D01*
X0239194Y0009347D01*
X0239277Y0009261D01*
X0239363Y0009178D01*
X0239451Y0009098D01*
X0239542Y0009021D01*
X0239636Y0008947D01*
X0239732Y0008876D01*
X0239830Y0008809D01*
X0239931Y0008745D01*
X0240033Y0008684D01*
X0240138Y0008627D01*
X0240244Y0008573D01*
X0240353Y0008523D01*
X0240462Y0008476D01*
X0240574Y0008433D01*
X0240686Y0008394D01*
X0240800Y0008359D01*
X0240915Y0008327D01*
X0241031Y0008300D01*
X0241148Y0008276D01*
X0241265Y0008256D01*
X0241384Y0008240D01*
X0241502Y0008228D01*
X0241621Y0008220D01*
X0241740Y0008216D01*
X0241860Y0008216D01*
X0241979Y0008220D01*
X0242098Y0008228D01*
X0242216Y0008240D01*
X0242335Y0008256D01*
X0242452Y0008276D01*
X0242569Y0008300D01*
X0242685Y0008327D01*
X0242800Y0008359D01*
X0242914Y0008394D01*
X0243026Y0008433D01*
X0243138Y0008476D01*
X0243247Y0008523D01*
X0243356Y0008573D01*
X0243462Y0008627D01*
X0243567Y0008684D01*
X0243669Y0008745D01*
X0243770Y0008809D01*
X0243868Y0008876D01*
X0243964Y0008947D01*
X0244058Y0009021D01*
X0244149Y0009098D01*
X0244237Y0009178D01*
X0244323Y0009261D01*
X0244406Y0009347D01*
X0244486Y0009435D01*
X0244563Y0009526D01*
X0244637Y0009620D01*
X0244707Y0009716D01*
X0244775Y0009814D01*
X0244839Y0009914D01*
X0244900Y0010017D01*
X0244957Y0010121D01*
X0245011Y0010228D01*
X0245061Y0010336D01*
X0245108Y0010446D01*
X0245150Y0010557D01*
X0245190Y0010670D01*
X0245225Y0010784D01*
X0245256Y0010899D01*
X0245284Y0011014D01*
X0245308Y0011131D01*
X0245328Y0011249D01*
X0245344Y0011367D01*
X0229989Y0010555D02*
X0229989Y0006347D01*
X0229989Y0014492D02*
X0229989Y0018700D01*
X0229989Y0022637D02*
X0229989Y0026844D01*
X0229989Y0030781D02*
X0229989Y0034989D01*
X0235238Y0034989D01*
X0239175Y0034989D02*
X0244425Y0034989D01*
X0248362Y0034989D02*
X0253611Y0034989D01*
X0258729Y0056800D02*
X0258729Y0062154D01*
X0252430Y0062154D01*
X0261800Y0073800D02*
X0241800Y0073800D01*
X0241800Y0076800D01*
X0235800Y0076800D01*
X0241800Y0076800D02*
X0241800Y0079800D01*
X0261800Y0079800D01*
X0261800Y0076800D01*
X0267800Y0076800D01*
X0261800Y0076800D02*
X0261800Y0073800D01*
X0261800Y0083800D02*
X0261800Y0086800D01*
X0267800Y0086800D01*
X0261800Y0086800D02*
X0261800Y0089800D01*
X0241800Y0089800D01*
X0241800Y0086800D01*
X0235800Y0086800D01*
X0241800Y0086800D02*
X0241800Y0083800D01*
X0261800Y0083800D01*
X0261800Y0093800D02*
X0261800Y0096800D01*
X0267800Y0096800D01*
X0261800Y0096800D02*
X0261800Y0099800D01*
X0241800Y0099800D01*
X0241800Y0096800D01*
X0235800Y0096800D01*
X0241800Y0096800D02*
X0241800Y0093800D01*
X0261800Y0093800D01*
X0261800Y0103800D02*
X0261800Y0106800D01*
X0267800Y0106800D01*
X0261800Y0106800D02*
X0261800Y0109800D01*
X0241800Y0109800D01*
X0241800Y0106800D01*
X0235800Y0106800D01*
X0241800Y0106800D02*
X0241800Y0103800D01*
X0261800Y0103800D01*
X0261800Y0113800D02*
X0261800Y0116800D01*
X0267800Y0116800D01*
X0261800Y0116800D02*
X0261800Y0119800D01*
X0241800Y0119800D01*
X0241800Y0116800D01*
X0235800Y0116800D01*
X0241800Y0116800D02*
X0241800Y0113800D01*
X0261800Y0113800D01*
X0287300Y0109300D02*
X0287300Y0104300D01*
X0289800Y0101800D01*
X0294800Y0101800D01*
X0297300Y0099300D01*
X0297300Y0094300D01*
X0294800Y0091800D01*
X0289800Y0091800D01*
X0287300Y0094300D01*
X0287300Y0099300D01*
X0289800Y0101800D01*
X0294800Y0101800D02*
X0297300Y0104300D01*
X0297300Y0109300D01*
X0294800Y0111800D01*
X0289800Y0111800D01*
X0287300Y0109300D01*
X0289800Y0091800D02*
X0287300Y0089300D01*
X0287300Y0084300D01*
X0289800Y0081800D01*
X0294800Y0081800D01*
X0297300Y0079300D01*
X0297300Y0074300D01*
X0294800Y0071800D01*
X0289800Y0071800D01*
X0287300Y0074300D01*
X0287300Y0079300D01*
X0289800Y0081800D01*
X0294800Y0081800D02*
X0297300Y0084300D01*
X0297300Y0089300D01*
X0294800Y0091800D01*
X0294800Y0071800D02*
X0297300Y0069300D01*
X0297300Y0064300D01*
X0294800Y0061800D01*
X0289800Y0061800D01*
X0287300Y0064300D01*
X0287300Y0069300D01*
X0289800Y0071800D01*
X0289800Y0061800D02*
X0287300Y0059300D01*
X0287300Y0054300D01*
X0289800Y0051800D01*
X0294800Y0051800D01*
X0297300Y0054300D01*
X0297300Y0059300D01*
X0294800Y0061800D01*
X0294300Y0051800D02*
X0289300Y0051800D01*
X0286800Y0049300D01*
X0286800Y0044300D01*
X0289300Y0041800D01*
X0286800Y0039300D01*
X0286800Y0034300D01*
X0289300Y0031800D01*
X0294300Y0031800D01*
X0296800Y0034300D01*
X0296800Y0039300D01*
X0294300Y0041800D01*
X0296800Y0044300D01*
X0296800Y0049300D01*
X0294300Y0051800D01*
X0231170Y0062154D02*
X0224871Y0062154D01*
D14*
X0224797Y0076850D02*
X0225797Y0077851D01*
X0225797Y0078101D01*
X0225547Y0078351D01*
X0225047Y0078351D01*
X0224797Y0078101D01*
X0223824Y0078351D02*
X0223824Y0076850D01*
X0224324Y0076850D02*
X0223323Y0076850D01*
X0222851Y0076850D02*
X0222350Y0077350D01*
X0222601Y0077350D02*
X0221850Y0077350D01*
X0221850Y0076850D02*
X0221850Y0078351D01*
X0222601Y0078351D01*
X0222851Y0078101D01*
X0222851Y0077601D01*
X0222601Y0077350D01*
X0223323Y0077851D02*
X0223824Y0078351D01*
X0224797Y0076850D02*
X0225797Y0076850D01*
X0221127Y0095250D02*
X0220627Y0095250D01*
X0220377Y0095500D01*
X0221378Y0096501D01*
X0221378Y0095500D01*
X0221127Y0095250D01*
X0220377Y0095500D02*
X0220377Y0096501D01*
X0220627Y0096751D01*
X0221127Y0096751D01*
X0221378Y0096501D01*
X0219904Y0095250D02*
X0218903Y0095250D01*
X0218431Y0095250D02*
X0217931Y0095750D01*
X0218181Y0095750D02*
X0217430Y0095750D01*
X0217430Y0095250D02*
X0217430Y0096751D01*
X0218181Y0096751D01*
X0218431Y0096501D01*
X0218431Y0096001D01*
X0218181Y0095750D01*
X0218903Y0096251D02*
X0219404Y0096751D01*
X0219404Y0095250D01*
X0219904Y0105250D02*
X0219404Y0105750D01*
X0219654Y0105750D02*
X0218903Y0105750D01*
X0218903Y0105250D02*
X0218903Y0106751D01*
X0219654Y0106751D01*
X0219904Y0106501D01*
X0219904Y0106001D01*
X0219654Y0105750D01*
X0220377Y0105500D02*
X0220627Y0105250D01*
X0221127Y0105250D01*
X0221378Y0105500D01*
X0221378Y0106501D01*
X0221127Y0106751D01*
X0220627Y0106751D01*
X0220377Y0106501D01*
X0220377Y0106251D01*
X0220627Y0106001D01*
X0221378Y0106001D01*
X0221127Y0115250D02*
X0220627Y0115250D01*
X0220377Y0115500D01*
X0219904Y0115250D02*
X0219404Y0115750D01*
X0219654Y0115750D02*
X0218903Y0115750D01*
X0218903Y0115250D02*
X0218903Y0116751D01*
X0219654Y0116751D01*
X0219904Y0116501D01*
X0219904Y0116001D01*
X0219654Y0115750D01*
X0220377Y0116501D02*
X0220627Y0116751D01*
X0221127Y0116751D01*
X0221378Y0116501D01*
X0221378Y0116251D01*
X0221127Y0116001D01*
X0221378Y0115750D01*
X0221378Y0115500D01*
X0221127Y0115250D01*
X0221127Y0116001D02*
X0220877Y0116001D01*
X0250377Y0101501D02*
X0250627Y0101751D01*
X0251127Y0101751D01*
X0251378Y0101501D01*
X0250377Y0100500D01*
X0250627Y0100250D01*
X0251127Y0100250D01*
X0251378Y0100500D01*
X0251378Y0101501D01*
X0250377Y0101501D02*
X0250377Y0100500D01*
X0250627Y0091751D02*
X0251127Y0091751D01*
X0251378Y0091501D01*
X0250377Y0090500D01*
X0250627Y0090250D01*
X0251127Y0090250D01*
X0251378Y0090500D01*
X0251378Y0091501D01*
X0250627Y0091751D02*
X0250377Y0091501D01*
X0250377Y0090500D01*
X0278903Y0086751D02*
X0278903Y0085250D01*
X0278903Y0085750D02*
X0279654Y0085750D01*
X0279904Y0086001D01*
X0279904Y0086501D01*
X0279654Y0086751D01*
X0278903Y0086751D01*
X0279404Y0085750D02*
X0279904Y0085250D01*
X0280377Y0085500D02*
X0280627Y0085250D01*
X0281127Y0085250D01*
X0281378Y0085500D01*
X0281378Y0085750D01*
X0281127Y0086001D01*
X0280377Y0086001D01*
X0280377Y0085500D01*
X0280377Y0086001D02*
X0280877Y0086501D01*
X0281378Y0086751D01*
X0116378Y0091001D02*
X0115377Y0091001D01*
X0116127Y0091751D01*
X0116127Y0090250D01*
X0114904Y0090250D02*
X0114404Y0090750D01*
X0114654Y0090750D02*
X0113903Y0090750D01*
X0113903Y0090250D02*
X0113903Y0091751D01*
X0114654Y0091751D01*
X0114904Y0091501D01*
X0114904Y0091001D01*
X0114654Y0090750D01*
X0114324Y0083351D02*
X0114324Y0083101D01*
X0113323Y0082100D01*
X0113323Y0081850D01*
X0112851Y0081850D02*
X0112350Y0082350D01*
X0112601Y0082350D02*
X0111850Y0082350D01*
X0111850Y0081850D02*
X0111850Y0083351D01*
X0112601Y0083351D01*
X0112851Y0083101D01*
X0112851Y0082601D01*
X0112601Y0082350D01*
X0113323Y0083351D02*
X0114324Y0083351D01*
X0114074Y0073351D02*
X0114324Y0073101D01*
X0114324Y0072851D01*
X0114074Y0072601D01*
X0113573Y0072601D01*
X0113323Y0072851D01*
X0113323Y0073101D01*
X0113573Y0073351D01*
X0114074Y0073351D01*
X0114074Y0072601D02*
X0114324Y0072350D01*
X0114324Y0072100D01*
X0114074Y0071850D01*
X0113573Y0071850D01*
X0113323Y0072100D01*
X0113323Y0072350D01*
X0113573Y0072601D01*
X0112851Y0072601D02*
X0112601Y0072350D01*
X0111850Y0072350D01*
X0111850Y0071850D02*
X0111850Y0073351D01*
X0112601Y0073351D01*
X0112851Y0073101D01*
X0112851Y0072601D01*
X0112350Y0072350D02*
X0112851Y0071850D01*
X0113903Y0061751D02*
X0114654Y0061751D01*
X0114904Y0061501D01*
X0114904Y0061001D01*
X0114654Y0060750D01*
X0113903Y0060750D01*
X0113903Y0060250D02*
X0113903Y0061751D01*
X0114404Y0060750D02*
X0114904Y0060250D01*
X0115377Y0060250D02*
X0116378Y0060250D01*
X0115877Y0060250D02*
X0115877Y0061751D01*
X0115377Y0061251D01*
X0115297Y0053351D02*
X0114797Y0052851D01*
X0115297Y0053351D02*
X0115297Y0051850D01*
X0114797Y0051850D02*
X0115797Y0051850D01*
X0114324Y0051850D02*
X0113323Y0051850D01*
X0112851Y0051850D02*
X0112350Y0052350D01*
X0112601Y0052350D02*
X0111850Y0052350D01*
X0111850Y0051850D02*
X0111850Y0053351D01*
X0112601Y0053351D01*
X0112851Y0053101D01*
X0112851Y0052601D01*
X0112601Y0052350D01*
X0113323Y0052851D02*
X0113824Y0053351D01*
X0113824Y0051850D01*
X0087851Y0057100D02*
X0087601Y0056850D01*
X0087100Y0056850D01*
X0086850Y0057100D01*
X0087851Y0058101D01*
X0087851Y0057100D01*
X0086850Y0057100D02*
X0086850Y0058101D01*
X0087100Y0058351D01*
X0087601Y0058351D01*
X0087851Y0058101D01*
X0087601Y0086850D02*
X0087100Y0086850D01*
X0086850Y0087100D01*
X0087851Y0088101D01*
X0087851Y0087100D01*
X0087601Y0086850D01*
X0086850Y0087100D02*
X0086850Y0088101D01*
X0087100Y0088351D01*
X0087601Y0088351D01*
X0087851Y0088101D01*
D15*
X0087562Y0090850D02*
X0087562Y0093552D01*
X0086210Y0092201D01*
X0088012Y0092201D01*
X0089157Y0091300D02*
X0089157Y0090850D01*
X0089157Y0091300D02*
X0090959Y0093102D01*
X0090959Y0093552D01*
X0089157Y0093552D01*
X0092103Y0093102D02*
X0092554Y0093552D01*
X0093455Y0093552D01*
X0093905Y0093102D01*
X0092103Y0091300D01*
X0092554Y0090850D01*
X0093455Y0090850D01*
X0093905Y0091300D01*
X0093905Y0093102D01*
X0092103Y0093102D02*
X0092103Y0091300D01*
X0086294Y0072752D02*
X0085393Y0072752D01*
X0084943Y0072302D01*
X0084943Y0070500D01*
X0086745Y0072302D01*
X0086745Y0070500D01*
X0086294Y0070050D01*
X0085393Y0070050D01*
X0084943Y0070500D01*
X0083798Y0072302D02*
X0081997Y0070500D01*
X0081997Y0070050D01*
X0080401Y0070050D02*
X0080401Y0072752D01*
X0079050Y0071401D01*
X0080852Y0071401D01*
X0081997Y0072752D02*
X0083798Y0072752D01*
X0083798Y0072302D01*
X0086294Y0072752D02*
X0086745Y0072302D01*
X0087562Y0063552D02*
X0086210Y0062201D01*
X0088012Y0062201D01*
X0087562Y0060850D02*
X0087562Y0063552D01*
X0089157Y0063552D02*
X0090959Y0063552D01*
X0090959Y0063102D01*
X0089157Y0061300D01*
X0089157Y0060850D01*
X0092103Y0061300D02*
X0093905Y0063102D01*
X0093905Y0061300D01*
X0093455Y0060850D01*
X0092554Y0060850D01*
X0092103Y0061300D01*
X0092103Y0063102D01*
X0092554Y0063552D01*
X0093455Y0063552D01*
X0093905Y0063102D01*
X0115546Y0036155D02*
X0120050Y0036155D01*
X0120050Y0034654D02*
X0120050Y0037656D01*
X0117047Y0034654D02*
X0115546Y0036155D01*
X0115546Y0033053D02*
X0119299Y0033053D01*
X0120050Y0032302D01*
X0120050Y0030801D01*
X0119299Y0030050D01*
X0115546Y0030050D01*
X0130550Y0039550D02*
X0133553Y0039550D01*
X0135154Y0039550D02*
X0135154Y0044054D01*
X0136655Y0042553D01*
X0138156Y0044054D01*
X0138156Y0039550D01*
X0139758Y0040301D02*
X0140508Y0039550D01*
X0142010Y0039550D01*
X0142760Y0040301D01*
X0142760Y0041051D01*
X0142010Y0041802D01*
X0141259Y0041802D01*
X0142010Y0041802D02*
X0142760Y0042553D01*
X0142760Y0043303D01*
X0142010Y0044054D01*
X0140508Y0044054D01*
X0139758Y0043303D01*
X0144362Y0043303D02*
X0145112Y0044054D01*
X0146614Y0044054D01*
X0147364Y0043303D01*
X0147364Y0042553D01*
X0144362Y0039550D01*
X0147364Y0039550D01*
X0148966Y0041802D02*
X0151218Y0044054D01*
X0151218Y0039550D01*
X0153570Y0039550D02*
X0153570Y0044054D01*
X0156572Y0039550D01*
X0156572Y0044054D01*
X0151968Y0041802D02*
X0148966Y0041802D01*
X0130550Y0044054D02*
X0130550Y0039550D01*
X0134150Y0069750D02*
X0137153Y0069750D01*
X0135651Y0069750D02*
X0135651Y0074254D01*
X0134150Y0072753D01*
X0138754Y0073503D02*
X0139505Y0074254D01*
X0141006Y0074254D01*
X0141756Y0073503D01*
X0138754Y0070501D01*
X0139505Y0069750D01*
X0141006Y0069750D01*
X0141756Y0070501D01*
X0141756Y0073503D01*
X0143358Y0074254D02*
X0143358Y0069750D01*
X0143358Y0071251D02*
X0146360Y0074254D01*
X0144108Y0072002D02*
X0146360Y0069750D01*
X0138754Y0070501D02*
X0138754Y0073503D01*
X0133553Y0078050D02*
X0130550Y0078050D01*
X0132051Y0078050D02*
X0132051Y0082554D01*
X0130550Y0081053D01*
X0160050Y0081803D02*
X0160801Y0082554D01*
X0162302Y0082554D01*
X0163053Y0081803D01*
X0163053Y0081053D01*
X0162302Y0080302D01*
X0163053Y0079551D01*
X0163053Y0078801D01*
X0162302Y0078050D01*
X0160801Y0078050D01*
X0160050Y0078801D01*
X0161551Y0080302D02*
X0162302Y0080302D01*
X0180550Y0081053D02*
X0182051Y0082554D01*
X0182051Y0078050D01*
X0180550Y0078050D02*
X0183553Y0078050D01*
X0185651Y0074254D02*
X0185651Y0069750D01*
X0184150Y0069750D02*
X0187153Y0069750D01*
X0188754Y0070501D02*
X0191756Y0073503D01*
X0191756Y0070501D01*
X0191006Y0069750D01*
X0189505Y0069750D01*
X0188754Y0070501D01*
X0188754Y0073503D01*
X0189505Y0074254D01*
X0191006Y0074254D01*
X0191756Y0073503D01*
X0193358Y0074254D02*
X0193358Y0069750D01*
X0193358Y0071251D02*
X0196360Y0074254D01*
X0194108Y0072002D02*
X0196360Y0069750D01*
X0185651Y0074254D02*
X0184150Y0072753D01*
X0205631Y0047202D02*
X0205047Y0046618D01*
X0205047Y0045451D01*
X0205631Y0044867D01*
X0206215Y0044867D01*
X0206799Y0045451D01*
X0206799Y0047202D01*
X0207966Y0047202D02*
X0205631Y0047202D01*
X0207966Y0047202D02*
X0208550Y0046618D01*
X0208550Y0045451D01*
X0207966Y0044867D01*
X0208550Y0043519D02*
X0208550Y0041184D01*
X0208550Y0042351D02*
X0205047Y0042351D01*
X0206215Y0041184D01*
X0206215Y0039836D02*
X0206799Y0039252D01*
X0206799Y0038084D01*
X0206215Y0037501D01*
X0205631Y0037501D01*
X0205047Y0038084D01*
X0205047Y0039252D01*
X0205631Y0039836D01*
X0206215Y0039836D01*
X0206799Y0039252D02*
X0207382Y0039836D01*
X0207966Y0039836D01*
X0208550Y0039252D01*
X0208550Y0038084D01*
X0207966Y0037501D01*
X0207382Y0037501D01*
X0206799Y0038084D01*
X0206799Y0036153D02*
X0207966Y0036153D01*
X0208550Y0035569D01*
X0208550Y0034401D01*
X0207966Y0033817D01*
X0206799Y0033817D02*
X0206215Y0034985D01*
X0206215Y0035569D01*
X0206799Y0036153D01*
X0205047Y0036153D02*
X0205047Y0033817D01*
X0206799Y0033817D01*
X0208550Y0032470D02*
X0205047Y0032470D01*
X0205047Y0030134D02*
X0208550Y0032470D01*
X0208550Y0030134D02*
X0205047Y0030134D01*
X0205047Y0027619D02*
X0208550Y0027619D01*
X0208550Y0028786D02*
X0208550Y0026451D01*
X0206215Y0026451D02*
X0205047Y0027619D01*
X0245401Y0075050D02*
X0245401Y0077752D01*
X0244050Y0076401D01*
X0245852Y0076401D01*
X0246997Y0075500D02*
X0246997Y0075050D01*
X0246997Y0075500D02*
X0248798Y0077302D01*
X0248798Y0077752D01*
X0246997Y0077752D01*
X0249943Y0077302D02*
X0249943Y0075500D01*
X0251745Y0077302D01*
X0251745Y0075500D01*
X0251294Y0075050D01*
X0250393Y0075050D01*
X0249943Y0075500D01*
X0249943Y0077302D02*
X0250393Y0077752D01*
X0251294Y0077752D01*
X0251745Y0077302D01*
X0252562Y0085850D02*
X0252562Y0088552D01*
X0251210Y0087201D01*
X0253012Y0087201D01*
X0254157Y0086300D02*
X0254157Y0085850D01*
X0254157Y0086300D02*
X0255959Y0088102D01*
X0255959Y0088552D01*
X0254157Y0088552D01*
X0257103Y0088102D02*
X0257554Y0088552D01*
X0258455Y0088552D01*
X0258905Y0088102D01*
X0257103Y0086300D01*
X0257554Y0085850D01*
X0258455Y0085850D01*
X0258905Y0086300D01*
X0258905Y0088102D01*
X0257103Y0088102D02*
X0257103Y0086300D01*
X0257554Y0115850D02*
X0257103Y0116300D01*
X0258905Y0118102D01*
X0258905Y0116300D01*
X0258455Y0115850D01*
X0257554Y0115850D01*
X0257103Y0116300D02*
X0257103Y0118102D01*
X0257554Y0118552D01*
X0258455Y0118552D01*
X0258905Y0118102D01*
X0255959Y0118102D02*
X0254157Y0116300D01*
X0254157Y0115850D01*
X0252562Y0115850D02*
X0252562Y0118552D01*
X0251210Y0117201D01*
X0253012Y0117201D01*
X0254157Y0118552D02*
X0255959Y0118552D01*
X0255959Y0118102D01*
X0213053Y0081803D02*
X0213053Y0081053D01*
X0212302Y0080302D01*
X0213053Y0079551D01*
X0213053Y0078801D01*
X0212302Y0078050D01*
X0210801Y0078050D01*
X0210050Y0078801D01*
X0211551Y0080302D02*
X0212302Y0080302D01*
X0213053Y0081803D02*
X0212302Y0082554D01*
X0210801Y0082554D01*
X0210050Y0081803D01*
X0184906Y0112550D02*
X0183405Y0112550D01*
X0182654Y0113301D01*
X0182654Y0114802D02*
X0184155Y0115553D01*
X0184906Y0115553D01*
X0185656Y0114802D01*
X0185656Y0113301D01*
X0184906Y0112550D01*
X0182654Y0114802D02*
X0182654Y0117054D01*
X0185656Y0117054D01*
X0181053Y0116303D02*
X0181053Y0114802D01*
X0180302Y0114051D01*
X0178050Y0114051D01*
X0178050Y0112550D02*
X0178050Y0117054D01*
X0180302Y0117054D01*
X0181053Y0116303D01*
X0179551Y0114051D02*
X0181053Y0112550D01*
X0135656Y0112550D02*
X0132654Y0112550D01*
X0135656Y0115553D01*
X0135656Y0116303D01*
X0134906Y0117054D01*
X0133405Y0117054D01*
X0132654Y0116303D01*
X0131053Y0116303D02*
X0131053Y0114802D01*
X0130302Y0114051D01*
X0128050Y0114051D01*
X0128050Y0112550D02*
X0128050Y0117054D01*
X0130302Y0117054D01*
X0131053Y0116303D01*
X0129551Y0114051D02*
X0131053Y0112550D01*
X0092198Y0033054D02*
X0089946Y0033054D01*
X0089946Y0028550D01*
X0092198Y0028550D01*
X0092949Y0029301D01*
X0092949Y0032303D01*
X0092198Y0033054D01*
X0088345Y0033054D02*
X0085342Y0033054D01*
X0085342Y0028550D01*
X0088345Y0028550D01*
X0086843Y0030802D02*
X0085342Y0030802D01*
X0083741Y0030802D02*
X0082990Y0030051D01*
X0080738Y0030051D01*
X0080738Y0028550D02*
X0080738Y0033054D01*
X0082990Y0033054D01*
X0083741Y0032303D01*
X0083741Y0030802D01*
X0082239Y0030051D02*
X0083741Y0028550D01*
X0083741Y0025054D02*
X0080738Y0025054D01*
X0080738Y0020550D01*
X0083741Y0020550D01*
X0085342Y0020550D02*
X0087594Y0020550D01*
X0088345Y0021301D01*
X0088345Y0024303D01*
X0087594Y0025054D01*
X0085342Y0025054D01*
X0085342Y0020550D01*
X0082239Y0022802D02*
X0080738Y0022802D01*
X0079137Y0020550D02*
X0076134Y0020550D01*
X0076134Y0025054D01*
X0089946Y0023553D02*
X0091447Y0025054D01*
X0091447Y0020550D01*
X0089946Y0020550D02*
X0092949Y0020550D01*
X0039350Y0018606D02*
X0039350Y0017105D01*
X0038599Y0016354D01*
X0037098Y0017855D02*
X0037098Y0018606D01*
X0037849Y0019356D01*
X0038599Y0019356D01*
X0039350Y0018606D01*
X0037098Y0018606D02*
X0036347Y0019356D01*
X0035597Y0019356D01*
X0034846Y0018606D01*
X0034846Y0017105D01*
X0035597Y0016354D01*
X0034846Y0014753D02*
X0034846Y0013251D01*
X0034846Y0014002D02*
X0038599Y0014002D01*
X0039350Y0013251D01*
X0039350Y0012501D01*
X0038599Y0011750D01*
X0038599Y0031750D02*
X0039350Y0032501D01*
X0039350Y0033251D01*
X0038599Y0034002D01*
X0034846Y0034002D01*
X0034846Y0033251D02*
X0034846Y0034753D01*
X0036347Y0036354D02*
X0034846Y0037855D01*
X0039350Y0037855D01*
X0039350Y0036354D02*
X0039350Y0039356D01*
X0266134Y0015054D02*
X0266134Y0010550D01*
X0269137Y0010550D01*
X0270738Y0010550D02*
X0273741Y0010550D01*
X0275342Y0010550D02*
X0275342Y0015054D01*
X0277594Y0015054D01*
X0278345Y0014303D01*
X0278345Y0011301D01*
X0277594Y0010550D01*
X0275342Y0010550D01*
X0272239Y0012802D02*
X0270738Y0012802D01*
X0270738Y0015054D02*
X0270738Y0010550D01*
X0270738Y0015054D02*
X0273741Y0015054D01*
X0273741Y0018550D02*
X0272239Y0020051D01*
X0272990Y0020051D02*
X0270738Y0020051D01*
X0270738Y0018550D02*
X0270738Y0023054D01*
X0272990Y0023054D01*
X0273741Y0022303D01*
X0273741Y0020802D01*
X0272990Y0020051D01*
X0275342Y0020802D02*
X0276843Y0020802D01*
X0275342Y0023054D02*
X0275342Y0018550D01*
X0278345Y0018550D01*
X0279946Y0018550D02*
X0279946Y0023054D01*
X0282198Y0023054D01*
X0282949Y0022303D01*
X0282949Y0019301D01*
X0282198Y0018550D01*
X0279946Y0018550D01*
X0280697Y0015054D02*
X0279946Y0014303D01*
X0280697Y0015054D02*
X0282198Y0015054D01*
X0282949Y0014303D01*
X0282949Y0013553D01*
X0279946Y0010550D01*
X0282949Y0010550D01*
X0278345Y0023054D02*
X0275342Y0023054D01*
X0279846Y0033251D02*
X0279846Y0034753D01*
X0279846Y0034002D02*
X0283599Y0034002D01*
X0284350Y0033251D01*
X0284350Y0032501D01*
X0283599Y0031750D01*
X0282098Y0036354D02*
X0282098Y0039356D01*
X0279846Y0038606D02*
X0282098Y0036354D01*
X0284350Y0038606D02*
X0279846Y0038606D01*
D16*
X0046800Y0036800D03*
X0046800Y0046800D03*
X0046800Y0056800D03*
X0046800Y0066800D03*
X0046800Y0076800D03*
X0046800Y0086800D03*
X0046800Y0096800D03*
X0046800Y0106800D03*
D17*
X0106285Y0030786D02*
X0106383Y0030672D01*
X0106479Y0030556D01*
X0106571Y0030438D01*
X0106661Y0030317D01*
X0106748Y0030194D01*
X0106831Y0030069D01*
X0106911Y0029942D01*
X0106989Y0029813D01*
X0107062Y0029682D01*
X0107133Y0029550D01*
X0107200Y0029415D01*
X0107264Y0029279D01*
X0107324Y0029141D01*
X0107381Y0029002D01*
X0107435Y0028862D01*
X0107485Y0028720D01*
X0107531Y0028577D01*
X0107574Y0028433D01*
X0107613Y0028287D01*
X0107648Y0028141D01*
X0107680Y0027994D01*
X0107708Y0027847D01*
X0107732Y0027698D01*
X0107753Y0027549D01*
X0107770Y0027400D01*
X0107783Y0027250D01*
X0107792Y0027100D01*
X0107798Y0026950D01*
X0107800Y0026800D01*
X0101800Y0020800D02*
X0101646Y0020802D01*
X0101492Y0020808D01*
X0101338Y0020818D01*
X0101184Y0020832D01*
X0101031Y0020849D01*
X0100879Y0020871D01*
X0100727Y0020897D01*
X0100575Y0020926D01*
X0100425Y0020960D01*
X0100275Y0020997D01*
X0100127Y0021038D01*
X0099979Y0021083D01*
X0099833Y0021132D01*
X0099688Y0021184D01*
X0099545Y0021240D01*
X0099402Y0021300D01*
X0099262Y0021363D01*
X0099123Y0021430D01*
X0098986Y0021501D01*
X0098851Y0021575D01*
X0098718Y0021652D01*
X0098586Y0021733D01*
X0098457Y0021817D01*
X0098330Y0021905D01*
X0098206Y0021996D01*
X0098084Y0022089D01*
X0097964Y0022187D01*
X0097847Y0022287D01*
X0097732Y0022390D01*
X0097620Y0022496D01*
X0097511Y0022604D01*
X0097405Y0022716D01*
X0097301Y0022830D01*
X0097201Y0022947D01*
X0097103Y0023066D01*
X0097009Y0023188D01*
X0096918Y0023313D01*
X0101800Y0032800D02*
X0101952Y0032798D01*
X0102103Y0032792D01*
X0102254Y0032783D01*
X0102406Y0032769D01*
X0102556Y0032752D01*
X0102706Y0032731D01*
X0102856Y0032706D01*
X0103005Y0032678D01*
X0103153Y0032645D01*
X0103300Y0032609D01*
X0103447Y0032570D01*
X0103592Y0032526D01*
X0103736Y0032479D01*
X0103879Y0032428D01*
X0104020Y0032374D01*
X0104161Y0032316D01*
X0104299Y0032255D01*
X0104436Y0032190D01*
X0104572Y0032121D01*
X0104705Y0032050D01*
X0104837Y0031975D01*
X0104967Y0031896D01*
X0105094Y0031815D01*
X0105220Y0031730D01*
X0105344Y0031642D01*
X0105465Y0031551D01*
X0105584Y0031457D01*
X0105700Y0031359D01*
X0105814Y0031259D01*
X0105926Y0031157D01*
X0106034Y0031051D01*
X0106140Y0030943D01*
X0106244Y0030832D01*
X0106344Y0030718D01*
X0106442Y0030602D01*
X0106536Y0030483D01*
X0095800Y0026800D02*
X0095802Y0026648D01*
X0095808Y0026496D01*
X0095817Y0026345D01*
X0095831Y0026194D01*
X0095848Y0026043D01*
X0095869Y0025892D01*
X0095894Y0025743D01*
X0095923Y0025593D01*
X0095955Y0025445D01*
X0095991Y0025298D01*
X0096031Y0025151D01*
X0096075Y0025006D01*
X0096122Y0024861D01*
X0096173Y0024718D01*
X0096227Y0024577D01*
X0096285Y0024436D01*
X0096347Y0024297D01*
X0096412Y0024160D01*
X0096480Y0024025D01*
X0096552Y0023891D01*
X0096628Y0023759D01*
X0096706Y0023629D01*
X0096788Y0023501D01*
X0096873Y0023376D01*
X0096961Y0023252D01*
X0097053Y0023131D01*
X0097147Y0023012D01*
X0097244Y0022895D01*
X0095800Y0026800D02*
X0095802Y0026954D01*
X0095808Y0027109D01*
X0095818Y0027263D01*
X0095832Y0027416D01*
X0095850Y0027570D01*
X0095871Y0027723D01*
X0095897Y0027875D01*
X0095927Y0028026D01*
X0095960Y0028177D01*
X0095998Y0028327D01*
X0096039Y0028476D01*
X0096084Y0028623D01*
X0096133Y0028770D01*
X0096185Y0028915D01*
X0096241Y0029059D01*
X0096301Y0029201D01*
X0096365Y0029342D01*
X0096432Y0029481D01*
X0096503Y0029618D01*
X0096577Y0029753D01*
X0096655Y0029887D01*
X0096736Y0030018D01*
X0096820Y0030147D01*
X0096908Y0030274D01*
X0096999Y0030399D01*
X0097093Y0030521D01*
X0097191Y0030641D01*
X0101800Y0020800D02*
X0101950Y0020802D01*
X0102101Y0020808D01*
X0102251Y0020817D01*
X0102400Y0020830D01*
X0102550Y0020847D01*
X0102699Y0020868D01*
X0102847Y0020892D01*
X0102995Y0020920D01*
X0103142Y0020952D01*
X0103288Y0020987D01*
X0103433Y0021027D01*
X0103577Y0021069D01*
X0103720Y0021116D01*
X0103862Y0021166D01*
X0104003Y0021219D01*
X0104142Y0021276D01*
X0104280Y0021336D01*
X0104416Y0021400D01*
X0104550Y0021467D01*
X0104683Y0021538D01*
X0104814Y0021612D01*
X0104943Y0021689D01*
X0105070Y0021770D01*
X0105195Y0021853D01*
X0105318Y0021940D01*
X0105439Y0022029D01*
X0105557Y0022122D01*
X0105673Y0022218D01*
X0105787Y0022316D01*
X0105898Y0022417D01*
X0106007Y0022522D01*
X0106112Y0022628D01*
X0106216Y0022738D01*
X0106316Y0022850D01*
X0106414Y0022964D01*
X0106508Y0023081D01*
X0106600Y0023200D01*
X0101800Y0032800D02*
X0101648Y0032798D01*
X0101497Y0032792D01*
X0101346Y0032783D01*
X0101194Y0032769D01*
X0101044Y0032752D01*
X0100894Y0032731D01*
X0100744Y0032706D01*
X0100595Y0032678D01*
X0100447Y0032645D01*
X0100300Y0032609D01*
X0100153Y0032570D01*
X0100008Y0032526D01*
X0099864Y0032479D01*
X0099721Y0032428D01*
X0099580Y0032374D01*
X0099439Y0032316D01*
X0099301Y0032255D01*
X0099164Y0032190D01*
X0099028Y0032121D01*
X0098895Y0032050D01*
X0098763Y0031975D01*
X0098633Y0031896D01*
X0098506Y0031815D01*
X0098380Y0031730D01*
X0098256Y0031642D01*
X0098135Y0031551D01*
X0098016Y0031457D01*
X0097900Y0031359D01*
X0097786Y0031259D01*
X0097674Y0031157D01*
X0097566Y0031051D01*
X0097460Y0030943D01*
X0097356Y0030832D01*
X0097256Y0030718D01*
X0097158Y0030602D01*
X0097064Y0030483D01*
X0107800Y0026800D02*
X0107798Y0026646D01*
X0107792Y0026491D01*
X0107782Y0026337D01*
X0107768Y0026184D01*
X0107750Y0026030D01*
X0107729Y0025877D01*
X0107703Y0025725D01*
X0107673Y0025574D01*
X0107640Y0025423D01*
X0107602Y0025273D01*
X0107561Y0025124D01*
X0107516Y0024977D01*
X0107467Y0024830D01*
X0107415Y0024685D01*
X0107359Y0024541D01*
X0107299Y0024399D01*
X0107235Y0024258D01*
X0107168Y0024119D01*
X0107097Y0023982D01*
X0107023Y0023847D01*
X0106945Y0023713D01*
X0106864Y0023582D01*
X0106780Y0023453D01*
X0106692Y0023326D01*
X0106601Y0023201D01*
X0106507Y0023079D01*
X0106409Y0022959D01*
X0101800Y0030800D02*
X0101674Y0030798D01*
X0101549Y0030792D01*
X0101424Y0030782D01*
X0101299Y0030768D01*
X0101174Y0030751D01*
X0101050Y0030729D01*
X0100927Y0030704D01*
X0100805Y0030674D01*
X0100684Y0030641D01*
X0100564Y0030604D01*
X0100445Y0030564D01*
X0100328Y0030519D01*
X0100211Y0030471D01*
X0100097Y0030419D01*
X0099984Y0030364D01*
X0099873Y0030305D01*
X0099764Y0030243D01*
X0099657Y0030177D01*
X0099552Y0030108D01*
X0099449Y0030036D01*
X0099348Y0029961D01*
X0099250Y0029882D01*
X0099155Y0029800D01*
X0099062Y0029716D01*
X0098972Y0029628D01*
X0098884Y0029538D01*
X0098800Y0029445D01*
X0098718Y0029350D01*
X0098639Y0029252D01*
X0098564Y0029151D01*
X0098492Y0029048D01*
X0098423Y0028943D01*
X0098357Y0028836D01*
X0098295Y0028727D01*
X0098236Y0028616D01*
X0098181Y0028503D01*
X0098129Y0028389D01*
X0098081Y0028272D01*
X0098036Y0028155D01*
X0097996Y0028036D01*
X0097959Y0027916D01*
X0097926Y0027795D01*
X0097896Y0027673D01*
X0097871Y0027550D01*
X0097849Y0027426D01*
X0097832Y0027301D01*
X0097818Y0027176D01*
X0097808Y0027051D01*
X0097802Y0026926D01*
X0097800Y0026800D01*
X0099300Y0026800D02*
X0099302Y0026898D01*
X0099308Y0026996D01*
X0099317Y0027094D01*
X0099331Y0027191D01*
X0099348Y0027288D01*
X0099369Y0027384D01*
X0099394Y0027479D01*
X0099422Y0027573D01*
X0099455Y0027665D01*
X0099490Y0027757D01*
X0099530Y0027847D01*
X0099572Y0027935D01*
X0099619Y0028022D01*
X0099668Y0028106D01*
X0099721Y0028189D01*
X0099777Y0028269D01*
X0099837Y0028348D01*
X0099899Y0028424D01*
X0099964Y0028497D01*
X0100032Y0028568D01*
X0100103Y0028636D01*
X0100176Y0028701D01*
X0100252Y0028763D01*
X0100331Y0028823D01*
X0100411Y0028879D01*
X0100494Y0028932D01*
X0100578Y0028981D01*
X0100665Y0029028D01*
X0100753Y0029070D01*
X0100843Y0029110D01*
X0100935Y0029145D01*
X0101027Y0029178D01*
X0101121Y0029206D01*
X0101216Y0029231D01*
X0101312Y0029252D01*
X0101409Y0029269D01*
X0101506Y0029283D01*
X0101604Y0029292D01*
X0101702Y0029298D01*
X0101800Y0029300D01*
X0105800Y0026800D02*
X0105798Y0026674D01*
X0105792Y0026549D01*
X0105782Y0026424D01*
X0105768Y0026299D01*
X0105751Y0026174D01*
X0105729Y0026050D01*
X0105704Y0025927D01*
X0105674Y0025805D01*
X0105641Y0025684D01*
X0105604Y0025564D01*
X0105564Y0025445D01*
X0105519Y0025328D01*
X0105471Y0025211D01*
X0105419Y0025097D01*
X0105364Y0024984D01*
X0105305Y0024873D01*
X0105243Y0024764D01*
X0105177Y0024657D01*
X0105108Y0024552D01*
X0105036Y0024449D01*
X0104961Y0024348D01*
X0104882Y0024250D01*
X0104800Y0024155D01*
X0104716Y0024062D01*
X0104628Y0023972D01*
X0104538Y0023884D01*
X0104445Y0023800D01*
X0104350Y0023718D01*
X0104252Y0023639D01*
X0104151Y0023564D01*
X0104048Y0023492D01*
X0103943Y0023423D01*
X0103836Y0023357D01*
X0103727Y0023295D01*
X0103616Y0023236D01*
X0103503Y0023181D01*
X0103389Y0023129D01*
X0103272Y0023081D01*
X0103155Y0023036D01*
X0103036Y0022996D01*
X0102916Y0022959D01*
X0102795Y0022926D01*
X0102673Y0022896D01*
X0102550Y0022871D01*
X0102426Y0022849D01*
X0102301Y0022832D01*
X0102176Y0022818D01*
X0102051Y0022808D01*
X0101926Y0022802D01*
X0101800Y0022800D01*
X0101800Y0024300D02*
X0101898Y0024302D01*
X0101996Y0024308D01*
X0102094Y0024317D01*
X0102191Y0024331D01*
X0102288Y0024348D01*
X0102384Y0024369D01*
X0102479Y0024394D01*
X0102573Y0024422D01*
X0102665Y0024455D01*
X0102757Y0024490D01*
X0102847Y0024530D01*
X0102935Y0024572D01*
X0103022Y0024619D01*
X0103106Y0024668D01*
X0103189Y0024721D01*
X0103269Y0024777D01*
X0103348Y0024837D01*
X0103424Y0024899D01*
X0103497Y0024964D01*
X0103568Y0025032D01*
X0103636Y0025103D01*
X0103701Y0025176D01*
X0103763Y0025252D01*
X0103823Y0025331D01*
X0103879Y0025411D01*
X0103932Y0025494D01*
X0103981Y0025578D01*
X0104028Y0025665D01*
X0104070Y0025753D01*
X0104110Y0025843D01*
X0104145Y0025935D01*
X0104178Y0026027D01*
X0104206Y0026121D01*
X0104231Y0026216D01*
X0104252Y0026312D01*
X0104269Y0026409D01*
X0104283Y0026506D01*
X0104292Y0026604D01*
X0104298Y0026702D01*
X0104300Y0026800D01*
X0121800Y0030300D02*
X0121800Y0037800D01*
X0121926Y0037802D01*
X0122051Y0037808D01*
X0122176Y0037818D01*
X0122301Y0037832D01*
X0122426Y0037849D01*
X0122550Y0037871D01*
X0122673Y0037896D01*
X0122795Y0037926D01*
X0122916Y0037959D01*
X0123036Y0037996D01*
X0123155Y0038036D01*
X0123272Y0038081D01*
X0123389Y0038129D01*
X0123503Y0038181D01*
X0123616Y0038236D01*
X0123727Y0038295D01*
X0123836Y0038357D01*
X0123943Y0038423D01*
X0124048Y0038492D01*
X0124151Y0038564D01*
X0124252Y0038639D01*
X0124350Y0038718D01*
X0124445Y0038800D01*
X0124538Y0038884D01*
X0124628Y0038972D01*
X0124716Y0039062D01*
X0124800Y0039155D01*
X0124882Y0039250D01*
X0124961Y0039348D01*
X0125036Y0039449D01*
X0125108Y0039552D01*
X0125177Y0039657D01*
X0125243Y0039764D01*
X0125305Y0039873D01*
X0125364Y0039984D01*
X0125419Y0040097D01*
X0125471Y0040211D01*
X0125519Y0040328D01*
X0125564Y0040445D01*
X0125604Y0040564D01*
X0125641Y0040684D01*
X0125674Y0040805D01*
X0125704Y0040927D01*
X0125729Y0041050D01*
X0125751Y0041174D01*
X0125768Y0041299D01*
X0125782Y0041424D01*
X0125792Y0041549D01*
X0125798Y0041674D01*
X0125800Y0041800D01*
X0125798Y0041926D01*
X0125792Y0042051D01*
X0125782Y0042176D01*
X0125768Y0042301D01*
X0125751Y0042426D01*
X0125729Y0042550D01*
X0125704Y0042673D01*
X0125674Y0042795D01*
X0125641Y0042916D01*
X0125604Y0043036D01*
X0125564Y0043155D01*
X0125519Y0043272D01*
X0125471Y0043389D01*
X0125419Y0043503D01*
X0125364Y0043616D01*
X0125305Y0043727D01*
X0125243Y0043836D01*
X0125177Y0043943D01*
X0125108Y0044048D01*
X0125036Y0044151D01*
X0124961Y0044252D01*
X0124882Y0044350D01*
X0124800Y0044445D01*
X0124716Y0044538D01*
X0124628Y0044628D01*
X0124538Y0044716D01*
X0124445Y0044800D01*
X0124350Y0044882D01*
X0124252Y0044961D01*
X0124151Y0045036D01*
X0124048Y0045108D01*
X0123943Y0045177D01*
X0123836Y0045243D01*
X0123727Y0045305D01*
X0123616Y0045364D01*
X0123503Y0045419D01*
X0123389Y0045471D01*
X0123272Y0045519D01*
X0123155Y0045564D01*
X0123036Y0045604D01*
X0122916Y0045641D01*
X0122795Y0045674D01*
X0122673Y0045704D01*
X0122550Y0045729D01*
X0122426Y0045751D01*
X0122301Y0045768D01*
X0122176Y0045782D01*
X0122051Y0045792D01*
X0121926Y0045798D01*
X0121800Y0045800D01*
X0121800Y0053300D01*
X0191800Y0053300D01*
X0191800Y0030300D01*
X0121800Y0030300D01*
X0127800Y0072800D02*
X0131800Y0072800D01*
X0131800Y0076300D01*
X0161800Y0076300D01*
X0161800Y0072800D01*
X0165800Y0072800D01*
X0165800Y0110700D01*
X0127800Y0110700D01*
X0127800Y0072800D01*
X0160800Y0091800D02*
X0160796Y0092137D01*
X0160784Y0092474D01*
X0160764Y0092810D01*
X0160735Y0093146D01*
X0160699Y0093481D01*
X0160654Y0093815D01*
X0160602Y0094147D01*
X0160541Y0094479D01*
X0160473Y0094809D01*
X0160396Y0095137D01*
X0160312Y0095463D01*
X0160220Y0095787D01*
X0160120Y0096109D01*
X0160013Y0096429D01*
X0159898Y0096745D01*
X0159775Y0097059D01*
X0159644Y0097370D01*
X0159507Y0097677D01*
X0159361Y0097981D01*
X0159209Y0098282D01*
X0159050Y0098579D01*
X0158883Y0098871D01*
X0158709Y0099160D01*
X0158529Y0099445D01*
X0158341Y0099725D01*
X0158147Y0100000D01*
X0157946Y0100271D01*
X0157739Y0100537D01*
X0157526Y0100797D01*
X0157306Y0101053D01*
X0157081Y0101303D01*
X0156849Y0101548D01*
X0156611Y0101787D01*
X0156368Y0102020D01*
X0156120Y0102247D01*
X0155865Y0102469D01*
X0155606Y0102684D01*
X0155342Y0102892D01*
X0155072Y0103095D01*
X0154798Y0103291D01*
X0154519Y0103480D01*
X0154236Y0103662D01*
X0153948Y0103838D01*
X0153656Y0104006D01*
X0153361Y0104168D01*
X0153061Y0104322D01*
X0134644Y0098746D02*
X0134479Y0098448D01*
X0134321Y0098147D01*
X0134171Y0097842D01*
X0134028Y0097533D01*
X0133892Y0097221D01*
X0133764Y0096906D01*
X0133644Y0096588D01*
X0133532Y0096267D01*
X0133427Y0095943D01*
X0133330Y0095617D01*
X0133242Y0095288D01*
X0133161Y0094958D01*
X0133088Y0094625D01*
X0133023Y0094291D01*
X0132967Y0093956D01*
X0132919Y0093619D01*
X0132879Y0093281D01*
X0132847Y0092943D01*
X0132823Y0092603D01*
X0132808Y0092263D01*
X0132801Y0091923D01*
X0132802Y0091583D01*
X0132811Y0091243D01*
X0132829Y0090903D01*
X0132855Y0090564D01*
X0132889Y0090225D01*
X0132931Y0089888D01*
X0132982Y0089551D01*
X0133040Y0089216D01*
X0133107Y0088883D01*
X0133182Y0088551D01*
X0133265Y0088221D01*
X0133356Y0087893D01*
X0133455Y0087568D01*
X0133562Y0087245D01*
X0133676Y0086924D01*
X0133799Y0086607D01*
X0133929Y0086292D01*
X0134066Y0085981D01*
X0134212Y0085674D01*
X0134364Y0085369D01*
X0134524Y0085069D01*
X0134691Y0084773D01*
X0134866Y0084481D01*
X0135047Y0084193D01*
X0135235Y0083910D01*
X0135430Y0083631D01*
X0135632Y0083357D01*
X0135841Y0083088D01*
X0136056Y0082824D01*
X0136277Y0082566D01*
X0136504Y0082313D01*
X0136738Y0082066D01*
X0136978Y0081824D01*
X0137223Y0081588D01*
X0137474Y0081359D01*
X0137730Y0081135D01*
X0137992Y0080918D01*
X0138259Y0080707D01*
X0138531Y0080503D01*
X0138808Y0080305D01*
X0139090Y0080114D01*
X0139376Y0079931D01*
X0139667Y0079754D01*
X0139961Y0079584D01*
X0140260Y0079421D01*
X0140563Y0079266D01*
X0140869Y0079118D01*
X0141179Y0078978D01*
X0141493Y0078845D01*
X0141809Y0078720D01*
X0142128Y0078602D01*
X0142450Y0078493D01*
X0142775Y0078391D01*
X0143102Y0078297D01*
X0143431Y0078211D01*
X0143762Y0078134D01*
X0144095Y0078064D01*
X0144430Y0078002D01*
X0144766Y0077949D01*
X0145103Y0077903D01*
X0145441Y0077866D01*
X0145780Y0077837D01*
X0146120Y0077817D01*
X0146460Y0077804D01*
X0146800Y0077800D01*
X0154100Y0103746D02*
X0153813Y0103917D01*
X0153522Y0104081D01*
X0153227Y0104237D01*
X0152929Y0104387D01*
X0152627Y0104530D01*
X0152322Y0104665D01*
X0152013Y0104793D01*
X0151702Y0104914D01*
X0151388Y0105027D01*
X0151071Y0105133D01*
X0150752Y0105231D01*
X0150431Y0105321D01*
X0150107Y0105404D01*
X0149782Y0105479D01*
X0149455Y0105546D01*
X0149126Y0105605D01*
X0148796Y0105657D01*
X0148465Y0105701D01*
X0148133Y0105736D01*
X0147801Y0105764D01*
X0147467Y0105784D01*
X0147134Y0105796D01*
X0146800Y0105800D01*
X0140132Y0104110D02*
X0139833Y0103944D01*
X0139539Y0103770D01*
X0139249Y0103589D01*
X0138963Y0103401D01*
X0138682Y0103206D01*
X0138406Y0103005D01*
X0138135Y0102796D01*
X0137869Y0102582D01*
X0137609Y0102360D01*
X0137354Y0102133D01*
X0137104Y0101899D01*
X0136861Y0101659D01*
X0136623Y0101414D01*
X0136391Y0101162D01*
X0136166Y0100905D01*
X0135946Y0100643D01*
X0135734Y0100375D01*
X0135528Y0100103D01*
X0135328Y0099825D01*
X0135136Y0099543D01*
X0134950Y0099255D01*
X0134772Y0098964D01*
X0134600Y0098668D01*
X0134436Y0098368D01*
X0134280Y0098064D01*
X0134131Y0097757D01*
X0133989Y0097446D01*
X0133855Y0097131D01*
X0133729Y0096814D01*
X0133610Y0096493D01*
X0133499Y0096170D01*
X0133397Y0095844D01*
X0133302Y0095515D01*
X0133215Y0095184D01*
X0133137Y0094852D01*
X0133066Y0094517D01*
X0133004Y0094181D01*
X0132950Y0093844D01*
X0132904Y0093505D01*
X0132867Y0093165D01*
X0132838Y0092824D01*
X0132817Y0092483D01*
X0132804Y0092142D01*
X0132800Y0091800D01*
X0146800Y0077800D02*
X0147140Y0077804D01*
X0147479Y0077816D01*
X0147818Y0077837D01*
X0148157Y0077866D01*
X0148494Y0077903D01*
X0148831Y0077948D01*
X0149167Y0078001D01*
X0149501Y0078063D01*
X0149833Y0078133D01*
X0150164Y0078210D01*
X0150493Y0078296D01*
X0150819Y0078389D01*
X0151144Y0078491D01*
X0151465Y0078600D01*
X0151784Y0078717D01*
X0152100Y0078842D01*
X0152413Y0078974D01*
X0152723Y0079114D01*
X0153029Y0079262D01*
X0153331Y0079417D01*
X0153630Y0079579D01*
X0153924Y0079748D01*
X0154214Y0079925D01*
X0154500Y0080108D01*
X0154782Y0080298D01*
X0155059Y0080495D01*
X0155330Y0080699D01*
X0155597Y0080909D01*
X0155859Y0081126D01*
X0156115Y0081349D01*
X0156366Y0081578D01*
X0156611Y0081813D01*
X0156851Y0082054D01*
X0157084Y0082301D01*
X0157312Y0082553D01*
X0157533Y0082811D01*
X0157748Y0083074D01*
X0157956Y0083342D01*
X0158158Y0083615D01*
X0158354Y0083893D01*
X0158542Y0084176D01*
X0158724Y0084463D01*
X0158898Y0084755D01*
X0159066Y0085050D01*
X0159226Y0085350D01*
X0159379Y0085653D01*
X0159524Y0085960D01*
X0159662Y0086271D01*
X0159792Y0086585D01*
X0159915Y0086901D01*
X0160030Y0087221D01*
X0160137Y0087543D01*
X0160237Y0087868D01*
X0160328Y0088195D01*
X0160411Y0088525D01*
X0160487Y0088856D01*
X0160554Y0089189D01*
X0160614Y0089523D01*
X0160665Y0089859D01*
X0160708Y0090196D01*
X0160743Y0090534D01*
X0160769Y0090873D01*
X0160788Y0091212D01*
X0160798Y0091552D01*
X0160800Y0091891D01*
X0160793Y0092231D01*
X0160779Y0092571D01*
X0160756Y0092909D01*
X0160725Y0093248D01*
X0160686Y0093585D01*
X0160638Y0093922D01*
X0160583Y0094257D01*
X0160519Y0094590D01*
X0160447Y0094923D01*
X0160368Y0095253D01*
X0160280Y0095581D01*
X0160184Y0095907D01*
X0160080Y0096230D01*
X0159969Y0096551D01*
X0159850Y0096870D01*
X0159723Y0097185D01*
X0159589Y0097497D01*
X0159447Y0097805D01*
X0159297Y0098110D01*
X0159140Y0098412D01*
X0158976Y0098709D01*
X0158805Y0099003D01*
X0146800Y0105800D02*
X0146471Y0105796D01*
X0146142Y0105785D01*
X0145814Y0105765D01*
X0145486Y0105738D01*
X0145159Y0105703D01*
X0144832Y0105661D01*
X0144507Y0105611D01*
X0144183Y0105553D01*
X0143861Y0105488D01*
X0143540Y0105415D01*
X0143221Y0105335D01*
X0142904Y0105247D01*
X0142589Y0105152D01*
X0142277Y0105049D01*
X0141967Y0104939D01*
X0141660Y0104822D01*
X0141355Y0104698D01*
X0141053Y0104566D01*
X0140755Y0104428D01*
X0140460Y0104282D01*
X0140169Y0104130D01*
X0139881Y0103971D01*
X0139597Y0103805D01*
X0177800Y0110700D02*
X0177800Y0072800D01*
X0181800Y0072800D01*
X0181800Y0076300D01*
X0211800Y0076300D01*
X0211800Y0072800D01*
X0215800Y0072800D01*
X0215800Y0110700D01*
X0177800Y0110700D01*
X0184644Y0098746D02*
X0184479Y0098448D01*
X0184321Y0098147D01*
X0184171Y0097842D01*
X0184028Y0097533D01*
X0183892Y0097221D01*
X0183764Y0096906D01*
X0183644Y0096588D01*
X0183532Y0096267D01*
X0183427Y0095943D01*
X0183330Y0095617D01*
X0183242Y0095288D01*
X0183161Y0094958D01*
X0183088Y0094625D01*
X0183023Y0094291D01*
X0182967Y0093956D01*
X0182919Y0093619D01*
X0182879Y0093281D01*
X0182847Y0092943D01*
X0182823Y0092603D01*
X0182808Y0092263D01*
X0182801Y0091923D01*
X0182802Y0091583D01*
X0182811Y0091243D01*
X0182829Y0090903D01*
X0182855Y0090564D01*
X0182889Y0090225D01*
X0182931Y0089888D01*
X0182982Y0089551D01*
X0183040Y0089216D01*
X0183107Y0088883D01*
X0183182Y0088551D01*
X0183265Y0088221D01*
X0183356Y0087893D01*
X0183455Y0087568D01*
X0183562Y0087245D01*
X0183676Y0086924D01*
X0183799Y0086607D01*
X0183929Y0086292D01*
X0184066Y0085981D01*
X0184212Y0085674D01*
X0184364Y0085369D01*
X0184524Y0085069D01*
X0184691Y0084773D01*
X0184866Y0084481D01*
X0185047Y0084193D01*
X0185235Y0083910D01*
X0185430Y0083631D01*
X0185632Y0083357D01*
X0185841Y0083088D01*
X0186056Y0082824D01*
X0186277Y0082566D01*
X0186504Y0082313D01*
X0186738Y0082066D01*
X0186978Y0081824D01*
X0187223Y0081588D01*
X0187474Y0081359D01*
X0187730Y0081135D01*
X0187992Y0080918D01*
X0188259Y0080707D01*
X0188531Y0080503D01*
X0188808Y0080305D01*
X0189090Y0080114D01*
X0189376Y0079931D01*
X0189667Y0079754D01*
X0189961Y0079584D01*
X0190260Y0079421D01*
X0190563Y0079266D01*
X0190869Y0079118D01*
X0191179Y0078978D01*
X0191493Y0078845D01*
X0191809Y0078720D01*
X0192128Y0078602D01*
X0192450Y0078493D01*
X0192775Y0078391D01*
X0193102Y0078297D01*
X0193431Y0078211D01*
X0193762Y0078134D01*
X0194095Y0078064D01*
X0194430Y0078002D01*
X0194766Y0077949D01*
X0195103Y0077903D01*
X0195441Y0077866D01*
X0195780Y0077837D01*
X0196120Y0077817D01*
X0196460Y0077804D01*
X0196800Y0077800D01*
X0204100Y0103746D02*
X0203813Y0103917D01*
X0203522Y0104081D01*
X0203227Y0104237D01*
X0202929Y0104387D01*
X0202627Y0104530D01*
X0202322Y0104665D01*
X0202013Y0104793D01*
X0201702Y0104914D01*
X0201388Y0105027D01*
X0201071Y0105133D01*
X0200752Y0105231D01*
X0200431Y0105321D01*
X0200107Y0105404D01*
X0199782Y0105479D01*
X0199455Y0105546D01*
X0199126Y0105605D01*
X0198796Y0105657D01*
X0198465Y0105701D01*
X0198133Y0105736D01*
X0197801Y0105764D01*
X0197467Y0105784D01*
X0197134Y0105796D01*
X0196800Y0105800D01*
X0190132Y0104110D02*
X0189833Y0103944D01*
X0189539Y0103770D01*
X0189249Y0103589D01*
X0188963Y0103401D01*
X0188682Y0103206D01*
X0188406Y0103005D01*
X0188135Y0102796D01*
X0187869Y0102582D01*
X0187609Y0102360D01*
X0187354Y0102133D01*
X0187104Y0101899D01*
X0186861Y0101659D01*
X0186623Y0101414D01*
X0186391Y0101162D01*
X0186166Y0100905D01*
X0185946Y0100643D01*
X0185734Y0100375D01*
X0185528Y0100103D01*
X0185328Y0099825D01*
X0185136Y0099543D01*
X0184950Y0099255D01*
X0184772Y0098964D01*
X0184600Y0098668D01*
X0184436Y0098368D01*
X0184280Y0098064D01*
X0184131Y0097757D01*
X0183989Y0097446D01*
X0183855Y0097131D01*
X0183729Y0096814D01*
X0183610Y0096493D01*
X0183499Y0096170D01*
X0183397Y0095844D01*
X0183302Y0095515D01*
X0183215Y0095184D01*
X0183137Y0094852D01*
X0183066Y0094517D01*
X0183004Y0094181D01*
X0182950Y0093844D01*
X0182904Y0093505D01*
X0182867Y0093165D01*
X0182838Y0092824D01*
X0182817Y0092483D01*
X0182804Y0092142D01*
X0182800Y0091800D01*
X0203061Y0104322D02*
X0203361Y0104168D01*
X0203656Y0104006D01*
X0203948Y0103838D01*
X0204236Y0103662D01*
X0204519Y0103480D01*
X0204798Y0103291D01*
X0205072Y0103095D01*
X0205342Y0102892D01*
X0205606Y0102684D01*
X0205865Y0102469D01*
X0206120Y0102247D01*
X0206368Y0102020D01*
X0206611Y0101787D01*
X0206849Y0101548D01*
X0207081Y0101303D01*
X0207306Y0101053D01*
X0207526Y0100797D01*
X0207739Y0100537D01*
X0207946Y0100271D01*
X0208147Y0100000D01*
X0208341Y0099725D01*
X0208529Y0099445D01*
X0208709Y0099160D01*
X0208883Y0098871D01*
X0209050Y0098579D01*
X0209209Y0098282D01*
X0209361Y0097981D01*
X0209507Y0097677D01*
X0209644Y0097370D01*
X0209775Y0097059D01*
X0209898Y0096745D01*
X0210013Y0096429D01*
X0210120Y0096109D01*
X0210220Y0095787D01*
X0210312Y0095463D01*
X0210396Y0095137D01*
X0210473Y0094809D01*
X0210541Y0094479D01*
X0210602Y0094147D01*
X0210654Y0093815D01*
X0210699Y0093481D01*
X0210735Y0093146D01*
X0210764Y0092810D01*
X0210784Y0092474D01*
X0210796Y0092137D01*
X0210800Y0091800D01*
X0196800Y0105800D02*
X0196471Y0105796D01*
X0196142Y0105785D01*
X0195814Y0105765D01*
X0195486Y0105738D01*
X0195159Y0105703D01*
X0194832Y0105661D01*
X0194507Y0105611D01*
X0194183Y0105553D01*
X0193861Y0105488D01*
X0193540Y0105415D01*
X0193221Y0105335D01*
X0192904Y0105247D01*
X0192589Y0105152D01*
X0192277Y0105049D01*
X0191967Y0104939D01*
X0191660Y0104822D01*
X0191355Y0104698D01*
X0191053Y0104566D01*
X0190755Y0104428D01*
X0190460Y0104282D01*
X0190169Y0104130D01*
X0189881Y0103971D01*
X0189597Y0103805D01*
X0208805Y0099003D02*
X0208976Y0098709D01*
X0209140Y0098412D01*
X0209297Y0098110D01*
X0209447Y0097805D01*
X0209589Y0097497D01*
X0209723Y0097185D01*
X0209850Y0096870D01*
X0209969Y0096551D01*
X0210080Y0096230D01*
X0210184Y0095907D01*
X0210280Y0095581D01*
X0210368Y0095253D01*
X0210447Y0094923D01*
X0210519Y0094590D01*
X0210583Y0094257D01*
X0210638Y0093922D01*
X0210686Y0093585D01*
X0210725Y0093248D01*
X0210756Y0092909D01*
X0210779Y0092571D01*
X0210793Y0092231D01*
X0210800Y0091891D01*
X0210798Y0091552D01*
X0210788Y0091212D01*
X0210769Y0090873D01*
X0210743Y0090534D01*
X0210708Y0090196D01*
X0210665Y0089859D01*
X0210614Y0089523D01*
X0210554Y0089189D01*
X0210487Y0088856D01*
X0210411Y0088525D01*
X0210328Y0088195D01*
X0210237Y0087868D01*
X0210137Y0087543D01*
X0210030Y0087221D01*
X0209915Y0086901D01*
X0209792Y0086585D01*
X0209662Y0086271D01*
X0209524Y0085960D01*
X0209379Y0085653D01*
X0209226Y0085350D01*
X0209066Y0085050D01*
X0208898Y0084755D01*
X0208724Y0084463D01*
X0208542Y0084176D01*
X0208354Y0083893D01*
X0208158Y0083615D01*
X0207956Y0083342D01*
X0207748Y0083074D01*
X0207533Y0082811D01*
X0207312Y0082553D01*
X0207084Y0082301D01*
X0206851Y0082054D01*
X0206611Y0081813D01*
X0206366Y0081578D01*
X0206115Y0081349D01*
X0205859Y0081126D01*
X0205597Y0080909D01*
X0205330Y0080699D01*
X0205059Y0080495D01*
X0204782Y0080298D01*
X0204500Y0080108D01*
X0204214Y0079925D01*
X0203924Y0079748D01*
X0203630Y0079579D01*
X0203331Y0079417D01*
X0203029Y0079262D01*
X0202723Y0079114D01*
X0202413Y0078974D01*
X0202100Y0078842D01*
X0201784Y0078717D01*
X0201465Y0078600D01*
X0201144Y0078491D01*
X0200819Y0078389D01*
X0200493Y0078296D01*
X0200164Y0078210D01*
X0199833Y0078133D01*
X0199501Y0078063D01*
X0199167Y0078001D01*
X0198831Y0077948D01*
X0198494Y0077903D01*
X0198157Y0077866D01*
X0197818Y0077837D01*
X0197479Y0077816D01*
X0197140Y0077804D01*
X0196800Y0077800D01*
X0296285Y0020786D02*
X0296383Y0020672D01*
X0296479Y0020556D01*
X0296571Y0020438D01*
X0296661Y0020317D01*
X0296748Y0020194D01*
X0296831Y0020069D01*
X0296911Y0019942D01*
X0296989Y0019813D01*
X0297062Y0019682D01*
X0297133Y0019550D01*
X0297200Y0019415D01*
X0297264Y0019279D01*
X0297324Y0019141D01*
X0297381Y0019002D01*
X0297435Y0018862D01*
X0297485Y0018720D01*
X0297531Y0018577D01*
X0297574Y0018433D01*
X0297613Y0018287D01*
X0297648Y0018141D01*
X0297680Y0017994D01*
X0297708Y0017847D01*
X0297732Y0017698D01*
X0297753Y0017549D01*
X0297770Y0017400D01*
X0297783Y0017250D01*
X0297792Y0017100D01*
X0297798Y0016950D01*
X0297800Y0016800D01*
X0291800Y0010800D02*
X0291646Y0010802D01*
X0291492Y0010808D01*
X0291338Y0010818D01*
X0291184Y0010832D01*
X0291031Y0010849D01*
X0290879Y0010871D01*
X0290727Y0010897D01*
X0290575Y0010926D01*
X0290425Y0010960D01*
X0290275Y0010997D01*
X0290127Y0011038D01*
X0289979Y0011083D01*
X0289833Y0011132D01*
X0289688Y0011184D01*
X0289545Y0011240D01*
X0289402Y0011300D01*
X0289262Y0011363D01*
X0289123Y0011430D01*
X0288986Y0011501D01*
X0288851Y0011575D01*
X0288718Y0011652D01*
X0288586Y0011733D01*
X0288457Y0011817D01*
X0288330Y0011905D01*
X0288206Y0011996D01*
X0288084Y0012089D01*
X0287964Y0012187D01*
X0287847Y0012287D01*
X0287732Y0012390D01*
X0287620Y0012496D01*
X0287511Y0012604D01*
X0287405Y0012716D01*
X0287301Y0012830D01*
X0287201Y0012947D01*
X0287103Y0013066D01*
X0287009Y0013188D01*
X0286918Y0013313D01*
X0291800Y0022800D02*
X0291952Y0022798D01*
X0292103Y0022792D01*
X0292254Y0022783D01*
X0292406Y0022769D01*
X0292556Y0022752D01*
X0292706Y0022731D01*
X0292856Y0022706D01*
X0293005Y0022678D01*
X0293153Y0022645D01*
X0293300Y0022609D01*
X0293447Y0022570D01*
X0293592Y0022526D01*
X0293736Y0022479D01*
X0293879Y0022428D01*
X0294020Y0022374D01*
X0294161Y0022316D01*
X0294299Y0022255D01*
X0294436Y0022190D01*
X0294572Y0022121D01*
X0294705Y0022050D01*
X0294837Y0021975D01*
X0294967Y0021896D01*
X0295094Y0021815D01*
X0295220Y0021730D01*
X0295344Y0021642D01*
X0295465Y0021551D01*
X0295584Y0021457D01*
X0295700Y0021359D01*
X0295814Y0021259D01*
X0295926Y0021157D01*
X0296034Y0021051D01*
X0296140Y0020943D01*
X0296244Y0020832D01*
X0296344Y0020718D01*
X0296442Y0020602D01*
X0296536Y0020483D01*
X0285800Y0016800D02*
X0285802Y0016648D01*
X0285808Y0016496D01*
X0285817Y0016345D01*
X0285831Y0016194D01*
X0285848Y0016043D01*
X0285869Y0015892D01*
X0285894Y0015743D01*
X0285923Y0015593D01*
X0285955Y0015445D01*
X0285991Y0015298D01*
X0286031Y0015151D01*
X0286075Y0015006D01*
X0286122Y0014861D01*
X0286173Y0014718D01*
X0286227Y0014577D01*
X0286285Y0014436D01*
X0286347Y0014297D01*
X0286412Y0014160D01*
X0286480Y0014025D01*
X0286552Y0013891D01*
X0286628Y0013759D01*
X0286706Y0013629D01*
X0286788Y0013501D01*
X0286873Y0013376D01*
X0286961Y0013252D01*
X0287053Y0013131D01*
X0287147Y0013012D01*
X0287244Y0012895D01*
X0285800Y0016800D02*
X0285802Y0016954D01*
X0285808Y0017109D01*
X0285818Y0017263D01*
X0285832Y0017416D01*
X0285850Y0017570D01*
X0285871Y0017723D01*
X0285897Y0017875D01*
X0285927Y0018026D01*
X0285960Y0018177D01*
X0285998Y0018327D01*
X0286039Y0018476D01*
X0286084Y0018623D01*
X0286133Y0018770D01*
X0286185Y0018915D01*
X0286241Y0019059D01*
X0286301Y0019201D01*
X0286365Y0019342D01*
X0286432Y0019481D01*
X0286503Y0019618D01*
X0286577Y0019753D01*
X0286655Y0019887D01*
X0286736Y0020018D01*
X0286820Y0020147D01*
X0286908Y0020274D01*
X0286999Y0020399D01*
X0287093Y0020521D01*
X0287191Y0020641D01*
X0291800Y0010800D02*
X0291950Y0010802D01*
X0292101Y0010808D01*
X0292251Y0010817D01*
X0292400Y0010830D01*
X0292550Y0010847D01*
X0292699Y0010868D01*
X0292847Y0010892D01*
X0292995Y0010920D01*
X0293142Y0010952D01*
X0293288Y0010987D01*
X0293433Y0011027D01*
X0293577Y0011069D01*
X0293720Y0011116D01*
X0293862Y0011166D01*
X0294003Y0011219D01*
X0294142Y0011276D01*
X0294280Y0011336D01*
X0294416Y0011400D01*
X0294550Y0011467D01*
X0294683Y0011538D01*
X0294814Y0011612D01*
X0294943Y0011689D01*
X0295070Y0011770D01*
X0295195Y0011853D01*
X0295318Y0011940D01*
X0295439Y0012029D01*
X0295557Y0012122D01*
X0295673Y0012218D01*
X0295787Y0012316D01*
X0295898Y0012417D01*
X0296007Y0012522D01*
X0296112Y0012628D01*
X0296216Y0012738D01*
X0296316Y0012850D01*
X0296414Y0012964D01*
X0296508Y0013081D01*
X0296600Y0013200D01*
X0291800Y0022800D02*
X0291648Y0022798D01*
X0291497Y0022792D01*
X0291346Y0022783D01*
X0291194Y0022769D01*
X0291044Y0022752D01*
X0290894Y0022731D01*
X0290744Y0022706D01*
X0290595Y0022678D01*
X0290447Y0022645D01*
X0290300Y0022609D01*
X0290153Y0022570D01*
X0290008Y0022526D01*
X0289864Y0022479D01*
X0289721Y0022428D01*
X0289580Y0022374D01*
X0289439Y0022316D01*
X0289301Y0022255D01*
X0289164Y0022190D01*
X0289028Y0022121D01*
X0288895Y0022050D01*
X0288763Y0021975D01*
X0288633Y0021896D01*
X0288506Y0021815D01*
X0288380Y0021730D01*
X0288256Y0021642D01*
X0288135Y0021551D01*
X0288016Y0021457D01*
X0287900Y0021359D01*
X0287786Y0021259D01*
X0287674Y0021157D01*
X0287566Y0021051D01*
X0287460Y0020943D01*
X0287356Y0020832D01*
X0287256Y0020718D01*
X0287158Y0020602D01*
X0287064Y0020483D01*
X0297800Y0016800D02*
X0297798Y0016646D01*
X0297792Y0016491D01*
X0297782Y0016337D01*
X0297768Y0016184D01*
X0297750Y0016030D01*
X0297729Y0015877D01*
X0297703Y0015725D01*
X0297673Y0015574D01*
X0297640Y0015423D01*
X0297602Y0015273D01*
X0297561Y0015124D01*
X0297516Y0014977D01*
X0297467Y0014830D01*
X0297415Y0014685D01*
X0297359Y0014541D01*
X0297299Y0014399D01*
X0297235Y0014258D01*
X0297168Y0014119D01*
X0297097Y0013982D01*
X0297023Y0013847D01*
X0296945Y0013713D01*
X0296864Y0013582D01*
X0296780Y0013453D01*
X0296692Y0013326D01*
X0296601Y0013201D01*
X0296507Y0013079D01*
X0296409Y0012959D01*
X0291800Y0020800D02*
X0291674Y0020798D01*
X0291549Y0020792D01*
X0291424Y0020782D01*
X0291299Y0020768D01*
X0291174Y0020751D01*
X0291050Y0020729D01*
X0290927Y0020704D01*
X0290805Y0020674D01*
X0290684Y0020641D01*
X0290564Y0020604D01*
X0290445Y0020564D01*
X0290328Y0020519D01*
X0290211Y0020471D01*
X0290097Y0020419D01*
X0289984Y0020364D01*
X0289873Y0020305D01*
X0289764Y0020243D01*
X0289657Y0020177D01*
X0289552Y0020108D01*
X0289449Y0020036D01*
X0289348Y0019961D01*
X0289250Y0019882D01*
X0289155Y0019800D01*
X0289062Y0019716D01*
X0288972Y0019628D01*
X0288884Y0019538D01*
X0288800Y0019445D01*
X0288718Y0019350D01*
X0288639Y0019252D01*
X0288564Y0019151D01*
X0288492Y0019048D01*
X0288423Y0018943D01*
X0288357Y0018836D01*
X0288295Y0018727D01*
X0288236Y0018616D01*
X0288181Y0018503D01*
X0288129Y0018389D01*
X0288081Y0018272D01*
X0288036Y0018155D01*
X0287996Y0018036D01*
X0287959Y0017916D01*
X0287926Y0017795D01*
X0287896Y0017673D01*
X0287871Y0017550D01*
X0287849Y0017426D01*
X0287832Y0017301D01*
X0287818Y0017176D01*
X0287808Y0017051D01*
X0287802Y0016926D01*
X0287800Y0016800D01*
X0289300Y0016800D02*
X0289302Y0016898D01*
X0289308Y0016996D01*
X0289317Y0017094D01*
X0289331Y0017191D01*
X0289348Y0017288D01*
X0289369Y0017384D01*
X0289394Y0017479D01*
X0289422Y0017573D01*
X0289455Y0017665D01*
X0289490Y0017757D01*
X0289530Y0017847D01*
X0289572Y0017935D01*
X0289619Y0018022D01*
X0289668Y0018106D01*
X0289721Y0018189D01*
X0289777Y0018269D01*
X0289837Y0018348D01*
X0289899Y0018424D01*
X0289964Y0018497D01*
X0290032Y0018568D01*
X0290103Y0018636D01*
X0290176Y0018701D01*
X0290252Y0018763D01*
X0290331Y0018823D01*
X0290411Y0018879D01*
X0290494Y0018932D01*
X0290578Y0018981D01*
X0290665Y0019028D01*
X0290753Y0019070D01*
X0290843Y0019110D01*
X0290935Y0019145D01*
X0291027Y0019178D01*
X0291121Y0019206D01*
X0291216Y0019231D01*
X0291312Y0019252D01*
X0291409Y0019269D01*
X0291506Y0019283D01*
X0291604Y0019292D01*
X0291702Y0019298D01*
X0291800Y0019300D01*
X0295800Y0016800D02*
X0295798Y0016674D01*
X0295792Y0016549D01*
X0295782Y0016424D01*
X0295768Y0016299D01*
X0295751Y0016174D01*
X0295729Y0016050D01*
X0295704Y0015927D01*
X0295674Y0015805D01*
X0295641Y0015684D01*
X0295604Y0015564D01*
X0295564Y0015445D01*
X0295519Y0015328D01*
X0295471Y0015211D01*
X0295419Y0015097D01*
X0295364Y0014984D01*
X0295305Y0014873D01*
X0295243Y0014764D01*
X0295177Y0014657D01*
X0295108Y0014552D01*
X0295036Y0014449D01*
X0294961Y0014348D01*
X0294882Y0014250D01*
X0294800Y0014155D01*
X0294716Y0014062D01*
X0294628Y0013972D01*
X0294538Y0013884D01*
X0294445Y0013800D01*
X0294350Y0013718D01*
X0294252Y0013639D01*
X0294151Y0013564D01*
X0294048Y0013492D01*
X0293943Y0013423D01*
X0293836Y0013357D01*
X0293727Y0013295D01*
X0293616Y0013236D01*
X0293503Y0013181D01*
X0293389Y0013129D01*
X0293272Y0013081D01*
X0293155Y0013036D01*
X0293036Y0012996D01*
X0292916Y0012959D01*
X0292795Y0012926D01*
X0292673Y0012896D01*
X0292550Y0012871D01*
X0292426Y0012849D01*
X0292301Y0012832D01*
X0292176Y0012818D01*
X0292051Y0012808D01*
X0291926Y0012802D01*
X0291800Y0012800D01*
X0291800Y0014300D02*
X0291898Y0014302D01*
X0291996Y0014308D01*
X0292094Y0014317D01*
X0292191Y0014331D01*
X0292288Y0014348D01*
X0292384Y0014369D01*
X0292479Y0014394D01*
X0292573Y0014422D01*
X0292665Y0014455D01*
X0292757Y0014490D01*
X0292847Y0014530D01*
X0292935Y0014572D01*
X0293022Y0014619D01*
X0293106Y0014668D01*
X0293189Y0014721D01*
X0293269Y0014777D01*
X0293348Y0014837D01*
X0293424Y0014899D01*
X0293497Y0014964D01*
X0293568Y0015032D01*
X0293636Y0015103D01*
X0293701Y0015176D01*
X0293763Y0015252D01*
X0293823Y0015331D01*
X0293879Y0015411D01*
X0293932Y0015494D01*
X0293981Y0015578D01*
X0294028Y0015665D01*
X0294070Y0015753D01*
X0294110Y0015843D01*
X0294145Y0015935D01*
X0294178Y0016027D01*
X0294206Y0016121D01*
X0294231Y0016216D01*
X0294252Y0016312D01*
X0294269Y0016409D01*
X0294283Y0016506D01*
X0294292Y0016604D01*
X0294298Y0016702D01*
X0294300Y0016800D01*
D18*
X0298746Y0020769D02*
X0298647Y0020938D01*
X0298543Y0021104D01*
X0298436Y0021268D01*
X0298325Y0021429D01*
X0298210Y0021587D01*
X0298091Y0021742D01*
X0297968Y0021895D01*
X0297842Y0022044D01*
X0297712Y0022190D01*
X0297578Y0022333D01*
X0297441Y0022473D01*
X0297301Y0022609D01*
X0297157Y0022742D01*
X0297010Y0022871D01*
X0296860Y0022997D01*
X0296707Y0023118D01*
X0296551Y0023237D01*
X0296392Y0023351D01*
X0296231Y0023461D01*
X0296066Y0023567D01*
X0295900Y0023670D01*
X0295730Y0023768D01*
X0295559Y0023862D01*
X0295385Y0023952D01*
X0295209Y0024037D01*
X0295031Y0024119D01*
X0294851Y0024195D01*
X0294669Y0024268D01*
X0294486Y0024336D01*
X0294301Y0024399D01*
X0294114Y0024458D01*
X0293926Y0024512D01*
X0293737Y0024562D01*
X0293547Y0024607D01*
X0293355Y0024647D01*
X0293163Y0024683D01*
X0292970Y0024714D01*
X0292776Y0024740D01*
X0292581Y0024762D01*
X0292386Y0024778D01*
X0292191Y0024790D01*
X0291995Y0024798D01*
X0291800Y0024800D01*
X0285600Y0021800D02*
X0285600Y0011800D01*
X0291800Y0008800D02*
X0291992Y0008802D01*
X0292184Y0008809D01*
X0292376Y0008821D01*
X0292568Y0008837D01*
X0292759Y0008858D01*
X0292949Y0008883D01*
X0293139Y0008913D01*
X0293328Y0008947D01*
X0293516Y0008986D01*
X0293703Y0009030D01*
X0293889Y0009078D01*
X0294074Y0009130D01*
X0294258Y0009187D01*
X0294440Y0009248D01*
X0294620Y0009314D01*
X0294799Y0009384D01*
X0294977Y0009458D01*
X0295152Y0009536D01*
X0295326Y0009619D01*
X0295497Y0009706D01*
X0295666Y0009796D01*
X0295833Y0009891D01*
X0295998Y0009990D01*
X0296161Y0010093D01*
X0296320Y0010200D01*
X0296478Y0010310D01*
X0296632Y0010424D01*
X0296784Y0010542D01*
X0296933Y0010664D01*
X0297079Y0010789D01*
X0297221Y0010917D01*
X0297361Y0011049D01*
X0297498Y0011184D01*
X0297631Y0011323D01*
X0297761Y0011464D01*
X0297887Y0011609D01*
X0298010Y0011757D01*
X0298129Y0011907D01*
X0298245Y0012061D01*
X0298357Y0012217D01*
X0298465Y0012376D01*
X0298570Y0012537D01*
X0298670Y0012701D01*
X0298766Y0012867D01*
X0298859Y0013035D01*
X0298844Y0013007D02*
X0298931Y0013174D01*
X0299014Y0013343D01*
X0299094Y0013513D01*
X0299169Y0013686D01*
X0299240Y0013860D01*
X0299307Y0014036D01*
X0299370Y0014213D01*
X0299429Y0014392D01*
X0299483Y0014572D01*
X0299534Y0014753D01*
X0299580Y0014936D01*
X0299621Y0015119D01*
X0299659Y0015303D01*
X0299692Y0015489D01*
X0299720Y0015675D01*
X0299745Y0015861D01*
X0299765Y0016048D01*
X0299780Y0016236D01*
X0299791Y0016424D01*
X0299798Y0016612D01*
X0299800Y0016800D01*
X0299798Y0016992D01*
X0299791Y0017183D01*
X0299779Y0017375D01*
X0299763Y0017566D01*
X0299743Y0017757D01*
X0299717Y0017947D01*
X0299688Y0018137D01*
X0299653Y0018325D01*
X0299614Y0018513D01*
X0299571Y0018700D01*
X0299523Y0018886D01*
X0299471Y0019071D01*
X0299414Y0019254D01*
X0299353Y0019436D01*
X0299288Y0019616D01*
X0299218Y0019795D01*
X0299144Y0019972D01*
X0299066Y0020147D01*
X0298984Y0020321D01*
X0298897Y0020492D01*
X0298807Y0020661D01*
X0298712Y0020828D01*
X0298613Y0020993D01*
X0291800Y0008800D02*
X0291605Y0008802D01*
X0291411Y0008809D01*
X0291217Y0008821D01*
X0291023Y0008838D01*
X0290829Y0008859D01*
X0290636Y0008885D01*
X0290444Y0008916D01*
X0290252Y0008951D01*
X0290062Y0008991D01*
X0289872Y0009036D01*
X0289684Y0009085D01*
X0289497Y0009139D01*
X0289311Y0009197D01*
X0289127Y0009260D01*
X0288944Y0009327D01*
X0288763Y0009399D01*
X0288584Y0009475D01*
X0288407Y0009555D01*
X0288232Y0009640D01*
X0288058Y0009729D01*
X0287888Y0009822D01*
X0287719Y0009919D01*
X0287553Y0010021D01*
X0287389Y0010126D01*
X0287228Y0010235D01*
X0287069Y0010348D01*
X0286914Y0010465D01*
X0286761Y0010586D01*
X0286612Y0010711D01*
X0286465Y0010839D01*
X0286321Y0010970D01*
X0286181Y0011105D01*
X0286044Y0011244D01*
X0285911Y0011385D01*
X0285781Y0011530D01*
X0285654Y0011678D01*
X0285693Y0021968D02*
X0285820Y0022114D01*
X0285949Y0022256D01*
X0286083Y0022396D01*
X0286219Y0022532D01*
X0286359Y0022665D01*
X0286502Y0022795D01*
X0286649Y0022921D01*
X0286798Y0023043D01*
X0286950Y0023162D01*
X0287105Y0023277D01*
X0287262Y0023389D01*
X0287422Y0023496D01*
X0287585Y0023600D01*
X0287751Y0023699D01*
X0287918Y0023795D01*
X0288088Y0023887D01*
X0288260Y0023974D01*
X0288434Y0024058D01*
X0288610Y0024137D01*
X0288788Y0024211D01*
X0288968Y0024282D01*
X0289149Y0024348D01*
X0289332Y0024410D01*
X0289516Y0024467D01*
X0289702Y0024520D01*
X0289889Y0024568D01*
X0290077Y0024612D01*
X0290266Y0024651D01*
X0290456Y0024686D01*
X0290646Y0024716D01*
X0290837Y0024742D01*
X0291029Y0024763D01*
X0291222Y0024779D01*
X0291414Y0024791D01*
X0291607Y0024798D01*
X0291800Y0024800D01*
X0211800Y0024300D02*
X0206800Y0024300D01*
X0206800Y0021800D01*
X0206800Y0024300D02*
X0201800Y0024300D01*
X0201800Y0029300D01*
X0211800Y0029300D01*
X0211800Y0049300D01*
X0206800Y0049300D01*
X0206800Y0051800D01*
X0206800Y0049300D02*
X0201800Y0049300D01*
X0201800Y0029300D01*
X0211800Y0029300D02*
X0211800Y0024300D01*
X0198000Y0085600D02*
X0195500Y0085600D01*
X0195500Y0094300D01*
X0195300Y0094300D01*
X0195300Y0095800D01*
X0195300Y0094300D02*
X0194300Y0094300D01*
X0196800Y0099300D01*
X0199300Y0094300D01*
X0198300Y0094300D01*
X0198300Y0095800D01*
X0198300Y0094300D02*
X0198000Y0094300D01*
X0197800Y0094300D01*
X0198000Y0094300D02*
X0198000Y0085600D01*
X0197300Y0085800D02*
X0197300Y0097800D01*
X0196300Y0097800D01*
X0196300Y0085800D01*
X0196800Y0085800D01*
X0196800Y0083300D02*
X0197007Y0083303D01*
X0197215Y0083310D01*
X0197422Y0083323D01*
X0197628Y0083340D01*
X0197834Y0083363D01*
X0198040Y0083391D01*
X0198245Y0083424D01*
X0198449Y0083461D01*
X0198652Y0083504D01*
X0198853Y0083552D01*
X0199054Y0083604D01*
X0199253Y0083662D01*
X0199451Y0083724D01*
X0199648Y0083791D01*
X0199842Y0083863D01*
X0200035Y0083940D01*
X0200226Y0084021D01*
X0200414Y0084107D01*
X0200601Y0084197D01*
X0196800Y0083300D02*
X0196596Y0083302D01*
X0196392Y0083310D01*
X0196188Y0083322D01*
X0195984Y0083339D01*
X0195781Y0083361D01*
X0195579Y0083388D01*
X0195377Y0083420D01*
X0195177Y0083456D01*
X0194977Y0083498D01*
X0194778Y0083544D01*
X0194580Y0083595D01*
X0194384Y0083651D01*
X0194189Y0083711D01*
X0193995Y0083776D01*
X0193803Y0083846D01*
X0193613Y0083920D01*
X0193425Y0083999D01*
X0193238Y0084082D01*
X0193815Y0083841D02*
X0193622Y0083916D01*
X0193430Y0083996D01*
X0193241Y0084081D01*
X0193054Y0084170D01*
X0192869Y0084264D01*
X0192686Y0084362D01*
X0192505Y0084465D01*
X0192328Y0084572D01*
X0192153Y0084683D01*
X0191980Y0084799D01*
X0191811Y0084918D01*
X0191644Y0085042D01*
X0191481Y0085170D01*
X0191321Y0085302D01*
X0191164Y0085437D01*
X0191010Y0085577D01*
X0190860Y0085720D01*
X0190713Y0085867D01*
X0190570Y0086017D01*
X0190431Y0086171D01*
X0190295Y0086328D01*
X0190164Y0086489D01*
X0190036Y0086652D01*
X0189913Y0086819D01*
X0189793Y0086988D01*
X0189678Y0087161D01*
X0189567Y0087336D01*
X0189460Y0087514D01*
X0189357Y0087694D01*
X0189259Y0087877D01*
X0189166Y0088062D01*
X0189077Y0088250D01*
X0188993Y0088439D01*
X0188913Y0088631D01*
X0188838Y0088824D01*
X0188768Y0089020D01*
X0188702Y0089217D01*
X0188641Y0089415D01*
X0188586Y0089615D01*
X0188535Y0089816D01*
X0188489Y0090018D01*
X0188448Y0090222D01*
X0188412Y0090426D01*
X0188381Y0090631D01*
X0188355Y0090837D01*
X0188334Y0091043D01*
X0188318Y0091250D01*
X0188307Y0091458D01*
X0188301Y0091665D01*
X0188300Y0091872D01*
X0188305Y0092080D01*
X0188314Y0092287D01*
X0188328Y0092494D01*
X0188348Y0092701D01*
X0188372Y0092907D01*
X0188402Y0093112D01*
X0188436Y0093317D01*
X0188476Y0093520D01*
X0188520Y0093723D01*
X0188570Y0093925D01*
X0188624Y0094125D01*
X0188683Y0094324D01*
X0188747Y0094521D01*
X0188816Y0094717D01*
X0188890Y0094911D01*
X0188968Y0095103D01*
X0189051Y0095293D01*
X0189138Y0095481D01*
X0189231Y0095667D01*
X0189327Y0095851D01*
X0189428Y0096032D01*
X0189534Y0096211D01*
X0189644Y0096387D01*
X0189758Y0096560D01*
X0189876Y0096730D01*
X0189998Y0096898D01*
X0190125Y0097062D01*
X0190255Y0097224D01*
X0190390Y0097382D01*
X0190528Y0097537D01*
X0190670Y0097688D01*
X0190815Y0097836D01*
X0190964Y0097980D01*
X0191117Y0098121D01*
X0191273Y0098258D01*
X0191432Y0098391D01*
X0191595Y0098520D01*
X0191760Y0098645D01*
X0191929Y0098766D01*
X0192100Y0098883D01*
X0192275Y0098995D01*
X0192451Y0099103D01*
X0192631Y0099207D01*
X0192813Y0099307D01*
X0192998Y0099402D01*
X0193184Y0099493D01*
X0193373Y0099579D01*
X0193564Y0099660D01*
X0193757Y0099737D01*
X0193951Y0099808D01*
X0194148Y0099876D01*
X0194346Y0099938D01*
X0194545Y0099995D01*
X0194746Y0100048D01*
X0194948Y0100096D01*
X0195151Y0100138D01*
X0195355Y0100176D01*
X0195560Y0100209D01*
X0195765Y0100237D01*
X0195971Y0100260D01*
X0196178Y0100277D01*
X0196385Y0100290D01*
X0196593Y0100297D01*
X0196800Y0100300D01*
X0195800Y0094300D02*
X0195500Y0094300D01*
X0196800Y0100300D02*
X0197007Y0100297D01*
X0197215Y0100290D01*
X0197422Y0100277D01*
X0197629Y0100260D01*
X0197835Y0100237D01*
X0198040Y0100209D01*
X0198245Y0100176D01*
X0198449Y0100138D01*
X0198652Y0100096D01*
X0198854Y0100048D01*
X0199055Y0099995D01*
X0199254Y0099938D01*
X0199452Y0099876D01*
X0199649Y0099808D01*
X0199843Y0099737D01*
X0200036Y0099660D01*
X0200227Y0099579D01*
X0200416Y0099493D01*
X0200602Y0099402D01*
X0200787Y0099307D01*
X0200969Y0099207D01*
X0201149Y0099103D01*
X0201325Y0098995D01*
X0201500Y0098883D01*
X0201671Y0098766D01*
X0201840Y0098645D01*
X0202005Y0098520D01*
X0202168Y0098391D01*
X0202327Y0098258D01*
X0202483Y0098121D01*
X0202636Y0097980D01*
X0202785Y0097836D01*
X0202930Y0097688D01*
X0203072Y0097537D01*
X0203210Y0097382D01*
X0203345Y0097224D01*
X0203475Y0097062D01*
X0203602Y0096898D01*
X0203724Y0096730D01*
X0203842Y0096560D01*
X0203956Y0096387D01*
X0204066Y0096211D01*
X0204172Y0096032D01*
X0204273Y0095851D01*
X0204369Y0095667D01*
X0204462Y0095481D01*
X0204549Y0095293D01*
X0204632Y0095103D01*
X0204710Y0094911D01*
X0204784Y0094717D01*
X0204853Y0094521D01*
X0204917Y0094324D01*
X0204976Y0094125D01*
X0205030Y0093925D01*
X0205080Y0093723D01*
X0205124Y0093520D01*
X0205164Y0093317D01*
X0205198Y0093112D01*
X0205228Y0092907D01*
X0205252Y0092701D01*
X0205272Y0092494D01*
X0205286Y0092287D01*
X0205295Y0092080D01*
X0205300Y0091872D01*
X0205299Y0091665D01*
X0205293Y0091458D01*
X0205282Y0091250D01*
X0205266Y0091043D01*
X0205245Y0090837D01*
X0205219Y0090631D01*
X0205188Y0090426D01*
X0205152Y0090222D01*
X0205111Y0090018D01*
X0205065Y0089816D01*
X0205014Y0089615D01*
X0204959Y0089415D01*
X0204898Y0089217D01*
X0204832Y0089020D01*
X0204762Y0088824D01*
X0204687Y0088631D01*
X0204607Y0088439D01*
X0204523Y0088250D01*
X0204434Y0088062D01*
X0204341Y0087877D01*
X0204243Y0087694D01*
X0204140Y0087514D01*
X0204033Y0087336D01*
X0203922Y0087161D01*
X0203807Y0086988D01*
X0203687Y0086819D01*
X0203564Y0086652D01*
X0203436Y0086489D01*
X0203305Y0086328D01*
X0203169Y0086171D01*
X0203030Y0086017D01*
X0202887Y0085867D01*
X0202740Y0085720D01*
X0202590Y0085577D01*
X0202436Y0085437D01*
X0202279Y0085302D01*
X0202119Y0085170D01*
X0201956Y0085042D01*
X0201789Y0084918D01*
X0201620Y0084799D01*
X0201447Y0084683D01*
X0201272Y0084572D01*
X0201095Y0084465D01*
X0200914Y0084362D01*
X0200731Y0084264D01*
X0200546Y0084170D01*
X0200359Y0084081D01*
X0200170Y0083996D01*
X0199978Y0083916D01*
X0199785Y0083841D01*
X0149300Y0094300D02*
X0148300Y0094300D01*
X0148300Y0095800D01*
X0148300Y0094300D02*
X0148000Y0094300D01*
X0147800Y0094300D01*
X0148000Y0094300D02*
X0148000Y0085600D01*
X0145500Y0085600D01*
X0145500Y0094300D01*
X0145300Y0094300D01*
X0145300Y0095800D01*
X0145300Y0094300D02*
X0144300Y0094300D01*
X0146800Y0099300D01*
X0149300Y0094300D01*
X0145800Y0094300D02*
X0145500Y0094300D01*
X0146800Y0100300D02*
X0146593Y0100297D01*
X0146385Y0100290D01*
X0146178Y0100277D01*
X0145971Y0100260D01*
X0145765Y0100237D01*
X0145560Y0100209D01*
X0145355Y0100176D01*
X0145151Y0100138D01*
X0144948Y0100096D01*
X0144746Y0100048D01*
X0144545Y0099995D01*
X0144346Y0099938D01*
X0144148Y0099876D01*
X0143951Y0099808D01*
X0143757Y0099737D01*
X0143564Y0099660D01*
X0143373Y0099579D01*
X0143184Y0099493D01*
X0142998Y0099402D01*
X0142813Y0099307D01*
X0142631Y0099207D01*
X0142451Y0099103D01*
X0142275Y0098995D01*
X0142100Y0098883D01*
X0141929Y0098766D01*
X0141760Y0098645D01*
X0141595Y0098520D01*
X0141432Y0098391D01*
X0141273Y0098258D01*
X0141117Y0098121D01*
X0140964Y0097980D01*
X0140815Y0097836D01*
X0140670Y0097688D01*
X0140528Y0097537D01*
X0140390Y0097382D01*
X0140255Y0097224D01*
X0140125Y0097062D01*
X0139998Y0096898D01*
X0139876Y0096730D01*
X0139758Y0096560D01*
X0139644Y0096387D01*
X0139534Y0096211D01*
X0139428Y0096032D01*
X0139327Y0095851D01*
X0139231Y0095667D01*
X0139138Y0095481D01*
X0139051Y0095293D01*
X0138968Y0095103D01*
X0138890Y0094911D01*
X0138816Y0094717D01*
X0138747Y0094521D01*
X0138683Y0094324D01*
X0138624Y0094125D01*
X0138570Y0093925D01*
X0138520Y0093723D01*
X0138476Y0093520D01*
X0138436Y0093317D01*
X0138402Y0093112D01*
X0138372Y0092907D01*
X0138348Y0092701D01*
X0138328Y0092494D01*
X0138314Y0092287D01*
X0138305Y0092080D01*
X0138300Y0091872D01*
X0138301Y0091665D01*
X0138307Y0091458D01*
X0138318Y0091250D01*
X0138334Y0091043D01*
X0138355Y0090837D01*
X0138381Y0090631D01*
X0138412Y0090426D01*
X0138448Y0090222D01*
X0138489Y0090018D01*
X0138535Y0089816D01*
X0138586Y0089615D01*
X0138641Y0089415D01*
X0138702Y0089217D01*
X0138768Y0089020D01*
X0138838Y0088824D01*
X0138913Y0088631D01*
X0138993Y0088439D01*
X0139077Y0088250D01*
X0139166Y0088062D01*
X0139259Y0087877D01*
X0139357Y0087694D01*
X0139460Y0087514D01*
X0139567Y0087336D01*
X0139678Y0087161D01*
X0139793Y0086988D01*
X0139913Y0086819D01*
X0140036Y0086652D01*
X0140164Y0086489D01*
X0140295Y0086328D01*
X0140431Y0086171D01*
X0140570Y0086017D01*
X0140713Y0085867D01*
X0140860Y0085720D01*
X0141010Y0085577D01*
X0141164Y0085437D01*
X0141321Y0085302D01*
X0141481Y0085170D01*
X0141644Y0085042D01*
X0141811Y0084918D01*
X0141980Y0084799D01*
X0142153Y0084683D01*
X0142328Y0084572D01*
X0142505Y0084465D01*
X0142686Y0084362D01*
X0142869Y0084264D01*
X0143054Y0084170D01*
X0143241Y0084081D01*
X0143430Y0083996D01*
X0143622Y0083916D01*
X0143815Y0083841D01*
X0146300Y0085800D02*
X0146300Y0097800D01*
X0147300Y0097800D01*
X0147300Y0085800D01*
X0146800Y0085800D02*
X0146300Y0085800D01*
X0146800Y0083300D02*
X0146596Y0083302D01*
X0146392Y0083310D01*
X0146188Y0083322D01*
X0145984Y0083339D01*
X0145781Y0083361D01*
X0145579Y0083388D01*
X0145377Y0083420D01*
X0145177Y0083456D01*
X0144977Y0083498D01*
X0144778Y0083544D01*
X0144580Y0083595D01*
X0144384Y0083651D01*
X0144189Y0083711D01*
X0143995Y0083776D01*
X0143803Y0083846D01*
X0143613Y0083920D01*
X0143425Y0083999D01*
X0143238Y0084082D01*
X0149785Y0083841D02*
X0149978Y0083916D01*
X0150170Y0083996D01*
X0150359Y0084081D01*
X0150546Y0084170D01*
X0150731Y0084264D01*
X0150914Y0084362D01*
X0151095Y0084465D01*
X0151272Y0084572D01*
X0151447Y0084683D01*
X0151620Y0084799D01*
X0151789Y0084918D01*
X0151956Y0085042D01*
X0152119Y0085170D01*
X0152279Y0085302D01*
X0152436Y0085437D01*
X0152590Y0085577D01*
X0152740Y0085720D01*
X0152887Y0085867D01*
X0153030Y0086017D01*
X0153169Y0086171D01*
X0153305Y0086328D01*
X0153436Y0086489D01*
X0153564Y0086652D01*
X0153687Y0086819D01*
X0153807Y0086988D01*
X0153922Y0087161D01*
X0154033Y0087336D01*
X0154140Y0087514D01*
X0154243Y0087694D01*
X0154341Y0087877D01*
X0154434Y0088062D01*
X0154523Y0088250D01*
X0154607Y0088439D01*
X0154687Y0088631D01*
X0154762Y0088824D01*
X0154832Y0089020D01*
X0154898Y0089217D01*
X0154959Y0089415D01*
X0155014Y0089615D01*
X0155065Y0089816D01*
X0155111Y0090018D01*
X0155152Y0090222D01*
X0155188Y0090426D01*
X0155219Y0090631D01*
X0155245Y0090837D01*
X0155266Y0091043D01*
X0155282Y0091250D01*
X0155293Y0091458D01*
X0155299Y0091665D01*
X0155300Y0091872D01*
X0155295Y0092080D01*
X0155286Y0092287D01*
X0155272Y0092494D01*
X0155252Y0092701D01*
X0155228Y0092907D01*
X0155198Y0093112D01*
X0155164Y0093317D01*
X0155124Y0093520D01*
X0155080Y0093723D01*
X0155030Y0093925D01*
X0154976Y0094125D01*
X0154917Y0094324D01*
X0154853Y0094521D01*
X0154784Y0094717D01*
X0154710Y0094911D01*
X0154632Y0095103D01*
X0154549Y0095293D01*
X0154462Y0095481D01*
X0154369Y0095667D01*
X0154273Y0095851D01*
X0154172Y0096032D01*
X0154066Y0096211D01*
X0153956Y0096387D01*
X0153842Y0096560D01*
X0153724Y0096730D01*
X0153602Y0096898D01*
X0153475Y0097062D01*
X0153345Y0097224D01*
X0153210Y0097382D01*
X0153072Y0097537D01*
X0152930Y0097688D01*
X0152785Y0097836D01*
X0152636Y0097980D01*
X0152483Y0098121D01*
X0152327Y0098258D01*
X0152168Y0098391D01*
X0152005Y0098520D01*
X0151840Y0098645D01*
X0151671Y0098766D01*
X0151500Y0098883D01*
X0151325Y0098995D01*
X0151149Y0099103D01*
X0150969Y0099207D01*
X0150787Y0099307D01*
X0150602Y0099402D01*
X0150416Y0099493D01*
X0150227Y0099579D01*
X0150036Y0099660D01*
X0149843Y0099737D01*
X0149649Y0099808D01*
X0149452Y0099876D01*
X0149254Y0099938D01*
X0149055Y0099995D01*
X0148854Y0100048D01*
X0148652Y0100096D01*
X0148449Y0100138D01*
X0148245Y0100176D01*
X0148040Y0100209D01*
X0147835Y0100237D01*
X0147629Y0100260D01*
X0147422Y0100277D01*
X0147215Y0100290D01*
X0147007Y0100297D01*
X0146800Y0100300D01*
X0150601Y0084197D02*
X0150414Y0084107D01*
X0150226Y0084021D01*
X0150035Y0083940D01*
X0149842Y0083863D01*
X0149648Y0083791D01*
X0149451Y0083724D01*
X0149253Y0083662D01*
X0149054Y0083604D01*
X0148853Y0083552D01*
X0148652Y0083504D01*
X0148449Y0083461D01*
X0148245Y0083424D01*
X0148040Y0083391D01*
X0147834Y0083363D01*
X0147628Y0083340D01*
X0147422Y0083323D01*
X0147215Y0083310D01*
X0147007Y0083303D01*
X0146800Y0083300D01*
X0108613Y0030993D02*
X0108712Y0030828D01*
X0108807Y0030661D01*
X0108897Y0030492D01*
X0108984Y0030321D01*
X0109066Y0030147D01*
X0109144Y0029972D01*
X0109218Y0029795D01*
X0109288Y0029616D01*
X0109353Y0029436D01*
X0109414Y0029254D01*
X0109471Y0029071D01*
X0109523Y0028886D01*
X0109571Y0028700D01*
X0109614Y0028513D01*
X0109653Y0028325D01*
X0109688Y0028137D01*
X0109717Y0027947D01*
X0109743Y0027757D01*
X0109763Y0027566D01*
X0109779Y0027375D01*
X0109791Y0027183D01*
X0109798Y0026992D01*
X0109800Y0026800D01*
X0108746Y0030769D02*
X0108647Y0030938D01*
X0108543Y0031104D01*
X0108436Y0031268D01*
X0108325Y0031429D01*
X0108210Y0031587D01*
X0108091Y0031742D01*
X0107968Y0031895D01*
X0107842Y0032044D01*
X0107712Y0032190D01*
X0107578Y0032333D01*
X0107441Y0032473D01*
X0107301Y0032609D01*
X0107157Y0032742D01*
X0107010Y0032871D01*
X0106860Y0032997D01*
X0106707Y0033118D01*
X0106551Y0033237D01*
X0106392Y0033351D01*
X0106231Y0033461D01*
X0106066Y0033567D01*
X0105900Y0033670D01*
X0105730Y0033768D01*
X0105559Y0033862D01*
X0105385Y0033952D01*
X0105209Y0034037D01*
X0105031Y0034119D01*
X0104851Y0034195D01*
X0104669Y0034268D01*
X0104486Y0034336D01*
X0104301Y0034399D01*
X0104114Y0034458D01*
X0103926Y0034512D01*
X0103737Y0034562D01*
X0103547Y0034607D01*
X0103355Y0034647D01*
X0103163Y0034683D01*
X0102970Y0034714D01*
X0102776Y0034740D01*
X0102581Y0034762D01*
X0102386Y0034778D01*
X0102191Y0034790D01*
X0101995Y0034798D01*
X0101800Y0034800D01*
X0095600Y0031800D02*
X0095600Y0021800D01*
X0101800Y0018800D02*
X0101992Y0018802D01*
X0102184Y0018809D01*
X0102376Y0018821D01*
X0102568Y0018837D01*
X0102759Y0018858D01*
X0102949Y0018883D01*
X0103139Y0018913D01*
X0103328Y0018947D01*
X0103516Y0018986D01*
X0103703Y0019030D01*
X0103889Y0019078D01*
X0104074Y0019130D01*
X0104258Y0019187D01*
X0104440Y0019248D01*
X0104620Y0019314D01*
X0104799Y0019384D01*
X0104977Y0019458D01*
X0105152Y0019536D01*
X0105326Y0019619D01*
X0105497Y0019706D01*
X0105666Y0019796D01*
X0105833Y0019891D01*
X0105998Y0019990D01*
X0106161Y0020093D01*
X0106320Y0020200D01*
X0106478Y0020310D01*
X0106632Y0020424D01*
X0106784Y0020542D01*
X0106933Y0020664D01*
X0107079Y0020789D01*
X0107221Y0020917D01*
X0107361Y0021049D01*
X0107498Y0021184D01*
X0107631Y0021323D01*
X0107761Y0021464D01*
X0107887Y0021609D01*
X0108010Y0021757D01*
X0108129Y0021907D01*
X0108245Y0022061D01*
X0108357Y0022217D01*
X0108465Y0022376D01*
X0108570Y0022537D01*
X0108670Y0022701D01*
X0108766Y0022867D01*
X0108859Y0023035D01*
X0108844Y0023007D02*
X0108931Y0023174D01*
X0109014Y0023343D01*
X0109094Y0023513D01*
X0109169Y0023686D01*
X0109240Y0023860D01*
X0109307Y0024036D01*
X0109370Y0024213D01*
X0109429Y0024392D01*
X0109483Y0024572D01*
X0109534Y0024753D01*
X0109580Y0024936D01*
X0109621Y0025119D01*
X0109659Y0025303D01*
X0109692Y0025489D01*
X0109720Y0025675D01*
X0109745Y0025861D01*
X0109765Y0026048D01*
X0109780Y0026236D01*
X0109791Y0026424D01*
X0109798Y0026612D01*
X0109800Y0026800D01*
X0101800Y0018800D02*
X0101605Y0018802D01*
X0101411Y0018809D01*
X0101217Y0018821D01*
X0101023Y0018838D01*
X0100829Y0018859D01*
X0100636Y0018885D01*
X0100444Y0018916D01*
X0100252Y0018951D01*
X0100062Y0018991D01*
X0099872Y0019036D01*
X0099684Y0019085D01*
X0099497Y0019139D01*
X0099311Y0019197D01*
X0099127Y0019260D01*
X0098944Y0019327D01*
X0098763Y0019399D01*
X0098584Y0019475D01*
X0098407Y0019555D01*
X0098232Y0019640D01*
X0098058Y0019729D01*
X0097888Y0019822D01*
X0097719Y0019919D01*
X0097553Y0020021D01*
X0097389Y0020126D01*
X0097228Y0020235D01*
X0097069Y0020348D01*
X0096914Y0020465D01*
X0096761Y0020586D01*
X0096612Y0020711D01*
X0096465Y0020839D01*
X0096321Y0020970D01*
X0096181Y0021105D01*
X0096044Y0021244D01*
X0095911Y0021385D01*
X0095781Y0021530D01*
X0095654Y0021678D01*
X0095693Y0031968D02*
X0095820Y0032114D01*
X0095949Y0032256D01*
X0096083Y0032396D01*
X0096219Y0032532D01*
X0096359Y0032665D01*
X0096502Y0032795D01*
X0096649Y0032921D01*
X0096798Y0033043D01*
X0096950Y0033162D01*
X0097105Y0033277D01*
X0097262Y0033389D01*
X0097422Y0033496D01*
X0097585Y0033600D01*
X0097751Y0033699D01*
X0097918Y0033795D01*
X0098088Y0033887D01*
X0098260Y0033974D01*
X0098434Y0034058D01*
X0098610Y0034137D01*
X0098788Y0034211D01*
X0098968Y0034282D01*
X0099149Y0034348D01*
X0099332Y0034410D01*
X0099516Y0034467D01*
X0099702Y0034520D01*
X0099889Y0034568D01*
X0100077Y0034612D01*
X0100266Y0034651D01*
X0100456Y0034686D01*
X0100646Y0034716D01*
X0100837Y0034742D01*
X0101029Y0034763D01*
X0101222Y0034779D01*
X0101414Y0034791D01*
X0101607Y0034798D01*
X0101800Y0034800D01*
D19*
X0213398Y0043980D02*
X0213398Y0045081D01*
X0213765Y0045448D01*
X0215233Y0045448D01*
X0215600Y0045081D01*
X0215600Y0043980D01*
X0213398Y0043980D01*
X0214132Y0046190D02*
X0213398Y0046924D01*
X0215600Y0046924D01*
X0215600Y0046190D02*
X0215600Y0047658D01*
D20*
X0291800Y0046800D03*
X0291800Y0036800D03*
X0292300Y0056800D03*
X0292300Y0066800D03*
X0292300Y0076800D03*
X0292300Y0086800D03*
X0292300Y0096800D03*
X0292300Y0106800D03*
X0046800Y0026800D03*
X0046800Y0016800D03*
M02*
