G75*
%MOIN*%
%OFA0B0*%
%FSLAX25Y25*%
%IPPOS*%
%LPD*%
%AMOC8*
5,1,8,0,0,1.08239X$1,22.5*
%
%ADD10C,0.00700*%
%ADD11C,0.01600*%
D10*
X0056069Y0122650D02*
X0059222Y0122650D01*
X0060273Y0123701D01*
X0060273Y0125803D01*
X0059222Y0126854D01*
X0056069Y0126854D01*
X0056069Y0128955D02*
X0056069Y0122650D01*
X0062515Y0123701D02*
X0062515Y0125803D01*
X0063566Y0126854D01*
X0065668Y0126854D01*
X0066719Y0125803D01*
X0066719Y0123701D01*
X0065668Y0122650D01*
X0063566Y0122650D01*
X0062515Y0123701D01*
X0068960Y0123701D02*
X0068960Y0125803D01*
X0070011Y0126854D01*
X0072113Y0126854D01*
X0073164Y0125803D01*
X0073164Y0123701D01*
X0072113Y0122650D01*
X0070011Y0122650D01*
X0068960Y0123701D01*
X0075406Y0122650D02*
X0075406Y0128955D01*
X0079610Y0128955D02*
X0079610Y0122650D01*
X0077508Y0124752D01*
X0075406Y0122650D01*
X0088297Y0122650D02*
X0088297Y0125803D01*
X0089348Y0126854D01*
X0092501Y0126854D01*
X0092501Y0122650D01*
X0094742Y0123701D02*
X0094742Y0125803D01*
X0095793Y0126854D01*
X0097895Y0126854D01*
X0098946Y0125803D01*
X0098946Y0123701D01*
X0097895Y0122650D01*
X0095793Y0122650D01*
X0094742Y0123701D01*
X0101188Y0123701D02*
X0101188Y0127904D01*
X0102239Y0128955D01*
X0105392Y0128955D01*
X0105392Y0122650D01*
X0102239Y0122650D01*
X0101188Y0123701D01*
X0106536Y0118455D02*
X0105485Y0117404D01*
X0105485Y0116354D01*
X0106536Y0115303D01*
X0108638Y0115303D01*
X0109689Y0116354D01*
X0109689Y0117404D01*
X0108638Y0118455D01*
X0106536Y0118455D01*
X0106536Y0115303D02*
X0105485Y0114252D01*
X0105485Y0113201D01*
X0106536Y0112150D01*
X0108638Y0112150D01*
X0109689Y0113201D01*
X0109689Y0114252D01*
X0108638Y0115303D01*
X0111930Y0116354D02*
X0111930Y0117404D01*
X0112981Y0118455D01*
X0115083Y0118455D01*
X0116134Y0117404D01*
X0118376Y0117404D02*
X0122580Y0113201D01*
X0121529Y0112150D01*
X0119427Y0112150D01*
X0118376Y0113201D01*
X0118376Y0117404D01*
X0119427Y0118455D01*
X0121529Y0118455D01*
X0122580Y0117404D01*
X0122580Y0113201D01*
X0124821Y0112150D02*
X0129025Y0112150D01*
X0126923Y0112150D02*
X0126923Y0118455D01*
X0129025Y0116354D01*
X0131267Y0117404D02*
X0131267Y0113201D01*
X0132318Y0112150D01*
X0134420Y0112150D01*
X0135471Y0113201D01*
X0131267Y0117404D01*
X0132318Y0118455D01*
X0134420Y0118455D01*
X0135471Y0117404D01*
X0135471Y0113201D01*
X0137712Y0112150D02*
X0141916Y0112150D01*
X0137712Y0116354D01*
X0137712Y0117404D01*
X0138763Y0118455D01*
X0140865Y0118455D01*
X0141916Y0117404D01*
X0144158Y0117404D02*
X0148362Y0113201D01*
X0147311Y0112150D01*
X0145209Y0112150D01*
X0144158Y0113201D01*
X0144158Y0117404D01*
X0145209Y0118455D01*
X0147311Y0118455D01*
X0148362Y0117404D01*
X0148362Y0113201D01*
X0150603Y0112150D02*
X0154807Y0112150D01*
X0150603Y0116354D01*
X0150603Y0117404D01*
X0151654Y0118455D01*
X0153756Y0118455D01*
X0154807Y0117404D01*
X0153803Y0122650D02*
X0152752Y0123701D01*
X0152752Y0125803D01*
X0153803Y0126854D01*
X0155905Y0126854D01*
X0156956Y0125803D01*
X0156956Y0123701D01*
X0155905Y0122650D01*
X0153803Y0122650D01*
X0150510Y0122650D02*
X0150510Y0126854D01*
X0150510Y0124752D02*
X0148408Y0126854D01*
X0147357Y0126854D01*
X0138693Y0123701D02*
X0137642Y0124752D01*
X0134490Y0124752D01*
X0134490Y0125803D02*
X0134490Y0122650D01*
X0137642Y0122650D01*
X0138693Y0123701D01*
X0137642Y0126854D02*
X0135541Y0126854D01*
X0134490Y0125803D01*
X0132248Y0125803D02*
X0130146Y0125803D01*
X0131197Y0127904D02*
X0130146Y0128955D01*
X0131197Y0127904D02*
X0131197Y0122650D01*
X0126900Y0123701D02*
X0126900Y0127904D01*
X0127951Y0126854D02*
X0125849Y0126854D01*
X0123654Y0125803D02*
X0122603Y0126854D01*
X0120501Y0126854D01*
X0119450Y0125803D01*
X0119450Y0124752D01*
X0123654Y0124752D01*
X0123654Y0123701D02*
X0123654Y0125803D01*
X0123654Y0123701D02*
X0122603Y0122650D01*
X0120501Y0122650D01*
X0117208Y0122650D02*
X0117208Y0126854D01*
X0115107Y0126854D02*
X0117208Y0124752D01*
X0115107Y0126854D02*
X0114056Y0126854D01*
X0111930Y0116354D02*
X0116134Y0112150D01*
X0111930Y0112150D01*
X0125849Y0122650D02*
X0126900Y0123701D01*
X0159151Y0122650D02*
X0160202Y0123701D01*
X0160202Y0127904D01*
X0161253Y0126854D02*
X0159151Y0126854D01*
X0163494Y0126854D02*
X0166647Y0126854D01*
X0167698Y0125803D01*
X0167698Y0123701D01*
X0166647Y0122650D01*
X0163494Y0122650D01*
X0164545Y0116354D02*
X0163494Y0115303D01*
X0163494Y0112150D01*
X0164545Y0116354D02*
X0167698Y0116354D01*
X0167698Y0112150D01*
X0169940Y0112150D02*
X0169940Y0115303D01*
X0170991Y0116354D01*
X0174144Y0116354D01*
X0174144Y0112150D01*
X0176385Y0112150D02*
X0179538Y0112150D01*
X0180589Y0113201D01*
X0179538Y0114252D01*
X0176385Y0114252D01*
X0176385Y0115303D02*
X0176385Y0112150D01*
X0176385Y0115303D02*
X0177436Y0116354D01*
X0179538Y0116354D01*
X0182831Y0115303D02*
X0182831Y0112150D01*
X0184933Y0112150D02*
X0184933Y0115303D01*
X0183882Y0116354D01*
X0182831Y0115303D01*
X0184933Y0115303D02*
X0185984Y0116354D01*
X0187035Y0116354D01*
X0187035Y0112150D01*
X0189276Y0112150D02*
X0189276Y0116354D01*
X0189276Y0112150D02*
X0192429Y0112150D01*
X0193480Y0113201D01*
X0193480Y0116354D01*
X0195722Y0115303D02*
X0196773Y0116354D01*
X0198875Y0116354D01*
X0199926Y0115303D01*
X0199926Y0113201D01*
X0198875Y0112150D01*
X0196773Y0112150D01*
X0195722Y0114252D02*
X0199926Y0114252D01*
X0202167Y0112150D02*
X0202167Y0118455D01*
X0202074Y0122650D02*
X0199972Y0122650D01*
X0201023Y0122650D02*
X0201023Y0128955D01*
X0202074Y0128955D01*
X0204316Y0125803D02*
X0204316Y0122650D01*
X0207469Y0122650D01*
X0208520Y0123701D01*
X0207469Y0124752D01*
X0204316Y0124752D01*
X0204316Y0125803D02*
X0205367Y0126854D01*
X0207469Y0126854D01*
X0210761Y0126854D02*
X0213914Y0126854D01*
X0214965Y0125803D01*
X0214965Y0123701D01*
X0213914Y0122650D01*
X0210761Y0122650D01*
X0206371Y0118455D02*
X0202167Y0112150D01*
X0206371Y0112150D02*
X0206371Y0118455D01*
X0215058Y0115303D02*
X0215058Y0112150D01*
X0215058Y0115303D02*
X0216109Y0116354D01*
X0218211Y0116354D01*
X0219262Y0115303D01*
X0221457Y0116354D02*
X0223559Y0116354D01*
X0222508Y0117404D02*
X0222508Y0113201D01*
X0221457Y0112150D01*
X0219262Y0112150D02*
X0219262Y0118455D01*
X0219262Y0122650D02*
X0217160Y0122650D01*
X0218211Y0122650D02*
X0218211Y0126854D01*
X0219262Y0126854D01*
X0221457Y0126854D02*
X0223559Y0126854D01*
X0222508Y0127904D02*
X0222508Y0123701D01*
X0221457Y0122650D01*
X0225801Y0123701D02*
X0225801Y0125803D01*
X0226852Y0126854D01*
X0230005Y0126854D01*
X0230005Y0120548D01*
X0230005Y0122650D02*
X0226852Y0122650D01*
X0225801Y0123701D01*
X0226852Y0116354D02*
X0225801Y0115303D01*
X0225801Y0114252D01*
X0230005Y0114252D01*
X0230005Y0115303D02*
X0228954Y0116354D01*
X0226852Y0116354D01*
X0230005Y0115303D02*
X0230005Y0113201D01*
X0228954Y0112150D01*
X0226852Y0112150D01*
X0232246Y0113201D02*
X0233297Y0112150D01*
X0235399Y0112150D01*
X0236450Y0113201D01*
X0235399Y0115303D02*
X0233297Y0115303D01*
X0232246Y0114252D01*
X0232246Y0113201D01*
X0235399Y0115303D02*
X0236450Y0116354D01*
X0236450Y0117404D01*
X0235399Y0118455D01*
X0233297Y0118455D01*
X0232246Y0117404D01*
X0233297Y0122650D02*
X0232246Y0123701D01*
X0232246Y0127904D01*
X0233297Y0128955D01*
X0235399Y0128955D01*
X0236450Y0127904D01*
X0236450Y0123701D01*
X0235399Y0122650D01*
X0233297Y0122650D01*
X0218211Y0128955D02*
X0218211Y0130006D01*
X0195722Y0115303D02*
X0195722Y0114252D01*
X0191332Y0122650D02*
X0188179Y0122650D01*
X0187128Y0123701D01*
X0187128Y0127904D01*
X0188179Y0128955D01*
X0191332Y0128955D01*
X0191332Y0122650D01*
X0184886Y0123701D02*
X0184886Y0125803D01*
X0183835Y0126854D01*
X0181733Y0126854D01*
X0180682Y0125803D01*
X0180682Y0124752D01*
X0184886Y0124752D01*
X0184886Y0123701D02*
X0183835Y0122650D01*
X0181733Y0122650D01*
X0177390Y0123701D02*
X0177390Y0127904D01*
X0178441Y0126854D02*
X0176339Y0126854D01*
X0174144Y0125803D02*
X0174144Y0123701D01*
X0173093Y0122650D01*
X0170991Y0122650D01*
X0169940Y0124752D02*
X0174144Y0124752D01*
X0174144Y0125803D02*
X0173093Y0126854D01*
X0170991Y0126854D01*
X0169940Y0125803D01*
X0169940Y0124752D01*
X0176339Y0122650D02*
X0177390Y0123701D01*
D11*
X0001800Y0131800D02*
X0001800Y0001800D01*
X0336800Y0001800D01*
X0336800Y0131800D01*
X0001800Y0131800D01*
M02*
